<?xml version="1.0" encoding="utf-8"?>
<!-- Generator: Adobe Illustrator 26.2.1, SVG Export Plug-In . SVG Version: 6.00 Build 0)  -->
<svg version="1.1" id="Layer_1" xmlns="http://www.w3.org/2000/svg" xmlns:xlink="http://www.w3.org/1999/xlink" x="0px" y="0px"
	 viewBox="0 0 512.8 213.3" style="enable-background:new 0 0 512.8 213.3;" xml:space="preserve">
<style type="text/css">
	.st0{fill:none;stroke:#0DAB76;stroke-width:0.432;stroke-linecap:round;stroke-miterlimit:11.3386;}
	.st1{fill:#808080;}
	.st2{font-family:'ArialMT';}
	.st3{font-size:5.544px;}
	.st4{fill:#0DAB76;}
	.st5{fill:none;stroke:#C90D0C;stroke-width:0.432;stroke-linecap:round;stroke-miterlimit:11.3386;}
	.st6{fill:none;stroke:#C90D0C;stroke-width:0.72;stroke-linecap:round;stroke-miterlimit:11.3386;}
	.st7{fill:none;stroke:#C90D0C;stroke-width:0.72;stroke-miterlimit:11.3386;}
	.st8{font-size:3.96px;}
	.st9{fill:none;stroke:#C90D0C;stroke-width:0.432;stroke-miterlimit:11.3386;}
	.st10{font-size:4.752px;}
	.st11{fill:none;stroke:#C90D0C;stroke-width:1.152;stroke-linecap:round;stroke-miterlimit:11.3386;}
	.st12{fill:#C90D0C;}
	.st13{fill:none;stroke:#C90D0C;stroke-width:0.576;stroke-linecap:round;stroke-miterlimit:11.3386;}
</style>
<desc>generated by eagle2svg 1.4, developed by http://www.nicai-systems.de</desc>
<line class="st0" x1="389.6" y1="63.1" x2="432.8" y2="63.1"/>
<text transform="matrix(1 0 0 1 403.957 63.0758)" class="st1 st2 st3">A/R</text>
<line class="st0" x1="215" y1="120.7" x2="243.8" y2="120.7"/>
<text transform="matrix(1 0 0 1 229.3554 120.6764)" class="st1 st2 st3">A/R</text>
<line class="st0" x1="215" y1="106.3" x2="243.8" y2="106.3"/>
<text transform="matrix(1 0 0 1 229.3554 106.276)" class="st1 st2 st3">GAIN</text>
<line class="st0" x1="389.6" y1="77.5" x2="432.8" y2="77.5"/>
<text transform="matrix(1 0 0 1 403.957 77.4762)" class="st1 st2 st3">GAIN</text>
<line class="st0" x1="490.4" y1="106.3" x2="468.8" y2="106.3"/>
<line class="st0" x1="490.4" y1="99.1" x2="490.4" y2="106.3"/>
<circle class="st4" cx="490.4" cy="106.3" r="1.4"/>
<line class="st0" x1="35" y1="48.7" x2="20.6" y2="48.7"/>
<line class="st0" x1="20.6" y1="48.7" x2="20.6" y2="63.1"/>
<line class="st0" x1="20.6" y1="63.1" x2="20.6" y2="77.5"/>
<line class="st0" x1="20.6" y1="77.5" x2="35" y2="77.5"/>
<circle class="st4" cx="20.6" cy="63.1" r="1.4"/>
<line class="st0" x1="315.8" y1="106.3" x2="315.8" y2="91.9"/>
<line class="st0" x1="294.2" y1="192.7" x2="308.6" y2="178.3"/>
<line class="st0" x1="258.2" y1="91.9" x2="215" y2="91.9"/>
<line class="st0" x1="258.2" y1="77.5" x2="251" y2="77.5"/>
<line class="st0" x1="258.2" y1="91.9" x2="258.2" y2="77.5"/>
<circle class="st4" cx="258.2" cy="91.9" r="1.4"/>
<line class="st0" x1="179" y1="27.1" x2="164.6" y2="27.1"/>
<g>
	<line class="st0" x1="243.8" y1="171.1" x2="279.8" y2="171.1"/>
	<line class="st0" x1="279.8" y1="127.9" x2="279.8" y2="171.1"/>
	<line class="st0" x1="279.8" y1="171.1" x2="308.6" y2="171.1"/>
	<circle class="st4" cx="279.8" cy="127.9" r="1.4"/>
	<circle class="st4" cx="279.8" cy="171.1" r="1.4"/>
	<text transform="matrix(1 0 0 1 258.1562 163.8766)" class="st1 st2 st3">INPUT</text>
</g>
<line class="st0" x1="440" y1="84.7" x2="389.6" y2="84.7"/>
<line class="st0" x1="440" y1="106.3" x2="440" y2="91.9"/>
<line class="st0" x1="440" y1="91.9" x2="389.6" y2="91.9"/>
<g>
	<line class="st0" x1="243.8" y1="149.5" x2="243.8" y2="135.1"/>
	<line class="st0" x1="243.8" y1="135.1" x2="215" y2="135.1"/>
</g>
<g>
	<line class="st0" x1="229.4" y1="77.5" x2="215" y2="77.5"/>
</g>
<g>
	<line class="st0" x1="56.6" y1="48.7" x2="114.2" y2="48.7"/>
</g>
<g>
	<line class="st0" x1="56.6" y1="77.5" x2="114.2" y2="77.5"/>
</g>
<g>
	<line class="st0" x1="215" y1="48.7" x2="315.8" y2="48.7"/>
	<line class="st0" x1="315.8" y1="48.7" x2="315.8" y2="63.1"/>
	<line class="st0" x1="315.8" y1="63.1" x2="308.6" y2="63.1"/>
	<circle class="st4" cx="315.8" cy="63.1" r="1.4"/>
</g>
<g>
	<line class="st0" x1="215" y1="63.1" x2="279.8" y2="63.1"/>
	<line class="st0" x1="279.8" y1="63.1" x2="279.8" y2="99.1"/>
	<circle class="st4" cx="279.8" cy="63.1" r="1.4"/>
</g>
<line class="st0" x1="114.2" y1="120.7" x2="20.6" y2="120.7"/>
<text transform="matrix(1 0 0 1 20.5556 120.6764)" class="st1 st2 st3">OUTPUT</text>
<line class="st0" x1="389.6" y1="70.3" x2="432.8" y2="70.3"/>
<text transform="matrix(1 0 0 1 403.957 70.277)" class="st1 st2 st3">OUTPUT</text>
<line class="st0" x1="490.4" y1="63.1" x2="468.8" y2="63.1"/>
<line class="st0" x1="468.8" y1="63.1" x2="468.8" y2="84.7"/>
<line class="st0" x1="490.4" y1="77.5" x2="490.4" y2="63.1"/>
<line class="st0" x1="490.4" y1="63.1" x2="490.4" y2="48.7"/>
<circle class="st4" cx="490.4" cy="48.7" r="1.4"/>
<circle class="st4" cx="490.4" cy="63.1" r="1.4"/>
<line class="st0" x1="92.6" y1="106.3" x2="114.2" y2="106.3"/>
<line class="st0" x1="92.6" y1="63.1" x2="114.2" y2="63.1"/>
<line class="st5" x1="490.4" y1="77.5" x2="490.4" y2="84.7"/>
<line class="st5" x1="490.4" y1="99.1" x2="490.4" y2="91.9"/>
<line class="st6" x1="483.2" y1="84.7" x2="497.6" y2="84.7"/>
<line class="st5" x1="490.4" y1="87.6" x2="490.4" y2="91.9"/>
<path class="st7" d="M497.4,89.9c-2-1.6-4.5-2.4-7.1-2.4"/>
<path class="st7" d="M490.4,87.6c-2.5,0-5,0.8-7,2.4"/>
<text transform="matrix(1 0 0 1 493.2363 82.8766)" class="st1 st2 st3">C1</text>
<text transform="matrix(1 0 0 1 493.2363 96.5563)" class="st1 st2 st3">2.2uF</text>
<g>
	<line class="st5" x1="56.6" y1="48.7" x2="49.4" y2="48.7"/>
	<line class="st5" x1="35" y1="48.7" x2="42.2" y2="48.7"/>
	<line class="st6" x1="49.4" y1="41.5" x2="49.4" y2="55.9"/>
	<line class="st5" x1="46.5" y1="48.7" x2="42.2" y2="48.7"/>
	<path class="st7" d="M44.1,55.7c1.6-2,2.4-4.5,2.4-7.1"/>
	<path class="st7" d="M46.5,48.7c0-2.5-0.8-5-2.4-7"/>
	<text transform="matrix(-1.836970e-16 1 -1 -1.836970e-16 51.1561 51.5563)" class="st1 st2 st3">C2</text>
	<text transform="matrix(-1.836970e-16 1 -1 -1.836970e-16 37.4745 51.5563)" class="st1 st2 st3">0.1uF</text>
</g>
<g>
	<line class="st5" x1="56.6" y1="77.5" x2="49.4" y2="77.5"/>
	<line class="st5" x1="35" y1="77.5" x2="42.2" y2="77.5"/>
	<line class="st6" x1="49.4" y1="70.3" x2="49.4" y2="84.7"/>
	<line class="st5" x1="46.5" y1="77.5" x2="42.2" y2="77.5"/>
	<path class="st7" d="M44.1,84.5c1.6-2,2.4-4.5,2.4-7.1"/>
	<path class="st7" d="M46.5,77.5c0-2.5-0.8-5-2.4-7"/>
	<text transform="matrix(-1.836970e-16 1 -1 -1.836970e-16 51.1561 80.3561)" class="st1 st2 st3">C5</text>
	<text transform="matrix(-1.836970e-16 1 -1 -1.836970e-16 37.4745 80.3561)" class="st1 st2 st3">2.2uF</text>
</g>
<g>
	<line class="st5" x1="229.4" y1="77.5" x2="236.6" y2="77.5"/>
	<line class="st5" x1="251" y1="77.5" x2="243.8" y2="77.5"/>
	<line class="st6" x1="236.6" y1="84.7" x2="236.6" y2="70.3"/>
	<line class="st5" x1="239.4" y1="77.5" x2="243.8" y2="77.5"/>
	<path class="st7" d="M241.8,70.4c-1.6,2-2.4,4.5-2.4,7.1"/>
	<path class="st7" d="M239.4,77.5c0,2.5,0.8,5,2.4,7"/>
	<text transform="matrix(6.123234e-17 -1 1 6.123234e-17 234.7558 74.5954)" class="st1 st2 st3">C8</text>
	<text transform="matrix(6.123234e-17 -1 1 6.123234e-17 248.4354 74.5954)" class="st1 st2 st3">0.47uF</text>
</g>
<line class="st5" x1="243.8" y1="149.5" x2="243.8" y2="156.7"/>
<line class="st5" x1="243.8" y1="171.1" x2="243.8" y2="163.9"/>
<line class="st6" x1="251" y1="156.7" x2="236.6" y2="156.7"/>
<line class="st5" x1="243.8" y1="159.6" x2="243.8" y2="163.9"/>
<path class="st7" d="M243.8,159.5c-2.6,0-5,0.9-7.1,2.4"/>
<path class="st7" d="M250.7,161.9c-2-1.5-4.5-2.4-7-2.4"/>
<text transform="matrix(1 0 0 1 229.3552 154.8766)" class="st1 st2 st3">C9</text>
<text transform="matrix(1 0 0 1 229.3552 168.5563)" class="st1 st2 st3">0.1uF</text>
<line class="st5" x1="440" y1="84.7" x2="447.2" y2="84.7"/>
<line class="st5" x1="468.8" y1="84.7" x2="461.6" y2="84.7"/>
<line class="st6" x1="447.2" y1="88.3" x2="447.2" y2="84.7"/>
<line class="st6" x1="447.2" y1="84.7" x2="447.2" y2="81.1"/>
<line class="st6" x1="447.2" y1="81.1" x2="461.6" y2="81.1"/>
<line class="st6" x1="461.6" y1="81.1" x2="461.6" y2="84.7"/>
<line class="st6" x1="461.6" y1="84.7" x2="461.6" y2="88.3"/>
<line class="st6" x1="461.6" y1="88.3" x2="447.2" y2="88.3"/>
<line class="st6" x1="447.2" y1="84.7" x2="461.6" y2="84.7"/>
<text transform="matrix(1 0 0 1 447.1562 79.277)" class="st1 st2 st8">FB1</text>
<text transform="matrix(1 0 0 1 447.1562 93.6755)" class="st1 st2 st8">FERRITE</text>
<line class="st5" x1="440" y1="106.3" x2="447.2" y2="106.3"/>
<line class="st5" x1="468.8" y1="106.3" x2="461.6" y2="106.3"/>
<line class="st6" x1="447.2" y1="109.9" x2="447.2" y2="106.3"/>
<line class="st6" x1="447.2" y1="106.3" x2="447.2" y2="102.7"/>
<line class="st6" x1="447.2" y1="102.7" x2="461.6" y2="102.7"/>
<line class="st6" x1="461.6" y1="102.7" x2="461.6" y2="106.3"/>
<line class="st6" x1="461.6" y1="106.3" x2="461.6" y2="109.9"/>
<line class="st6" x1="461.6" y1="109.9" x2="447.2" y2="109.9"/>
<line class="st6" x1="447.2" y1="106.3" x2="461.6" y2="106.3"/>
<text transform="matrix(1 0 0 1 447.1562 100.8766)" class="st1 st2 st8">FB2</text>
<text transform="matrix(1 0 0 1 447.1562 115.276)" class="st1 st2 st8">FERRITE</text>
<line class="st5" x1="490.4" y1="106.3" x2="490.4" y2="113.5"/>
<line class="st6" x1="485" y1="113.5" x2="495.8" y2="113.5"/>
<text transform="matrix(1 0 0 1 483.1562 120.6764)" class="st1 st2 st3">GND</text>
<g>
	<line class="st5" x1="179" y1="27.1" x2="186.2" y2="27.1"/>
	<line class="st6" x1="186.2" y1="32.5" x2="186.2" y2="21.7"/>
	<text transform="matrix(6.123234e-17 -1 1 6.123234e-17 193.3554 34.2751)" class="st1 st2 st3">GND</text>
</g>
<g>
	<line class="st5" x1="294.2" y1="192.7" x2="294.2" y2="199.9"/>
	<line class="st6" x1="288.8" y1="199.9" x2="299.6" y2="199.9"/>
	<text transform="matrix(1 0 0 1 286.956 207.0758)" class="st1 st2 st3">GND</text>
</g>
<g>
	<line class="st5" x1="114.2" y1="91.9" x2="107" y2="91.9"/>
	<line class="st6" x1="107" y1="86.5" x2="107" y2="97.3"/>
	<text transform="matrix(-1.836970e-16 1 -1 -1.836970e-16 99.7558 84.6764)" class="st1 st2 st3">GND</text>
</g>
<g>
	<line class="st5" x1="20.6" y1="63.1" x2="13.4" y2="63.1"/>
	<line class="st6" x1="13.4" y1="57.7" x2="13.4" y2="68.5"/>
	<text transform="matrix(-1.836970e-16 1 -1 -1.836970e-16 6.1561 55.8766)" class="st1 st2 st3">GND</text>
</g>
<g>
	<line class="st5" x1="315.8" y1="106.3" x2="315.8" y2="113.5"/>
	<line class="st6" x1="310.4" y1="113.5" x2="321.2" y2="113.5"/>
	<text transform="matrix(1 0 0 1 308.5556 120.6764)" class="st1 st2 st3">GND</text>
</g>
<g>
	<line class="st5" x1="114.2" y1="135.1" x2="114.2" y2="142.3"/>
	<line class="st6" x1="108.8" y1="142.3" x2="119.6" y2="142.3"/>
	<text transform="matrix(1 0 0 1 106.9559 149.4762)" class="st1 st2 st3">GND</text>
</g>
<g>
	<line class="st5" x1="258.2" y1="91.9" x2="258.2" y2="99.1"/>
	<line class="st6" x1="252.8" y1="99.1" x2="263.6" y2="99.1"/>
	<text transform="matrix(1 0 0 1 250.9559 106.276)" class="st1 st2 st3">GND</text>
</g>
<line class="st5" x1="389.6" y1="91.9" x2="388" y2="91.9"/>
<circle class="st9" cx="385.2" cy="91.9" r="2.8"/>
<text transform="matrix(1 0 0 1 388.9804 90.8688)" class="st1 st2 st10">1</text>
<line class="st5" x1="389.6" y1="84.7" x2="388" y2="84.7"/>
<circle class="st9" cx="385.2" cy="84.7" r="2.8"/>
<text transform="matrix(1 0 0 1 388.9804 83.6676)" class="st1 st2 st10">2</text>
<line class="st5" x1="389.6" y1="77.5" x2="388" y2="77.5"/>
<circle class="st9" cx="385.2" cy="77.5" r="2.8"/>
<text transform="matrix(1 0 0 1 388.9804 76.4684)" class="st1 st2 st10">3</text>
<line class="st5" x1="389.6" y1="70.3" x2="388" y2="70.3"/>
<circle class="st9" cx="385.2" cy="70.3" r="2.8"/>
<text transform="matrix(1 0 0 1 388.9804 69.2673)" class="st1 st2 st10">4</text>
<line class="st5" x1="389.6" y1="63.1" x2="388" y2="63.1"/>
<circle class="st9" cx="385.2" cy="63.1" r="2.8"/>
<text transform="matrix(1 0 0 1 388.9804 62.068)" class="st1 st2 st10">5</text>
<line class="st11" x1="400.4" y1="55.9" x2="378.8" y2="55.9"/>
<line class="st11" x1="378.8" y1="55.9" x2="378.8" y2="99.1"/>
<line class="st11" x1="378.8" y1="99.1" x2="400.4" y2="99.1"/>
<line class="st11" x1="400.4" y1="99.1" x2="400.4" y2="55.9"/>
<text transform="matrix(1 0 0 1 394.5009 105.9167)" class="st1 st2 st3">J2</text>
<ellipse transform="matrix(0.1602 -0.9871 0.9871 0.1602 104.2449 471.8776)" class="st7" cx="329.4" cy="174.7" rx="7.2" ry="7.2"/>
<rect x="336.6" y="167.5" class="st12" width="1.4" height="14.4"/>
<line class="st5" x1="308.6" y1="178.3" x2="323" y2="178.3"/>
<text transform="matrix(-1 0 0 1 316.33 177.2682)" class="st1 st2 st10">-</text>
<line class="st5" x1="308.6" y1="171.1" x2="323" y2="171.1"/>
<text transform="matrix(-1 0 0 1 316.33 170.068)" class="st1 st2 st10">+</text>
<line class="st5" x1="326.6" y1="174.7" x2="328.7" y2="174.7"/>
<line class="st5" x1="328.7" y1="177.6" x2="328.7" y2="174.7"/>
<line class="st5" x1="328.7" y1="174.7" x2="328.7" y2="171.8"/>
<line class="st5" x1="330.2" y1="177.6" x2="330.2" y2="174.7"/>
<line class="st5" x1="330.2" y1="174.7" x2="330.2" y2="171.8"/>
<line class="st5" x1="330.2" y1="174.7" x2="332.3" y2="174.7"/>
<text transform="matrix(1 0 0 1 315.9509 161.7165)" class="st1 st2 st3">Q1</text>
<text transform="matrix(1 0 0 1 310.3552 190.5163)" class="st1 st2 st3">CMA-4544PF-W</text>
<g>
	<line class="st5" x1="308.6" y1="63.1" x2="301.4" y2="63.1"/>
	<line class="st5" x1="279.8" y1="63.1" x2="287" y2="63.1"/>
	<line class="st13" x1="301.4" y1="63.1" x2="300.3" y2="66"/>
	<line class="st13" x1="300.3" y1="66" x2="298.5" y2="60.2"/>
	<line class="st13" x1="298.5" y1="60.2" x2="296.7" y2="66"/>
	<line class="st13" x1="296.7" y1="66" x2="294.9" y2="60.2"/>
	<line class="st13" x1="294.9" y1="60.2" x2="293.1" y2="66"/>
	<line class="st13" x1="293.1" y1="66" x2="291.3" y2="60.2"/>
	<line class="st13" x1="291.3" y1="60.2" x2="289.5" y2="66"/>
	<line class="st13" x1="289.5" y1="66" x2="287.7" y2="60.2"/>
	<line class="st13" x1="287.7" y1="60.2" x2="287" y2="63.1"/>
	<text transform="matrix(1 0 0 1 297.869 72.3649)" class="st1 st2 st3">R1</text>
	<text transform="matrix(1 0 0 1 292.9335 58.7555)" class="st1 st2 st3">150k</text>
</g>
<g>
	<line class="st5" x1="315.8" y1="91.9" x2="315.8" y2="84.7"/>
	<line class="st5" x1="315.8" y1="63.1" x2="315.8" y2="70.3"/>
	<line class="st13" x1="315.8" y1="84.7" x2="312.9" y2="83.6"/>
	<line class="st13" x1="312.9" y1="83.6" x2="318.6" y2="81.8"/>
	<line class="st13" x1="318.6" y1="81.8" x2="312.9" y2="80"/>
	<line class="st13" x1="312.9" y1="80" x2="318.6" y2="78.2"/>
	<line class="st13" x1="318.6" y1="78.2" x2="312.9" y2="76.4"/>
	<line class="st13" x1="312.9" y1="76.4" x2="318.6" y2="74.6"/>
	<line class="st13" x1="318.6" y1="74.6" x2="312.9" y2="72.8"/>
	<line class="st13" x1="312.9" y1="72.8" x2="318.6" y2="71"/>
	<line class="st13" x1="318.6" y1="71" x2="315.8" y2="70.3"/>
	<text transform="matrix(6.123234e-17 -1 1 6.123234e-17 311.5077 88.2751)" class="st1 st2 st3">R2</text>
	<text transform="matrix(6.123234e-17 -1 1 6.123234e-17 325.1151 88.2751)" class="st1 st2 st3">100k</text>
</g>
<g>
	<line class="st5" x1="279.8" y1="127.9" x2="279.8" y2="120.7"/>
	<line class="st5" x1="279.8" y1="99.1" x2="279.8" y2="106.3"/>
	<line class="st13" x1="279.8" y1="120.7" x2="276.9" y2="119.6"/>
	<line class="st13" x1="276.9" y1="119.6" x2="282.6" y2="117.8"/>
	<line class="st13" x1="282.6" y1="117.8" x2="276.9" y2="116"/>
	<line class="st13" x1="276.9" y1="116" x2="282.6" y2="114.2"/>
	<line class="st13" x1="282.6" y1="114.2" x2="276.9" y2="112.4"/>
	<line class="st13" x1="276.9" y1="112.4" x2="282.6" y2="110.6"/>
	<line class="st13" x1="282.6" y1="110.6" x2="276.9" y2="108.8"/>
	<line class="st13" x1="276.9" y1="108.8" x2="282.6" y2="107"/>
	<line class="st13" x1="282.6" y1="107" x2="279.8" y2="106.3"/>
	<text transform="matrix(6.123234e-17 -1 1 6.123234e-17 275.5077 124.2751)" class="st1 st2 st3">R3</text>
	<text transform="matrix(6.123234e-17 -1 1 6.123234e-17 289.1151 124.2751)" class="st1 st2 st3">2.2K</text>
</g>
<g>
	<line class="st5" x1="114.2" y1="63.1" x2="128.6" y2="63.1"/>
	<text transform="matrix(1 0 0 1 135.1796 65.236)" class="st1 st2 st10">/SHDN</text>
	<text transform="matrix(-1 0 0 1 121.9315 62.068)" class="st1 st2 st10">P$2</text>
	<line class="st5" x1="215" y1="120.7" x2="200.6" y2="120.7"/>
	<text transform="matrix(1 0 0 1 186.0106 122.8366)" class="st1 st2 st10">A/R</text>
	<text transform="matrix(1 0 0 1 207.1796 119.6686)" class="st1 st2 st10">P$9</text>
	<line class="st5" x1="215" y1="77.5" x2="200.6" y2="77.5"/>
	<text transform="matrix(1 0 0 1 183.1024 79.6364)" class="st1 st2 st10">BIAS</text>
	<text transform="matrix(1 0 0 1 207.1796 76.4684)" class="st1 st2 st10">P$12</text>
	<line class="st5" x1="114.2" y1="77.5" x2="128.6" y2="77.5"/>
	<text transform="matrix(1 0 0 1 135.1796 79.6364)" class="st1 st2 st10">CG</text>
	<text transform="matrix(-1 0 0 1 121.9315 76.4684)" class="st1 st2 st10">P$3</text>
	<line class="st5" x1="114.2" y1="48.7" x2="128.6" y2="48.7"/>
	<text transform="matrix(1 0 0 1 135.1796 50.8356)" class="st1 st2 st10">CT</text>
	<text transform="matrix(-1 0 0 1 121.9315 47.6676)" class="st1 st2 st10">P$1</text>
	<line class="st5" x1="164.6" y1="27.1" x2="164.6" y2="41.5"/>
	<text transform="matrix(-1.836970e-16 1 -1 -1.836970e-16 162.3944 48.1003)" class="st1 st2 st10">EP</text>
	<text transform="matrix(6.123234e-17 -1 1 6.123234e-17 163.5468 34.8512)" class="st1 st2 st10">P$THERMAL</text>
	<line class="st5" x1="215" y1="106.3" x2="200.6" y2="106.3"/>
	<text transform="matrix(1 0 0 1 182.3143 108.4362)" class="st1 st2 st10">GAIN</text>
	<text transform="matrix(1 0 0 1 207.1796 105.2682)" class="st1 st2 st10">P$10</text>
	<line class="st5" x1="114.2" y1="135.1" x2="128.6" y2="135.1"/>
	<text transform="matrix(1 0 0 1 135.1796 137.236)" class="st1 st2 st10">GND</text>
	<text transform="matrix(-1 0 0 1 121.9315 134.068)" class="st1 st2 st10">P$7</text>
	<line class="st5" x1="215" y1="63.1" x2="200.6" y2="63.1"/>
	<text transform="matrix(1 0 0 1 174.3925 65.236)" class="st1 st2 st10">MICBIAS</text>
	<text transform="matrix(1 0 0 1 207.1796 62.068)" class="st1 st2 st10">P$13</text>
	<line class="st5" x1="215" y1="135.1" x2="200.6" y2="135.1"/>
	<text transform="matrix(1 0 0 1 180.4696 137.236)" class="st1 st2 st10">MICIN</text>
	<text transform="matrix(1 0 0 1 207.1796 134.068)" class="st1 st2 st10">P$8</text>
	<line class="st5" x1="114.2" y1="120.7" x2="128.6" y2="120.7"/>
	<text transform="matrix(1 0 0 1 135.1796 122.8366)" class="st1 st2 st10">MICOUT</text>
	<text transform="matrix(-1 0 0 1 121.9315 119.6686)" class="st1 st2 st10">P$6</text>
	<line class="st5" x1="114.2" y1="91.9" x2="128.6" y2="91.9"/>
	<text transform="matrix(1 0 0 1 135.1796 94.0368)" class="st1 st2 st10">NC1</text>
	<text transform="matrix(-1 0 0 1 121.9315 90.8688)" class="st1 st2 st10">P$4</text>
	<line class="st5" x1="215" y1="91.9" x2="200.6" y2="91.9"/>
	<text transform="matrix(1 0 0 1 184.4257 94.0368)" class="st1 st2 st10">NC2</text>
	<text transform="matrix(1 0 0 1 207.1796 90.8688)" class="st1 st2 st10">P$11</text>
	<line class="st5" x1="215" y1="48.7" x2="200.6" y2="48.7"/>
	<text transform="matrix(1 0 0 1 187.5975 50.8356)" class="st1 st2 st10">TH</text>
	<text transform="matrix(1 0 0 1 207.1796 47.6676)" class="st1 st2 st10">P$14</text>
	<line class="st5" x1="114.2" y1="106.3" x2="128.6" y2="106.3"/>
	<text transform="matrix(1 0 0 1 135.1796 108.4362)" class="st1 st2 st10">VDD</text>
	<text transform="matrix(-1 0 0 1 121.9315 105.2682)" class="st1 st2 st10">P$5</text>
	<line class="st6" x1="128.6" y1="41.5" x2="200.6" y2="41.5"/>
	<line class="st6" x1="200.6" y1="41.5" x2="200.6" y2="142.3"/>
	<line class="st6" x1="200.6" y1="142.3" x2="128.6" y2="142.3"/>
	<line class="st6" x1="128.6" y1="142.3" x2="128.6" y2="41.5"/>
	<text transform="matrix(6.123234e-17 -1 1 6.123234e-17 164.5546 106.2751)" class="st12 st2 st3">MAX9814</text>
	<text transform="matrix(1 0 0 1 157.3554 149.4762)" class="st1 st2 st8">U$1</text>
</g>
<line class="st5" x1="490.4" y1="48.7" x2="490.4" y2="41.5"/>
<line class="st6" x1="494" y1="46.9" x2="490.4" y2="41.5"/>
<line class="st6" x1="490.4" y1="41.5" x2="486.8" y2="46.9"/>
<line class="st6" x1="490.4" y1="37.9" x2="486.8" y2="46.9"/>
<line class="st6" x1="494" y1="46.9" x2="490.4" y2="37.9"/>
<text transform="matrix(6.123234e-17 -1 1 6.123234e-17 483.1562 48.6754)" class="st1 st2 st3">VDD</text>
<g>
	<line class="st5" x1="92.6" y1="106.3" x2="85.4" y2="106.3"/>
	<line class="st6" x1="90.8" y1="102.7" x2="85.4" y2="106.3"/>
	<line class="st6" x1="85.4" y1="106.3" x2="90.8" y2="109.9"/>
	<line class="st6" x1="81.8" y1="106.3" x2="90.8" y2="109.9"/>
	<line class="st6" x1="90.8" y1="102.7" x2="81.8" y2="106.3"/>
	<text transform="matrix(1 0 0 1 80.8505 118.5163)" class="st1 st2 st3">VDD</text>
</g>
<g>
	<line class="st5" x1="92.6" y1="63.1" x2="85.4" y2="63.1"/>
	<line class="st6" x1="90.8" y1="59.5" x2="85.4" y2="63.1"/>
	<line class="st6" x1="85.4" y1="63.1" x2="90.8" y2="66.7"/>
	<line class="st6" x1="81.8" y1="63.1" x2="90.8" y2="66.7"/>
	<line class="st6" x1="90.8" y1="59.5" x2="81.8" y2="63.1"/>
	<text transform="matrix(1 0 0 1 80.8505 75.3161)" class="st1 st2 st3">VDD</text>
</g>
</svg>
