<?xml version="1.0" encoding="utf-8"?>
<!-- Generator: Adobe Illustrator 26.2.1, SVG Export Plug-In . SVG Version: 6.00 Build 0)  -->
<svg version="1.1" id="Layer_1" xmlns="http://www.w3.org/2000/svg" xmlns:xlink="http://www.w3.org/1999/xlink" x="0px" y="0px"
	 viewBox="0 0 370.4 200.1" style="enable-background:new 0 0 370.4 200.1;" xml:space="preserve">
<style type="text/css">
	.st0{fill:#0DAB76;}
	.st1{font-family:'ArialMT';}
	.st2{font-size:5.544px;}
	.st3{font-size:3.96px;}
	.st4{fill:none;stroke:#0DAB76;stroke-width:0.432;stroke-linecap:round;stroke-miterlimit:11.3386;}
	.st5{fill:#808080;}
	.st6{fill:none;stroke:#C90D0C;stroke-width:0.432;stroke-linecap:round;stroke-miterlimit:11.3386;}
	.st7{fill:none;stroke:#C90D0C;stroke-width:0.72;stroke-linecap:round;stroke-miterlimit:11.3386;}
	.st8{fill:none;stroke:#C90D0C;stroke-width:1.152;stroke-linecap:round;stroke-miterlimit:11.3386;}
	.st9{fill:#C90D0C;}
	.st10{fill:none;stroke:#C90D0C;stroke-width:0.432;stroke-miterlimit:11.3386;}
	.st11{font-size:4.752px;}
	.st12{fill:none;stroke:#C90D0C;stroke-width:1.728;stroke-linecap:round;stroke-miterlimit:11.3386;}
	.st13{fill:none;stroke:#808080;stroke-width:0.432;stroke-linecap:round;stroke-miterlimit:11.3386;}
	.st14{fill:none;stroke:#C90D0C;stroke-width:0.216;stroke-linecap:round;stroke-miterlimit:11.3386;}
	.st15{fill:none;stroke:#808080;stroke-width:0.3;stroke-miterlimit:11.3386;}
</style>
<desc>generated by eagle2svg 1.2, developed by http://www.nicai-systems.de</desc>
<text transform="matrix(1 0 0 1 58.3188 118.5046)" class="st0 st1 st2">USB-MIDI</text>
<text transform="matrix(6.123234e-17 -1 1 6.123234e-17 311.0599 54.4248)" class="st0 st1 st3">REPLAY</text>
<text transform="matrix(1 0 0 1 48.715 183.3045)" class="st0 st1 st2">USB-MIDI or USB-SERIAL</text>
<text transform="matrix(6.123234e-17 -1 1 6.123234e-17 329.0599 18.4248)" class="st0 st1 st3">CLIP</text>
<text transform="matrix(1 0 0 1 250.9399 62.3443)" class="st0 st1 st3">SHIFT</text>
<line class="st4" x1="112.3" y1="104.1" x2="90.7" y2="104.1"/>
<text transform="matrix(1 0 0 1 90.7405 104.1041)" class="st5 st1 st2">3.3V</text>
<line class="st4" x1="76.3" y1="46.5" x2="112.3" y2="46.5"/>
<line class="st4" x1="191.5" y1="82.5" x2="198.7" y2="82.5"/>
<text transform="matrix(1 0 0 1 191.5403 82.5045)" class="st5 st1 st2">D7</text>
<line class="st4" x1="321.1" y1="39.3" x2="321.1" y2="3.3"/>
<text transform="matrix(1 0 0 1 314.054 8.3443)" class="st5 st1 st2">D7</text>
<line class="st4" x1="342.7" y1="10.5" x2="342.7" y2="3.3"/>
<text transform="matrix(1 0 0 1 335.6536 8.3443)" class="st5 st1 st2">D8</text>
<line class="st4" x1="191.5" y1="89.7" x2="198.7" y2="89.7"/>
<text transform="matrix(1 0 0 1 191.5403 89.7037)" class="st5 st1 st2">D8</text>
<line class="st4" x1="342.7" y1="68.1" x2="342.7" y2="75.3"/>
<line class="st4" x1="69.1" y1="140.1" x2="69.1" y2="147.3"/>
<line class="st4" x1="76.3" y1="39.3" x2="83.5" y2="39.3"/>
<line class="st4" x1="83.5" y1="39.3" x2="83.5" y2="68.1"/>
<line class="st4" x1="321.1" y1="68.1" x2="321.1" y2="75.3"/>
<line class="st4" x1="277.9" y1="60.9" x2="292.3" y2="60.9"/>
<line class="st4" x1="292.3" y1="60.9" x2="292.3" y2="75.3"/>
<line class="st4" x1="191.5" y1="46.5" x2="234.7" y2="46.5"/>
<g>
	<line class="st4" x1="191.5" y1="140.1" x2="243.7" y2="140.1"/>
</g>
<g>
	<line class="st4" x1="112.3" y1="140.1" x2="76.3" y2="140.1"/>
</g>
<line class="st4" x1="191.5" y1="104.1" x2="243.7" y2="104.1"/>
<g>
	<line class="st4" x1="191.5" y1="147.3" x2="243.7" y2="147.3"/>
</g>
<g>
	<line class="st4" x1="191.5" y1="154.5" x2="241.9" y2="154.5"/>
</g>
<g>
	<line class="st4" x1="191.5" y1="161.7" x2="243.7" y2="161.7"/>
</g>
<g>
	<line class="st4" x1="342.7" y1="32.1" x2="342.7" y2="39.3"/>
</g>
<line class="st4" x1="191.5" y1="60.9" x2="205.9" y2="60.9"/>
<line class="st4" x1="205.9" y1="60.9" x2="205.9" y2="111.3"/>
<line class="st4" x1="205.9" y1="111.3" x2="243.7" y2="111.3"/>
<line class="st4" x1="191.5" y1="53.7" x2="234.7" y2="53.7"/>
<line class="st4" x1="191.5" y1="68.1" x2="220.3" y2="68.1"/>
<line class="st4" x1="220.3" y1="68.1" x2="220.3" y2="60.9"/>
<line class="st4" x1="220.3" y1="60.9" x2="234.7" y2="60.9"/>
<line class="st4" x1="191.5" y1="75.3" x2="227.5" y2="75.3"/>
<line class="st4" x1="227.5" y1="75.3" x2="227.5" y2="68.1"/>
<line class="st4" x1="227.5" y1="68.1" x2="234.7" y2="68.1"/>
<g>
	<line class="st6" x1="83.5" y1="68.1" x2="83.5" y2="75.3"/>
	<line class="st7" x1="78.1" y1="75.3" x2="88.9" y2="75.3"/>
	<text transform="matrix(1 0 0 1 83.5403 82.5045)" class="st5 st1 st2">GND</text>
</g>
<g>
	<line class="st6" x1="69.1" y1="147.3" x2="69.1" y2="154.5"/>
	<line class="st7" x1="63.7" y1="154.5" x2="74.5" y2="154.5"/>
	<text transform="matrix(1 0 0 1 69.1409 161.7037)" class="st5 st1 st2">GND</text>
</g>
<g>
	<line class="st6" x1="342.7" y1="75.3" x2="342.7" y2="82.5"/>
	<line class="st7" x1="337.3" y1="82.5" x2="348.1" y2="82.5"/>
	<text transform="matrix(1 0 0 1 342.7405 89.7037)" class="st5 st1 st2">GND</text>
</g>
<g>
	<line class="st6" x1="321.1" y1="75.3" x2="321.1" y2="82.5"/>
	<line class="st7" x1="315.7" y1="82.5" x2="326.5" y2="82.5"/>
	<text transform="matrix(1 0 0 1 321.1409 89.7037)" class="st5 st1 st2">GND</text>
</g>
<g>
	<line class="st6" x1="292.3" y1="75.3" x2="292.3" y2="82.5"/>
	<line class="st7" x1="286.9" y1="82.5" x2="297.7" y2="82.5"/>
	<text transform="matrix(1 0 0 1 292.3401 89.7037)" class="st5 st1 st2">GND</text>
</g>
<line class="st6" x1="61.9" y1="140.1" x2="61.9" y2="132.9"/>
<line class="st6" x1="69.1" y1="140.1" x2="69.1" y2="132.9"/>
<line class="st6" x1="76.3" y1="140.1" x2="76.3" y2="132.9"/>
<line class="st6" x1="76.3" y1="132.9" x2="76.3" y2="129.3"/>
<line class="st6" x1="69.1" y1="132.9" x2="69.1" y2="129.3"/>
<line class="st6" x1="61.9" y1="132.9" x2="61.9" y2="129.3"/>
<line class="st8" x1="76.3" y1="125.7" x2="76.3" y2="129.3"/>
<line class="st8" x1="69.1" y1="125.7" x2="69.1" y2="129.3"/>
<line class="st8" x1="61.9" y1="125.7" x2="61.9" y2="129.3"/>
<line class="st8" x1="60.1" y1="132.9" x2="78.1" y2="132.9"/>
<line class="st8" x1="78.1" y1="132.9" x2="78.1" y2="131.1"/>
<line class="st8" x1="78.1" y1="131.1" x2="60.1" y2="131.1"/>
<line class="st8" x1="60.1" y1="131.1" x2="60.1" y2="132.9"/>
<text transform="matrix(1 0 0 1 81.7399 134.3441)" class="st5 st1 st2">JP1</text>
<g>
	<polygon class="st9" points="333,23.8 334.1,21.3 335.5,22.7 	"/>
	<polygon class="st9" points="333.4,27 334.5,24.5 335.9,25.9 	"/>
	<line class="st6" x1="342.7" y1="10.5" x2="342.7" y2="17.7"/>
	<line class="st6" x1="342.7" y1="32.1" x2="342.7" y2="24.9"/>
	<line class="st7" x1="346.3" y1="17.7" x2="342.7" y2="24.9"/>
	<line class="st7" x1="342.7" y1="24.9" x2="339.1" y2="17.7"/>
	<line class="st7" x1="346.3" y1="24.9" x2="342.7" y2="24.9"/>
	<line class="st7" x1="342.7" y1="24.9" x2="339.1" y2="24.9"/>
	<line class="st7" x1="346.3" y1="17.7" x2="342.7" y2="17.7"/>
	<line class="st7" x1="342.7" y1="17.7" x2="339.1" y2="17.7"/>
	<line class="st6" x1="337" y1="19.8" x2="333" y2="23.8"/>
	<line class="st6" x1="337.3" y1="23.1" x2="333.4" y2="27"/>
	<text transform="matrix(6.123234e-17 -1 1 6.123234e-17 358.5794 30.663)" class="st5 st1 st3">LED1</text>
	<text transform="matrix(6.123234e-17 -1 1 6.123234e-17 352.4603 30.663)" class="st5 st1 st3">AMBER</text>
</g>
<g>
	<circle class="st10" cx="25.9" cy="46.5" r="11.4"/>
	<line class="st6" x1="76.3" y1="53.7" x2="61.9" y2="53.7"/>
	<text transform="matrix(1 0 0 1 48.7151 55.864)" class="st5 st1 st11">AR</text>
	<text transform="matrix(1 0 0 1 68.5648 52.6959)" class="st5 st1 st11">5</text>
	<line class="st6" x1="76.3" y1="39.3" x2="61.9" y2="39.3"/>
	<text transform="matrix(1 0 0 1 43.6985 41.4635)" class="st5 st1 st11">GAIN</text>
	<text transform="matrix(1 0 0 1 68.5648 38.2955)" class="st5 st1 st11">3</text>
	<line class="st6" x1="76.3" y1="46.5" x2="61.9" y2="46.5"/>
	<text transform="matrix(1 0 0 1 45.2855 48.6647)" class="st5 st1 st11">OUT</text>
	<text transform="matrix(1 0 0 1 68.5648 45.4967)" class="st5 st1 st11">4</text>
	<line class="st8" x1="11.5" y1="60.9" x2="61.9" y2="60.9"/>
	<line class="st8" x1="61.9" y1="60.9" x2="61.9" y2="32.1"/>
	<line class="st8" x1="61.9" y1="32.1" x2="11.5" y2="32.1"/>
	<line class="st8" x1="11.5" y1="32.1" x2="11.5" y2="60.9"/>
	<text transform="matrix(1 0 0 1 11.5403 30.3033)" class="st5 st1 st2">PCB1.IO</text>
	<text transform="matrix(1 0 0 1 11.5403 68.1041)" class="st5 st1 st2">ELEC-MICR-BO</text>
</g>
<line class="st6" x1="191.5" y1="161.7" x2="184.3" y2="161.7"/>
<text transform="matrix(1 0 0 1 162.2143 163.8639)" class="st5 st1 st11">RESET</text>
<line class="st6" x1="112.3" y1="161.7" x2="119.5" y2="161.7"/>
<text transform="matrix(1 0 0 1 126.1644 163.8639)" class="st5 st1 st11">RESET2</text>
<line class="st6" x1="112.3" y1="46.5" x2="119.5" y2="46.5"/>
<text transform="matrix(1 0 0 1 126.1644 48.6647)" class="st5 st1 st11">A0</text>
<line class="st6" x1="112.3" y1="53.7" x2="119.5" y2="53.7"/>
<text transform="matrix(1 0 0 1 126.1644 55.864)" class="st5 st1 st11">A1</text>
<line class="st6" x1="112.3" y1="60.9" x2="119.5" y2="60.9"/>
<text transform="matrix(1 0 0 1 126.1644 63.065)" class="st5 st1 st11">A2</text>
<line class="st6" x1="112.3" y1="68.1" x2="119.5" y2="68.1"/>
<text transform="matrix(1 0 0 1 126.1644 70.2644)" class="st5 st1 st11">A3</text>
<line class="st6" x1="112.3" y1="75.3" x2="119.5" y2="75.3"/>
<text transform="matrix(1 0 0 1 126.1644 77.4635)" class="st5 st1 st11">A4</text>
<line class="st6" x1="112.3" y1="82.5" x2="119.5" y2="82.5"/>
<text transform="matrix(1 0 0 1 126.1644 84.6647)" class="st5 st1 st11">A5</text>
<line class="st6" x1="112.3" y1="104.1" x2="119.5" y2="104.1"/>
<text transform="matrix(1 0 0 1 126.1644 106.2644)" class="st5 st1 st11">AREF</text>
<line class="st6" x1="191.5" y1="32.1" x2="184.3" y2="32.1"/>
<text transform="matrix(1 0 0 1 171.6418 34.2644)" class="st5 st1 st11">D0</text>
<line class="st6" x1="191.5" y1="39.3" x2="184.3" y2="39.3"/>
<text transform="matrix(1 0 0 1 171.6418 41.4635)" class="st5 st1 st11">D1</text>
<line class="st6" x1="191.5" y1="46.5" x2="184.3" y2="46.5"/>
<text transform="matrix(1 0 0 1 171.6418 48.6647)" class="st5 st1 st11">D2</text>
<line class="st6" x1="191.5" y1="53.7" x2="184.3" y2="53.7"/>
<text transform="matrix(1 0 0 1 171.6418 55.864)" class="st5 st1 st11">D3</text>
<line class="st6" x1="191.5" y1="60.9" x2="184.3" y2="60.9"/>
<text transform="matrix(1 0 0 1 171.6418 63.065)" class="st5 st1 st11">D4</text>
<line class="st6" x1="191.5" y1="68.1" x2="184.3" y2="68.1"/>
<text transform="matrix(1 0 0 1 171.6418 70.2644)" class="st5 st1 st11">D5</text>
<line class="st6" x1="191.5" y1="75.3" x2="184.3" y2="75.3"/>
<text transform="matrix(1 0 0 1 171.6418 77.4635)" class="st5 st1 st11">D6</text>
<line class="st6" x1="191.5" y1="82.5" x2="184.3" y2="82.5"/>
<text transform="matrix(1 0 0 1 171.6418 84.6647)" class="st5 st1 st11">D7</text>
<line class="st6" x1="191.5" y1="89.7" x2="184.3" y2="89.7"/>
<text transform="matrix(1 0 0 1 171.6418 91.864)" class="st5 st1 st11">D8</text>
<line class="st6" x1="191.5" y1="96.9" x2="184.3" y2="96.9"/>
<text transform="matrix(1 0 0 1 171.6418 99.065)" class="st5 st1 st11">D9</text>
<line class="st6" x1="191.5" y1="104.1" x2="184.3" y2="104.1"/>
<text transform="matrix(1 0 0 1 168.9993 106.2644)" class="st5 st1 st11">D10</text>
<line class="st6" x1="191.5" y1="111.3" x2="184.3" y2="111.3"/>
<text transform="matrix(1 0 0 1 169.3519 113.4635)" class="st5 st1 st11">D11</text>
<line class="st6" x1="191.5" y1="118.5" x2="184.3" y2="118.5"/>
<text transform="matrix(1 0 0 1 168.9993 120.6647)" class="st5 st1 st11">D12</text>
<line class="st6" x1="191.5" y1="125.7" x2="184.3" y2="125.7"/>
<text transform="matrix(1 0 0 1 168.9993 127.864)" class="st5 st1 st11">D13</text>
<line class="st6" x1="112.3" y1="111.3" x2="119.5" y2="111.3"/>
<text transform="matrix(1 0 0 1 126.1644 113.4635)" class="st5 st1 st11">IOREF</text>
<line class="st6" x1="191.5" y1="147.3" x2="184.3" y2="147.3"/>
<text transform="matrix(1 0 0 1 165.5716 149.4635)" class="st5 st1 st11">MISO</text>
<line class="st6" x1="112.3" y1="147.3" x2="119.5" y2="147.3"/>
<text transform="matrix(1 0 0 1 126.1644 149.4635)" class="st5 st1 st11">MISO2</text>
<line class="st6" x1="191.5" y1="140.1" x2="184.3" y2="140.1"/>
<text transform="matrix(1 0 0 1 165.5716 142.2643)" class="st5 st1 st11">MOSI</text>
<line class="st6" x1="112.3" y1="140.1" x2="119.5" y2="140.1"/>
<text transform="matrix(1 0 0 1 126.1644 142.2643)" class="st5 st1 st11">MOSI2</text>
<line class="st6" x1="191.5" y1="154.5" x2="184.3" y2="154.5"/>
<text transform="matrix(1 0 0 1 167.9456 156.6647)" class="st5 st1 st11">SCK</text>
<line class="st6" x1="112.3" y1="154.5" x2="119.5" y2="154.5"/>
<text transform="matrix(1 0 0 1 126.1644 156.6647)" class="st5 st1 st11">SCK2</text>
<line class="st6" x1="191.5" y1="183.3" x2="184.3" y2="183.3"/>
<text transform="matrix(1 0 0 1 168.472 185.4645)" class="st5 st1 st11">SCL</text>
<line class="st6" x1="191.5" y1="176.1" x2="184.3" y2="176.1"/>
<text transform="matrix(1 0 0 1 167.9456 178.2643)" class="st5 st1 st11">SDA</text>
<line class="st7" x1="119.5" y1="190.5" x2="119.5" y2="24.9"/>
<line class="st7" x1="119.5" y1="24.9" x2="184.3" y2="24.9"/>
<line class="st7" x1="184.3" y1="24.9" x2="184.3" y2="190.5"/>
<line class="st7" x1="184.3" y1="190.5" x2="119.5" y2="190.5"/>
<line class="st7" x1="141.1" y1="168.9" x2="119.5" y2="168.9"/>
<line class="st7" x1="141.1" y1="168.9" x2="141.1" y2="190.5"/>
<line class="st12" x1="136.8" y1="177.9" x2="140.4" y2="177.9"/>
<line class="st12" x1="136.8" y1="185.1" x2="140.4" y2="185.1"/>
<line class="st12" x1="136.8" y1="181.5" x2="140.4" y2="181.5"/>
<line class="st12" x1="136.8" y1="174.3" x2="140.4" y2="174.3"/>
<text transform="matrix(6.123234e-17 -1 1 6.123234e-17 131.7806 185.4638)" class="st9 st1 st2">USB</text>
<path class="st13" d="M121.2,22.5v-4.6 M121.2,17.9h2.3 M123.5,17.9l0.8,0.8 M124.3,18.6v1.5 M124.3,20.2l-0.8,0.8 M123.5,20.9h-2.3
	 M128.9,18.6l-0.8-0.8 M128.1,17.9h-1.5 M126.6,17.9l-0.8,0.8 M125.8,18.6v3.1 M125.8,21.7l0.8,0.8 M126.6,22.5h1.5 M128.1,22.5
	l0.8-0.8 M130.5,22.5v-4.6 M130.5,17.9h2.3 M132.8,17.9l0.8,0.8 M133.6,18.6v0.8 M133.6,19.4l-0.8,0.8 M132.8,20.2l0.8,0.8
	 M133.6,20.9v0.8 M133.6,21.7l-0.8,0.8 M132.8,22.5h-2.3 M130.5,20.2h2.3 M138.2,22.5h-3.1 M135.1,22.5l3.1-3.1 M138.2,19.4v-0.8
	 M138.2,18.6l-0.8-0.8 M137.4,17.9h-1.5 M135.9,17.9l-0.8,0.8 M139.8,22.5v-0.8 M139.8,21.7h0.8 M140.5,21.7v0.8 M140.5,22.5h-0.8
	 M142.1,22.5h1.5 M142.8,22.5v-4.6 M142.1,17.9h1.5 M147.5,17.9H146 M145.9,17.9l-0.8,0.8 M145.2,18.6v3.1 M145.2,21.7l0.8,0.8
	 M145.9,22.5h1.5 M147.5,22.5l0.8-0.8 M148.2,21.7v-3.1 M148.2,18.6l-0.8-0.8"/>
<path class="st13" d="M119.8,198.2v-3.1 M119.8,195.1l1.5-1.5 M121.3,193.5l1.5,1.5 M122.8,195.1v3.1 M119.8,195.9h3.1 M124.4,198.2
	v-4.6 M124.4,193.5h2.3 M126.7,193.5l0.8,0.8 M127.5,194.3v1.5 M127.5,195.9l-0.8,0.8 M126.7,196.6h-2.3 M125.9,196.6l1.5,1.5
	 M129,193.5v4.6 M129,198.2h2.3 M131.3,198.2l0.8-0.8 M132.1,197.4v-3.1 M132.1,194.3l-0.8-0.8 M131.3,193.5H129 M133.7,193.5v3.8
	 M133.7,197.4l0.8,0.8 M134.4,198.2h1.5 M136,198.2l0.8-0.8 M136.8,197.4v-3.8 M138.3,198.2h1.5 M139.1,198.2v-4.6 M138.3,193.5h1.5
	 M141.4,198.2v-4.6 M141.4,193.5l3.1,4.6 M144.5,198.2v-4.6 M148.4,193.5h-1.5 M146.8,193.5l-0.8,0.8 M146.1,194.3v3.1 M146.1,197.4
	l0.8,0.8 M146.8,198.2h1.5 M148.4,198.2l0.8-0.8 M149.1,197.4v-3.1 M149.1,194.3l-0.8-0.8 M150.7,195.9h3.1 M155.3,193.5v3.8
	 M155.3,197.4l0.8,0.8 M156.1,198.2h1.5 M157.6,198.2l0.8-0.8 M158.4,197.4v-3.8 M160,198.2v-4.6 M160,193.5l3.1,4.6 M163.1,198.2
	v-4.6 M166.9,193.5h-1.5 M165.4,193.5l-0.8,0.8 M164.6,194.3v3.1 M164.6,197.4l0.8,0.8 M165.4,198.2h1.5 M166.9,198.2l0.8-0.8
	 M167.7,197.4v-3.1 M167.7,194.3l-0.8-0.8 M169.3,195.9h3.1 M173.9,198.2v-4.6 M173.9,193.5h2.3 M176.2,193.5l0.8,0.8 M177,194.3
	v1.5 M177,195.9l-0.8,0.8 M176.2,196.6h-2.3 M175.4,196.6l1.5,1.5 M178.5,194.3l0.8-0.8 M179.3,193.5h1.5 M180.8,193.5l0.8,0.8
	 M181.6,194.3v0.8 M181.6,195.1l-0.8,0.8 M180.8,195.9h-0.7 M180.8,195.9l0.8,0.8 M181.6,196.6v0.8 M181.6,197.4l-0.8,0.8
	 M180.8,198.2h-1.5 M179.3,198.2l-0.8-0.8"/>
<line class="st6" x1="243.7" y1="161.7" x2="258.1" y2="161.7"/>
<text transform="matrix(1 0 0 1 264.7649 163.8639)" class="st5 st1 st11">RESET</text>
<text transform="matrix(1 0 0 1 231.1399 160.6956)" class="st5 st1 st11">RESET*2</text>
<line class="st6" x1="243.7" y1="111.3" x2="258.1" y2="111.3"/>
<text transform="matrix(1 0 0 1 264.7649 113.4635)" class="st5 st1 st11">CARD_CS</text>
<text transform="matrix(1 0 0 1 245.4417 110.2955)" class="st5 st1 st11">D4</text>
<line class="st6" x1="243.7" y1="147.3" x2="258.1" y2="147.3"/>
<text transform="matrix(1 0 0 1 264.7649 149.4635)" class="st5 st1 st11">MISO</text>
<text transform="matrix(1 0 0 1 239.3724 146.2955)" class="st5 st1 st11">MISO</text>
<line class="st6" x1="243.7" y1="140.1" x2="258.1" y2="140.1"/>
<text transform="matrix(1 0 0 1 264.7649 142.2643)" class="st5 st1 st11">MOSI</text>
<text transform="matrix(1 0 0 1 239.3724 139.0963)" class="st5 st1 st11">MOSI</text>
<line class="st6" x1="243.7" y1="154.5" x2="258.1" y2="154.5"/>
<text transform="matrix(1 0 0 1 264.7649 156.6647)" class="st5 st1 st11">SCK</text>
<text transform="matrix(1 0 0 1 241.7454 153.4967)" class="st5 st1 st11">SCK</text>
<line class="st6" x1="243.7" y1="132.9" x2="258.1" y2="132.9"/>
<text transform="matrix(1 0 0 1 264.7649 135.065)" class="st5 st1 st11">SCL</text>
<text transform="matrix(1 0 0 1 242.2728 131.8972)" class="st5 st1 st11">SCL</text>
<line class="st6" x1="243.7" y1="125.7" x2="258.1" y2="125.7"/>
<text transform="matrix(1 0 0 1 264.7649 127.864)" class="st5 st1 st11">SDA</text>
<text transform="matrix(1 0 0 1 241.7454 124.6959)" class="st5 st1 st11">SDA</text>
<line class="st6" x1="243.7" y1="104.1" x2="258.1" y2="104.1"/>
<text transform="matrix(1 0 0 1 264.7649 106.2644)" class="st5 st1 st11">TFT_CS</text>
<text transform="matrix(1 0 0 1 242.7991 103.0963)" class="st5 st1 st11">D10</text>
<line class="st7" x1="358.9" y1="96.9" x2="358.9" y2="168.9"/>
<line class="st7" x1="358.9" y1="168.9" x2="258.1" y2="168.9"/>
<line class="st7" x1="258.1" y1="96.9" x2="358.9" y2="96.9"/>
<line class="st7" x1="258.1" y1="96.9" x2="258.1" y2="168.9"/>
<line class="st14" x1="355.3" y1="100.5" x2="301.3" y2="100.5"/>
<line class="st14" x1="301.3" y1="100.5" x2="301.3" y2="143.7"/>
<line class="st14" x1="301.3" y1="143.7" x2="355.3" y2="143.7"/>
<line class="st14" x1="355.3" y1="143.7" x2="355.3" y2="100.5"/>
<line class="st14" x1="316.6" y1="150" x2="316.6" y2="164.4"/>
<path class="st14" d="M316.6,164.4c0,0.5,0.4,0.9,0.9,0.9l0,0"/>
<line class="st14" x1="317.5" y1="165.3" x2="322.9" y2="165.3"/>
<path class="st14" d="M322.9,165.3c0.5,0,0.9-0.4,0.9-0.9"/>
<path class="st14" d="M324.7,163.5c-0.5,0-0.9,0.4-0.9,0.9l0,0"/>
<line class="st14" x1="324.7" y1="163.5" x2="326.5" y2="163.5"/>
<path class="st14" d="M327.4,164.4c0-0.5-0.4-0.9-0.9-0.9"/>
<path class="st14" d="M327.4,164.4c0,0.5,0.4,0.9,0.9,0.9l0,0"/>
<path class="st14" d="M340,162.6c0.5,0,0.9-0.4,0.9-0.9"/>
<line class="st14" x1="340.9" y1="161.7" x2="340.9" y2="150"/>
<path class="st14" d="M340.9,150c0-0.5-0.4-0.9-0.9-0.9"/>
<line class="st14" x1="340" y1="149.1" x2="317.5" y2="149.1"/>
<path class="st14" d="M317.5,149.1c-0.5,0-0.9,0.4-0.9,0.9l0,0"/>
<line class="st14" x1="330.1" y1="165.3" x2="332.8" y2="162.6"/>
<line class="st14" x1="332.8" y1="162.6" x2="340" y2="162.6"/>
<line class="st14" x1="328.3" y1="165.3" x2="330.1" y2="165.3"/>
<text transform="matrix(1 0 0 1 323.8401 159.9049)" class="st9 st1 st2">SD</text>
<text transform="matrix(1 0 0 1 314.0538 123.0045)" class="st9 st1 st2">TFT DISPLAY</text>
<text transform="matrix(1 0 0 1 258.1409 175.024)" class="st5 st1 st2">ARDUINO-SHIELD-SD7735-SD</text>
<text transform="matrix(1 0 0 1 258.1409 95.8248)" class="st5 st1 st2">PCB3.IO</text>
<g>
	<line class="st6" x1="342.7" y1="68.1" x2="342.7" y2="60.9"/>
	<line class="st6" x1="342.7" y1="39.3" x2="342.7" y2="46.5"/>
	<line class="st7" x1="340.2" y1="60.9" x2="340.2" y2="46.5"/>
	<line class="st7" x1="345.3" y1="46.5" x2="345.3" y2="60.9"/>
	<line class="st7" x1="340.2" y1="46.5" x2="345.3" y2="46.5"/>
	<line class="st7" x1="340.2" y1="60.9" x2="345.3" y2="60.9"/>
	<text transform="matrix(6.123234e-17 -1 1 6.123234e-17 358.5071 62.3447)" class="st5 st1 st3">R1</text>
	<text transform="matrix(6.123234e-17 -1 1 6.123234e-17 352.1009 62.3447)" class="st5 st1 st3">330Ω</text>
</g>
<g>
	<line class="st6" x1="321.1" y1="68.1" x2="321.1" y2="60.9"/>
	<line class="st6" x1="321.1" y1="39.3" x2="321.1" y2="46.5"/>
	<line class="st7" x1="317.5" y1="60.9" x2="317.5" y2="53.7"/>
	<line class="st7" x1="317.5" y1="53.7" x2="317.5" y2="46.5"/>
	<line class="st7" x1="314.7" y1="55.5" x2="314.7" y2="53.7"/>
	<line class="st7" x1="314.7" y1="53.7" x2="314.7" y2="51.9"/>
	<line class="st7" x1="317.5" y1="53.7" x2="314.7" y2="53.7"/>
	<text transform="matrix(6.123234e-17 -1 1 6.123234e-17 328.3294 60.9091)" class="st5 st1 st3">SW1</text>
	<text transform="matrix(6.123234e-17 -1 1 6.123234e-17 332.6692 60.9091)" class="st5 st1 st3">PUSH-BTN</text>
</g>
<ellipse transform="matrix(0.1602 -0.9871 0.9871 0.1602 157.9482 301.7391)" class="st10" cx="256.3" cy="58" rx="10.2" ry="10.2"/>
<line class="st6" x1="234.7" y1="46.5" x2="241.9" y2="46.5"/>
<text transform="matrix(1 0 0 1 238.2894 45.4967)" class="st5 st1 st11">1</text>
<line class="st6" x1="234.7" y1="53.7" x2="241.9" y2="53.7"/>
<text transform="matrix(1 0 0 1 238.2894 52.6959)" class="st5 st1 st11">2</text>
<line class="st6" x1="234.7" y1="60.9" x2="241.9" y2="60.9"/>
<text transform="matrix(1 0 0 1 238.2894 59.8972)" class="st5 st1 st11">4</text>
<line class="st6" x1="234.7" y1="68.1" x2="241.9" y2="68.1"/>
<text transform="matrix(1 0 0 1 238.2894 67.0963)" class="st5 st1 st11">8</text>
<line class="st6" x1="277.9" y1="60.9" x2="270.7" y2="60.9"/>
<text transform="matrix(1 0 0 1 271.7483 59.8972)" class="st5 st1 st11">C_1*2</text>
<line class="st7" x1="270.7" y1="75.3" x2="241.9" y2="75.3"/>
<line class="st7" x1="241.9" y1="75.3" x2="241.9" y2="39.3"/>
<line class="st7" x1="241.9" y1="39.3" x2="270.7" y2="39.3"/>
<line class="st7" x1="270.7" y1="39.3" x2="270.7" y2="75.3"/>
<line class="st6" x1="256.3" y1="57.3" x2="262.1" y2="51.5"/>
<line class="st6" x1="262.1" y1="51.5" x2="262.1" y2="54.4"/>
<line class="st6" x1="262.1" y1="51.5" x2="259.2" y2="51.5"/>
<text transform="matrix(1 0 0 1 241.9407 37.1451)" class="st5 st1 st2">SW2</text>
<text transform="matrix(1 0 0 1 241.9407 80.7764)" class="st5 st1 st2">SH-7030TB</text>
<line class="st15" x1="126.7" y1="159.9" x2="144" y2="159.9"/>
<line class="st15" x1="162.2" y1="159.9" x2="177.9" y2="159.9"/>
<line class="st15" x1="231.6" y1="156.6" x2="246.9" y2="156.6"/>
<line class="st15" x1="264.8" y1="159.9" x2="280" y2="159.9"/>
</svg>
