<?xml version="1.0" encoding="utf-8"?>
<!-- Generator: Adobe Illustrator 26.2.1, SVG Export Plug-In . SVG Version: 6.00 Build 0)  -->
<svg version="1.1" id="Layer_1" xmlns="http://www.w3.org/2000/svg" xmlns:xlink="http://www.w3.org/1999/xlink" x="0px" y="0px"
	 viewBox="0 0 352.6 90.7" style="enable-background:new 0 0 352.6 90.7;" xml:space="preserve">
<style type="text/css">
	.st0{fill:none;stroke:#0DAB76;stroke-width:0.432;stroke-linecap:round;stroke-miterlimit:11.3386;}
	.st1{fill:#808080;}
	.st2{font-family:'ArialMT';}
	.st3{font-size:5.544px;}
	.st4{fill:none;stroke:#C90D0C;stroke-width:0.432;stroke-linecap:round;stroke-miterlimit:11.3386;}
	.st5{fill:none;stroke:#C90D0C;stroke-width:0.72;stroke-linecap:round;stroke-miterlimit:11.3386;}
	.st6{font-size:4.752px;}
	.st7{font-size:3.168px;}
	.st8{fill:none;stroke:#C90D0C;stroke-width:1.728;stroke-linecap:round;stroke-miterlimit:11.3386;}
	.st9{fill:#C90D0C;}
</style>
<desc>generated by eagle2svg 1.2, developed by http://www.nicai-systems.de</desc>
<line class="st0" x1="174.5" y1="45.3" x2="196.1" y2="45.3"/>
<text transform="matrix(1 0 0 1 196.0803 45.2375)" class="st1 st2 st3">3.3V</text>
<line class="st0" x1="174.5" y1="30.9" x2="181.7" y2="30.9"/>
<line class="st0" x1="181.7" y1="30.9" x2="181.7" y2="16.5"/>
<line class="st0" x1="224.9" y1="16.5" x2="224.9" y2="23.7"/>
<line class="st0" x1="260.9" y1="16.5" x2="260.9" y2="23.7"/>
<line class="st0" x1="260.9" y1="66.9" x2="260.9" y2="74.1"/>
<line class="st0" x1="224.9" y1="66.9" x2="224.9" y2="74.1"/>
<line class="st0" x1="181.7" y1="74.1" x2="181.7" y2="59.7"/>
<line class="st0" x1="181.7" y1="59.7" x2="174.5" y2="59.7"/>
<line class="st4" x1="260.9" y1="74.1" x2="260.9" y2="81.3"/>
<line class="st5" x1="255.5" y1="81.3" x2="266.3" y2="81.3"/>
<text transform="matrix(1 0 0 1 260.8801 88.4387)" class="st1 st2 st3">GND</text>
<g>
	<line class="st4" x1="181.7" y1="74.1" x2="181.7" y2="81.3"/>
	<line class="st5" x1="176.3" y1="81.3" x2="187.1" y2="81.3"/>
	<text transform="matrix(1 0 0 1 181.6809 88.4387)" class="st1 st2 st3">GND</text>
</g>
<line class="st4" x1="224.9" y1="74.1" x2="224.9" y2="81.3"/>
<line class="st5" x1="219.5" y1="81.3" x2="230.3" y2="81.3"/>
<text transform="matrix(1 0 0 1 224.8801 88.4387)" class="st1 st2 st3">GND</text>
<g>
	<line class="st4" x1="181.7" y1="16.5" x2="181.7" y2="9.3"/>
	<line class="st5" x1="185.3" y1="14.7" x2="181.7" y2="9.3"/>
	<line class="st5" x1="181.7" y1="9.3" x2="178.1" y2="14.7"/>
	<text transform="matrix(1 0 0 1 181.6809 5.6379)" class="st1 st2 st3">5V</text>
</g>
<line class="st4" x1="260.9" y1="16.5" x2="260.9" y2="9.3"/>
<line class="st5" x1="264.5" y1="14.7" x2="260.9" y2="9.3"/>
<line class="st5" x1="260.9" y1="9.3" x2="257.3" y2="14.7"/>
<text transform="matrix(1 0 0 1 260.8801 5.6379)" class="st1 st2 st3">5V</text>
<line class="st4" x1="224.9" y1="16.5" x2="224.9" y2="9.3"/>
<line class="st5" x1="228.5" y1="14.7" x2="224.9" y2="9.3"/>
<line class="st5" x1="224.9" y1="9.3" x2="221.3" y2="14.7"/>
<text transform="matrix(1 0 0 1 224.8801 5.6379)" class="st1 st2 st3">5V</text>
<line class="st4" x1="224.9" y1="23.7" x2="224.9" y2="38.1"/>
<text transform="matrix(6.123234e-17 -1 1 6.123234e-17 223.8723 31.4136)" class="st1 st2 st6">2</text>
<line class="st4" x1="224.9" y1="66.9" x2="224.9" y2="52.5"/>
<text transform="matrix(6.123234e-17 -1 1 6.123234e-17 223.8723 66.1968)" class="st1 st2 st6">1*3</text>
<text transform="matrix(6.123234e-17 -1 1 6.123234e-17 229.2004 52.437)" class="st1 st2 st7">GND</text>
<text transform="matrix(6.123234e-17 -1 1 6.123234e-17 229.2004 38.0386)" class="st1 st2 st7">5V</text>
<text transform="matrix(1 0 0 1 224.8801 47.3976)" class="st1 st2 st3">PCB1.P</text>
<g>
	<line class="st4" x1="174.5" y1="45.3" x2="167.3" y2="45.3"/>
	<text transform="matrix(1 0 0 1 150.8811 47.3976)" class="st1 st2 st6">3.3V</text>
	<line class="st4" x1="174.5" y1="30.9" x2="167.3" y2="30.9"/>
	<text transform="matrix(1 0 0 1 154.844 32.9972)" class="st1 st2 st6">5V</text>
	<line class="st4" x1="174.5" y1="59.7" x2="167.3" y2="59.7"/>
	<text transform="matrix(1 0 0 1 150.0969 61.7981)" class="st1 st2 st6">GND</text>
	<text transform="matrix(1 0 0 1 168.2883 58.6301)" class="st1 st2 st6">GND*5</text>
	<line class="st4" x1="102.5" y1="30.9" x2="109.7" y2="30.9"/>
	<text transform="matrix(1 0 0 1 116.3049 32.9972)" class="st1 st2 st6">VIN</text>
	<line class="st5" x1="109.7" y1="66.9" x2="131.3" y2="66.9"/>
	<line class="st5" x1="131.3" y1="66.9" x2="167.3" y2="66.9"/>
	<line class="st5" x1="167.3" y1="66.9" x2="167.3" y2="23.7"/>
	<line class="st5" x1="167.3" y1="23.7" x2="109.7" y2="23.7"/>
	<line class="st5" x1="109.7" y1="23.7" x2="109.7" y2="45.3"/>
	<line class="st5" x1="109.7" y1="45.3" x2="109.7" y2="66.9"/>
	<line class="st5" x1="131.3" y1="45.3" x2="109.7" y2="45.3"/>
	<line class="st8" x1="127" y1="59.7" x2="130.6" y2="59.7"/>
	<line class="st8" x1="127" y1="52.5" x2="130.6" y2="52.5"/>
	<line class="st5" x1="131.3" y1="45.3" x2="131.3" y2="66.9"/>
	<text transform="matrix(6.123234e-17 -1 1 6.123234e-17 121.9192 55.3179)" class="st9 st2 st3">PWR</text>
	<text transform="matrix(1 0 0 1 109.6809 20.0383)" class="st1 st2 st3">PCB2.P</text>
	<text transform="matrix(1 0 0 1 109.6809 74.0383)" class="st1 st2 st3">ARDUINO-UNO-R3</text>
</g>
<line class="st4" x1="260.9" y1="23.7" x2="260.9" y2="38.1"/>
<text transform="matrix(6.123234e-17 -1 1 6.123234e-17 259.8723 31.4136)" class="st1 st2 st6">5V*2</text>
<line class="st4" x1="260.9" y1="66.9" x2="260.9" y2="52.5"/>
<text transform="matrix(6.123234e-17 -1 1 6.123234e-17 259.8723 74.1128)" class="st1 st2 st6">GND*4</text>
<text transform="matrix(6.123234e-17 -1 1 6.123234e-17 265.2004 52.437)" class="st1 st2 st7">GND</text>
<text transform="matrix(6.123234e-17 -1 1 6.123234e-17 265.2004 38.0386)" class="st1 st2 st7">5V</text>
<text transform="matrix(1 0 0 1 260.8801 47.3976)" class="st1 st2 st3">PCB3.P</text>
</svg>
