<?xml version="1.0" encoding="utf-8"?>
<!-- Generator: Adobe Illustrator 26.2.1, SVG Export Plug-In . SVG Version: 6.00 Build 0)  -->
<svg version="1.1" id="Layer_1" xmlns="http://www.w3.org/2000/svg" xmlns:xlink="http://www.w3.org/1999/xlink" x="0px" y="0px"
	 viewBox="0 0 355.4 186" style="enable-background:new 0 0 355.4 186;" xml:space="preserve">
<style type="text/css">
	.st0{fill:#0DAB76;}
	.st1{font-family:'ArialMT';}
	.st2{font-size:5.544px;}
	.st3{fill:none;stroke:#0DAB76;stroke-width:0.432;stroke-linecap:round;stroke-miterlimit:11.3386;}
	.st4{fill:#808080;}
	.st5{fill:none;stroke:#C90D0C;stroke-width:0.432;stroke-linecap:round;stroke-miterlimit:11.3386;}
	.st6{fill:none;stroke:#C90D0C;stroke-width:0.72;stroke-linecap:round;stroke-miterlimit:11.3386;}
	.st7{fill:none;stroke:#C90D0C;stroke-width:0.432;stroke-miterlimit:11.3386;}
	.st8{font-size:4.752px;}
	.st9{fill:none;stroke:#C90D0C;stroke-width:1.152;stroke-linecap:round;stroke-miterlimit:11.3386;}
	.st10{fill:none;stroke:#C90D0C;stroke-width:1.728;stroke-linecap:round;stroke-miterlimit:11.3386;}
	.st11{fill:#C90D0C;}
	.st12{fill:none;stroke:#808080;stroke-width:0.432;stroke-linecap:round;stroke-miterlimit:11.3386;}
	.st13{fill:none;stroke:#C90D0C;stroke-width:0.216;stroke-linecap:round;stroke-miterlimit:11.3386;}
	.st14{font-size:3.96px;}
	.st15{fill:none;stroke:#808080;stroke-width:0.25;stroke-miterlimit:11.3386;}
</style>
<desc>generated by eagle2svg 1.2, developed by http://www.nicai-systems.de</desc>
<text transform="matrix(1 0 0 1 68.2783 118.8436)" class="st0 st1 st2">USB-MIDI</text>
<text transform="matrix(1 0 0 1 225.9579 22.3631)" class="st0 st1 st2">REPLAY</text>
<text transform="matrix(1 0 0 1 43.5421 169.243)" class="st0 st1 st2">USB-MIDI or USB-SERIAL</text>
<line class="st3" x1="104.3" y1="90" x2="82.7" y2="90"/>
<text transform="matrix(1 0 0 1 82.6777 90.0428)" class="st4 st1 st2">3.3V</text>
<line class="st3" x1="68.3" y1="25.2" x2="75.5" y2="25.2"/>
<line class="st3" x1="61.1" y1="133.2" x2="61.1" y2="126"/>
<line class="st3" x1="61.1" y1="126" x2="68.3" y2="126"/>
<line class="st3" x1="241.1" y1="32.4" x2="248.3" y2="32.4"/>
<line class="st3" x1="248.3" y1="32.4" x2="248.3" y2="39.6"/>
<g>
	<line class="st3" x1="68.3" y1="32.4" x2="104.3" y2="32.4"/>
</g>
<g>
	<line class="st3" x1="183.5" y1="126" x2="235.7" y2="126"/>
</g>
<g>
	<line class="st3" x1="97.1" y1="126" x2="104.3" y2="126"/>
</g>
<g>
	<line class="st3" x1="183.5" y1="90" x2="235.7" y2="90"/>
</g>
<g>
	<line class="st3" x1="183.5" y1="133.2" x2="235.7" y2="133.2"/>
</g>
<g>
	<line class="st3" x1="183.5" y1="140.4" x2="235.5" y2="140.4"/>
</g>
<g>
	<line class="st3" x1="183.5" y1="147.6" x2="235.7" y2="147.6"/>
</g>
<g>
	<line class="st3" x1="183.5" y1="54" x2="197.9" y2="54"/>
	<line class="st3" x1="197.9" y1="54" x2="197.9" y2="32.4"/>
	<line class="st3" x1="197.9" y1="32.4" x2="212.3" y2="32.4"/>
</g>
<g>
	<line class="st3" x1="183.5" y1="46.8" x2="205.1" y2="46.8"/>
	<line class="st3" x1="205.1" y1="46.8" x2="205.1" y2="97.2"/>
	<line class="st3" x1="205.1" y1="97.2" x2="235.7" y2="97.2"/>
</g>
<g>
	<line class="st5" x1="61.1" y1="133.2" x2="61.1" y2="140.4"/>
	<line class="st6" x1="55.7" y1="140.4" x2="66.5" y2="140.4"/>
	<text transform="matrix(1 0 0 1 61.0781 147.6424)" class="st4 st1 st2">GND</text>
</g>
<g>
	<line class="st5" x1="248.3" y1="39.6" x2="248.3" y2="46.8"/>
	<line class="st6" x1="242.9" y1="46.8" x2="253.7" y2="46.8"/>
	<text transform="matrix(1 0 0 1 248.2783 54.0428)" class="st4 st1 st2">GND</text>
</g>
<g>
	<circle class="st7" cx="17.9" cy="32.4" r="11.4"/>
	<line class="st5" x1="68.3" y1="39.6" x2="53.9" y2="39.6"/>
	<text transform="matrix(1 0 0 1 40.6533 41.8025)" class="st4 st1 st8">AR</text>
	<text transform="matrix(1 0 0 1 60.5018 38.6346)" class="st4 st1 st8">5</text>
	<line class="st5" x1="68.3" y1="25.2" x2="53.9" y2="25.2"/>
	<text transform="matrix(1 0 0 1 35.6367 27.4022)" class="st4 st1 st8">GAIN</text>
	<text transform="matrix(1 0 0 1 60.5018 24.2342)" class="st4 st1 st8">3</text>
	<line class="st5" x1="68.3" y1="32.4" x2="53.9" y2="32.4"/>
	<text transform="matrix(1 0 0 1 37.2236 34.6033)" class="st4 st1 st8">OUT</text>
	<text transform="matrix(1 0 0 1 60.5018 31.4354)" class="st4 st1 st8">4</text>
	<line class="st9" x1="3.5" y1="46.8" x2="53.9" y2="46.8"/>
	<line class="st9" x1="53.9" y1="46.8" x2="53.9" y2="18"/>
	<line class="st9" x1="53.9" y1="18" x2="3.5" y2="18"/>
	<line class="st9" x1="3.5" y1="18" x2="3.5" y2="46.8"/>
	<text transform="matrix(1 0 0 1 3.4785 16.242)" class="st4 st1 st2">PCB1.IO</text>
	<text transform="matrix(1 0 0 1 3.4785 54.0428)" class="st4 st1 st2">ELEC-MICR-BO</text>
</g>
<line class="st5" x1="183.5" y1="147.6" x2="176.3" y2="147.6"/>
<text transform="matrix(1 0 0 1 154.0833 149.8026)" class="st4 st1 st8">RESET</text>
<line class="st5" x1="104.3" y1="147.6" x2="111.5" y2="147.6"/>
<text transform="matrix(1 0 0 1 118.1025 149.8026)" class="st4 st1 st8">RESET2</text>
<line class="st5" x1="104.3" y1="32.4" x2="111.5" y2="32.4"/>
<text transform="matrix(1 0 0 1 118.1025 34.6033)" class="st4 st1 st8">A0</text>
<line class="st5" x1="104.3" y1="39.6" x2="111.5" y2="39.6"/>
<text transform="matrix(1 0 0 1 118.1025 41.8025)" class="st4 st1 st8">A1</text>
<line class="st5" x1="104.3" y1="46.8" x2="111.5" y2="46.8"/>
<text transform="matrix(1 0 0 1 118.1025 49.0037)" class="st4 st1 st8">A2</text>
<line class="st5" x1="104.3" y1="54" x2="111.5" y2="54"/>
<text transform="matrix(1 0 0 1 118.1025 56.2029)" class="st4 st1 st8">A3</text>
<line class="st5" x1="104.3" y1="61.2" x2="111.5" y2="61.2"/>
<text transform="matrix(1 0 0 1 118.1025 63.4022)" class="st4 st1 st8">A4</text>
<line class="st5" x1="104.3" y1="68.4" x2="111.5" y2="68.4"/>
<text transform="matrix(1 0 0 1 118.1025 70.6033)" class="st4 st1 st8">A5</text>
<line class="st5" x1="104.3" y1="90" x2="111.5" y2="90"/>
<text transform="matrix(1 0 0 1 118.1025 92.2029)" class="st4 st1 st8">AREF</text>
<line class="st5" x1="183.5" y1="18" x2="176.3" y2="18"/>
<text transform="matrix(1 0 0 1 163.58 20.2029)" class="st4 st1 st8">D0</text>
<line class="st5" x1="183.5" y1="25.2" x2="176.3" y2="25.2"/>
<text transform="matrix(1 0 0 1 163.58 27.4022)" class="st4 st1 st8">D1</text>
<line class="st5" x1="183.5" y1="32.4" x2="176.3" y2="32.4"/>
<text transform="matrix(1 0 0 1 163.58 34.6033)" class="st4 st1 st8">D2</text>
<line class="st5" x1="183.5" y1="39.6" x2="176.3" y2="39.6"/>
<text transform="matrix(1 0 0 1 163.58 41.8025)" class="st4 st1 st8">D3</text>
<line class="st5" x1="183.5" y1="46.8" x2="176.3" y2="46.8"/>
<text transform="matrix(1 0 0 1 163.58 49.0037)" class="st4 st1 st8">D4</text>
<line class="st5" x1="183.5" y1="54" x2="176.3" y2="54"/>
<text transform="matrix(1 0 0 1 163.58 56.2029)" class="st4 st1 st8">D5</text>
<line class="st5" x1="183.5" y1="61.2" x2="176.3" y2="61.2"/>
<text transform="matrix(1 0 0 1 163.58 63.4022)" class="st4 st1 st8">D6</text>
<line class="st5" x1="183.5" y1="68.4" x2="176.3" y2="68.4"/>
<text transform="matrix(1 0 0 1 163.58 70.6033)" class="st4 st1 st8">D7</text>
<line class="st5" x1="183.5" y1="75.6" x2="176.3" y2="75.6"/>
<text transform="matrix(1 0 0 1 163.58 77.8026)" class="st4 st1 st8">D8</text>
<line class="st5" x1="183.5" y1="82.8" x2="176.3" y2="82.8"/>
<text transform="matrix(1 0 0 1 163.58 85.0037)" class="st4 st1 st8">D9</text>
<line class="st5" x1="183.5" y1="90" x2="176.3" y2="90"/>
<text transform="matrix(1 0 0 1 160.9365 92.2029)" class="st4 st1 st8">D10</text>
<line class="st5" x1="183.5" y1="97.2" x2="176.3" y2="97.2"/>
<text transform="matrix(1 0 0 1 161.2889 99.4022)" class="st4 st1 st8">D11</text>
<line class="st5" x1="183.5" y1="104.4" x2="176.3" y2="104.4"/>
<text transform="matrix(1 0 0 1 160.9365 106.6033)" class="st4 st1 st8">D12</text>
<line class="st5" x1="183.5" y1="111.6" x2="176.3" y2="111.6"/>
<text transform="matrix(1 0 0 1 160.9365 113.8026)" class="st4 st1 st8">D13</text>
<line class="st5" x1="104.3" y1="97.2" x2="111.5" y2="97.2"/>
<text transform="matrix(1 0 0 1 118.1025 99.4022)" class="st4 st1 st8">IOREF</text>
<line class="st5" x1="183.5" y1="133.2" x2="176.3" y2="133.2"/>
<text transform="matrix(1 0 0 1 157.5096 135.4022)" class="st4 st1 st8">MISO</text>
<line class="st5" x1="104.3" y1="133.2" x2="111.5" y2="133.2"/>
<text transform="matrix(1 0 0 1 118.1025 135.4022)" class="st4 st1 st8">MISO2</text>
<line class="st5" x1="183.5" y1="126" x2="176.3" y2="126"/>
<text transform="matrix(1 0 0 1 157.5096 128.2029)" class="st4 st1 st8">MOSI</text>
<line class="st5" x1="104.3" y1="126" x2="111.5" y2="126"/>
<text transform="matrix(1 0 0 1 118.1025 128.2029)" class="st4 st1 st8">MOSI2</text>
<line class="st5" x1="183.5" y1="140.4" x2="176.3" y2="140.4"/>
<text transform="matrix(1 0 0 1 159.8837 142.6033)" class="st4 st1 st8">SCK</text>
<line class="st5" x1="104.3" y1="140.4" x2="111.5" y2="140.4"/>
<text transform="matrix(1 0 0 1 118.1025 142.6033)" class="st4 st1 st8">SCK2</text>
<line class="st5" x1="183.5" y1="169.2" x2="176.3" y2="169.2"/>
<text transform="matrix(1 0 0 1 160.41 171.4031)" class="st4 st1 st8">SCL</text>
<line class="st5" x1="183.5" y1="162" x2="176.3" y2="162"/>
<text transform="matrix(1 0 0 1 159.8837 164.2029)" class="st4 st1 st8">SDA</text>
<line class="st6" x1="111.5" y1="176.4" x2="111.5" y2="10.8"/>
<line class="st6" x1="111.5" y1="10.8" x2="176.3" y2="10.8"/>
<line class="st6" x1="176.3" y1="10.8" x2="176.3" y2="176.4"/>
<line class="st6" x1="176.3" y1="176.4" x2="111.5" y2="176.4"/>
<line class="st6" x1="133.1" y1="154.8" x2="111.5" y2="154.8"/>
<line class="st6" x1="133.1" y1="154.8" x2="133.1" y2="176.4"/>
<line class="st10" x1="128.8" y1="163.8" x2="132.4" y2="163.8"/>
<line class="st10" x1="128.8" y1="171" x2="132.4" y2="171"/>
<line class="st10" x1="128.8" y1="167.4" x2="132.4" y2="167.4"/>
<line class="st10" x1="128.8" y1="160.2" x2="132.4" y2="160.2"/>
<text transform="matrix(6.123234e-17 -1 1 6.123234e-17 123.7167 172.8418)" class="st11 st1 st2">USB</text>
<path class="st12" d="M113.1,8.5V3.9 M113.1,3.9h2.3 M115.4,3.9l0.8,0.8 M116.2,4.6v1.5 M116.2,6.2L115.4,7 M115.4,6.9h-2.3
	 M120.9,4.6l-0.8-0.8 M120.1,3.9h-1.5 M118.5,3.9l-0.7,0.7 M117.8,4.6v3.1 M117.8,7.7l0.8,0.8 M118.5,8.5h1.5 M120.1,8.5l0.8-0.8
	 M122.4,8.5V3.9 M122.4,3.9h2.3 M124.7,3.9l0.8,0.8 M125.5,4.6v0.8 M125.5,5.4l-0.8,0.8 M124.7,6.2l0.8,0.8 M125.5,6.9v0.8
	 M125.5,7.7l-0.8,0.8 M124.7,8.5h-2.3 M122.4,6.2h2.3 M130.1,8.5H127 M127.1,8.5l3.1-3.1 M130.1,5.4V4.6 M130.1,4.6l-0.8-0.8
	 M129.4,3.9h-1.6 M127.8,3.9L127,4.7 M131.7,8.5V7.7 M131.7,7.7h0.8 M132.5,7.7v0.8 M132.5,8.5h-0.8 M134,8.5h1.5 M134.8,8.5V3.9
	 M134,3.9h1.5 M139.4,3.9h-1.5 M137.9,3.9l-0.8,0.8 M137.1,4.6v3.1 M137.1,7.7l0.8,0.8 M137.9,8.5h1.5 M139.4,8.5l0.8-0.8
	 M140.2,7.7V4.6 M140.2,4.6l-0.8-0.8"/>
<path class="st12" d="M111.7,184.1V181 M111.7,181.1l1.5-1.5 M113.2,179.5l1.5,1.5 M114.8,181.1v3.1 M111.7,181.8h3.1 M116.3,184.1
	v-4.6 M116.3,179.5h2.3 M118.6,179.5l0.8,0.8 M119.4,180.3v1.5 M119.4,181.8l-0.8,0.8 M118.6,182.6h-2.3 M117.9,182.6l1.5,1.5
	 M121,179.5v4.6 M121,184.1h2.3 M123.3,184.1l0.8-0.8 M124.1,183.4v-3.1 M124.1,180.3l-0.8-0.8 M123.3,179.5H121 M125.6,179.5v3.8
	 M125.6,183.4l0.8,0.8 M126.4,184.1h1.5 M127.9,184.1l0.8-0.8 M128.7,183.4v-3.8 M130.3,184.1h1.5 M131,184.1v-4.6 M130.3,179.5h1.5
	 M133.4,184.1v-4.6 M133.4,179.5l3.1,4.6 M136.4,184.1v-4.6 M140.3,179.5h-1.5 M138.8,179.5l-0.8,0.8 M138,180.3v3.1 M138,183.4
	l0.8,0.8 M138.8,184.1h1.5 M140.3,184.1l0.8-0.8 M141.1,183.4v-3.1 M141.1,180.3l-0.8-0.8 M142.6,181.8h3.1 M147.3,179.5v3.8
	 M147.3,183.4l0.8,0.8 M148,184.1h1.5 M149.6,184.1l0.8-0.8 M150.3,183.4v-3.8 M151.9,184.1v-4.6 M151.9,179.5l3.1,4.6 M155,184.1
	v-4.6 M158.9,179.5h-1.5 M157.3,179.5l-0.8,0.8 M156.6,180.3v3.1 M156.6,183.4l0.8,0.8 M157.3,184.1h1.5 M158.9,184.1l0.8-0.8
	 M159.6,183.4v-3.1 M159.6,180.3l-0.8-0.8 M161.2,181.8h3.1 M165.8,184.1v-4.6 M165.8,179.5h2.3 M168.1,179.5l0.8,0.8 M168.9,180.3
	v1.5 M168.9,181.8l-0.8,0.8 M168.1,182.6h-2.3 M167.4,182.6l1.5,1.5 M170.5,180.3l0.8-0.8 M171.2,179.5h1.5 M172.8,179.5l0.8,0.8
	 M173.6,180.3v0.8 M173.6,181.1l-0.8,0.8 M172.8,181.8H172 M172.8,181.8l0.8,0.8 M173.6,182.6v0.8 M173.6,183.4l-0.8,0.8
	 M172.8,184.1h-1.5 M171.2,184.1l-0.8-0.8"/>
<line class="st5" x1="235.7" y1="147.6" x2="250.1" y2="147.6"/>
<text transform="matrix(1 0 0 1 256.702 149.8026)" class="st4 st1 st8">!RESET!</text>
<text transform="matrix(1 0 0 1 223.1287 146.6346)" class="st4 st1 st8">RESET*2</text>
<line class="st5" x1="235.7" y1="97.2" x2="250.1" y2="97.2"/>
<text transform="matrix(1 0 0 1 256.702 99.4022)" class="st4 st1 st8">CARD_CS</text>
<text transform="matrix(1 0 0 1 237.3798 96.2342)" class="st4 st1 st8">D4</text>
<line class="st5" x1="235.7" y1="133.2" x2="250.1" y2="133.2"/>
<text transform="matrix(1 0 0 1 256.702 135.4022)" class="st4 st1 st8">MISO</text>
<text transform="matrix(1 0 0 1 231.3094 132.2342)" class="st4 st1 st8">MISO</text>
<line class="st5" x1="235.7" y1="126" x2="250.1" y2="126"/>
<text transform="matrix(1 0 0 1 256.702 128.2029)" class="st4 st1 st8">MOSI</text>
<text transform="matrix(1 0 0 1 231.3094 125.035)" class="st4 st1 st8">MOSI</text>
<line class="st5" x1="235.7" y1="140.4" x2="250.1" y2="140.4"/>
<text transform="matrix(1 0 0 1 256.702 142.6033)" class="st4 st1 st8">SCK</text>
<text transform="matrix(1 0 0 1 233.6835 139.4354)" class="st4 st1 st8">SCK</text>
<line class="st5" x1="235.7" y1="118.8" x2="250.1" y2="118.8"/>
<text transform="matrix(1 0 0 1 256.702 121.0037)" class="st4 st1 st8">SCL</text>
<text transform="matrix(1 0 0 1 234.2098 117.8358)" class="st4 st1 st8">SCL</text>
<line class="st5" x1="235.7" y1="111.6" x2="250.1" y2="111.6"/>
<text transform="matrix(1 0 0 1 256.702 113.8026)" class="st4 st1 st8">SDA</text>
<text transform="matrix(1 0 0 1 233.6835 110.6346)" class="st4 st1 st8">SDA</text>
<line class="st5" x1="235.7" y1="90" x2="250.1" y2="90"/>
<text transform="matrix(1 0 0 1 256.702 92.2029)" class="st4 st1 st8">TFT_CS</text>
<text transform="matrix(1 0 0 1 234.7363 89.035)" class="st4 st1 st8">D10</text>
<line class="st6" x1="350.9" y1="82.8" x2="350.9" y2="154.8"/>
<line class="st6" x1="350.9" y1="154.8" x2="250.1" y2="154.8"/>
<line class="st6" x1="250.1" y1="82.8" x2="350.9" y2="82.8"/>
<line class="st6" x1="250.1" y1="82.8" x2="250.1" y2="154.8"/>
<line class="st13" x1="347.3" y1="86.4" x2="293.3" y2="86.4"/>
<line class="st13" x1="293.3" y1="86.4" x2="293.3" y2="129.6"/>
<line class="st13" x1="293.3" y1="129.6" x2="347.3" y2="129.6"/>
<line class="st13" x1="347.3" y1="129.6" x2="347.3" y2="86.4"/>
<line class="st13" x1="308.6" y1="135.9" x2="308.6" y2="150.3"/>
<path class="st13" d="M308.6,150.3c0,0.5,0.4,0.9,0.9,0.9l0,0"/>
<line class="st13" x1="309.5" y1="151.2" x2="314.9" y2="151.2"/>
<path class="st13" d="M314.9,151.2c0.5,0,0.9-0.4,0.9-0.9"/>
<path class="st13" d="M316.7,149.4c-0.5,0-0.9,0.4-0.9,0.9l0,0"/>
<line class="st13" x1="316.7" y1="149.4" x2="318.5" y2="149.4"/>
<path class="st13" d="M319.4,150.3c0-0.5-0.4-0.9-0.9-0.9"/>
<path class="st13" d="M319.4,150.3c0,0.5,0.4,0.9,0.9,0.9l0,0"/>
<path class="st13" d="M332,148.5c0.5,0,0.9-0.4,0.9-0.9"/>
<line class="st13" x1="332.9" y1="147.6" x2="332.9" y2="135.9"/>
<path class="st13" d="M332.9,135.9c0-0.5-0.4-0.9-0.9-0.9"/>
<line class="st13" x1="332" y1="135" x2="309.5" y2="135"/>
<path class="st13" d="M309.5,135c-0.5,0-0.9,0.4-0.9,0.9l0,0"/>
<line class="st13" x1="322.1" y1="151.2" x2="324.8" y2="148.5"/>
<line class="st13" x1="324.8" y1="148.5" x2="332" y2="148.5"/>
<line class="st13" x1="320.3" y1="151.2" x2="322.1" y2="151.2"/>
<text transform="matrix(1 0 0 1 315.7783 145.8436)" class="st11 st1 st2">SD</text>
<text transform="matrix(1 0 0 1 304.6132 108.9432)" class="st11 st1 st2">TFT DISPLAY</text>
<text transform="matrix(1 0 0 1 250.0781 160.9627)" class="st4 st1 st2">ARDUINO-SHIELD-SD7735-SD</text>
<text transform="matrix(1 0 0 1 250.0781 81.7635)" class="st4 st1 st2">PCB3.IO</text>
<g>
	<line class="st5" x1="97.1" y1="126" x2="89.9" y2="126"/>
	<line class="st5" x1="68.3" y1="126" x2="75.5" y2="126"/>
	<line class="st5" x1="75.5" y1="126" x2="90.6" y2="120"/>
	<text transform="matrix(1 0 0 1 75.4785 132.5233)" class="st4 st1 st14">SW1</text>
	<text transform="matrix(1 0 0 1 75.4785 136.8426)" class="st4 st1 st14">SPST</text>
</g>
<line class="st5" x1="212.3" y1="32.4" x2="219.5" y2="32.4"/>
<line class="st5" x1="241.1" y1="32.4" x2="233.9" y2="32.4"/>
<line class="st6" x1="219.5" y1="28.8" x2="226.7" y2="28.8"/>
<line class="st6" x1="226.7" y1="28.8" x2="233.9" y2="28.8"/>
<line class="st6" x1="224.9" y1="26" x2="226.7" y2="26"/>
<line class="st6" x1="226.7" y1="26" x2="228.5" y2="26"/>
<line class="st6" x1="226.7" y1="28.8" x2="226.7" y2="26"/>
<text transform="matrix(1 0 0 1 219.4725 38.6343)" class="st4 st1 st14">SW2</text>
<text transform="matrix(1 0 0 1 219.4725 42.9741)" class="st4 st1 st14">PUSH-BTN</text>
<line class="st15" x1="223.6" y1="142.6" x2="239" y2="142.6"/>
<line class="st15" x1="154.1" y1="145.8" x2="169.5" y2="145.8"/>
<line class="st15" x1="118.7" y1="145.8" x2="136.4" y2="145.8"/>
<line class="st3" x1="75.5" y1="18.1" x2="75.5" y2="25.3"/>
<line class="st5" x1="75.5" y1="18.1" x2="75.5" y2="10.9"/>
<line class="st6" x1="79.1" y1="16.3" x2="75.5" y2="10.9"/>
<line class="st6" x1="75.5" y1="10.9" x2="71.9" y2="16.3"/>
<text transform="matrix(1 0 0 1 75.4482 7.2209)" class="st4 st1 st2">5V</text>
</svg>
