<?xml version="1.0" encoding="utf-8"?>
<!-- Generator: Adobe Illustrator 26.2.1, SVG Export Plug-In . SVG Version: 6.00 Build 0)  -->
<svg version="1.1" id="Layer_1" xmlns="http://www.w3.org/2000/svg" xmlns:xlink="http://www.w3.org/1999/xlink" x="0px" y="0px"
	 viewBox="0 0 355.4 93" style="enable-background:new 0 0 355.4 93;" xml:space="preserve">
<style type="text/css">
	.st0{fill:none;stroke:#0DAB76;stroke-width:0.432;stroke-linecap:round;stroke-miterlimit:11.3386;}
	.st1{fill:#808080;}
	.st2{font-family:'ArialMT';}
	.st3{font-size:5.544px;}
	.st4{fill:none;stroke:#C90D0C;stroke-width:0.432;stroke-linecap:round;stroke-miterlimit:11.3386;}
	.st5{fill:none;stroke:#C90D0C;stroke-width:0.72;stroke-linecap:round;stroke-miterlimit:11.3386;}
	.st6{font-size:4.752px;}
	.st7{font-size:3.168px;}
	.st8{fill:none;stroke:#C90D0C;stroke-width:1.728;stroke-linecap:round;stroke-miterlimit:11.3386;}
	.st9{fill:#C90D0C;}
</style>
<desc>generated by eagle2svg 1.2, developed by http://www.nicai-systems.de</desc>
<line class="st0" x1="164.4" y1="46.9" x2="186" y2="46.9"/>
<text transform="matrix(1 0 0 1 185.9699 46.8571)" class="st1 st2 st3">3.3V</text>
<line class="st0" x1="164.4" y1="32.5" x2="171.6" y2="32.5"/>
<line class="st0" x1="171.6" y1="32.5" x2="171.6" y2="18.1"/>
<line class="st0" x1="214.8" y1="18.1" x2="214.8" y2="25.3"/>
<line class="st0" x1="250.8" y1="18.1" x2="250.8" y2="25.3"/>
<line class="st0" x1="250.8" y1="68.5" x2="250.8" y2="75.7"/>
<line class="st0" x1="214.8" y1="68.5" x2="214.8" y2="75.7"/>
<line class="st0" x1="171.6" y1="75.7" x2="171.6" y2="61.3"/>
<line class="st0" x1="171.6" y1="61.3" x2="164.4" y2="61.3"/>
<g>
	<line class="st4" x1="250.8" y1="75.7" x2="250.8" y2="82.9"/>
	<line class="st5" x1="245.4" y1="82.9" x2="256.2" y2="82.9"/>
	<text transform="matrix(1 0 0 1 250.7698 90.0583)" class="st1 st2 st3">GND</text>
</g>
<g>
	<line class="st4" x1="171.6" y1="75.7" x2="171.6" y2="82.9"/>
	<line class="st5" x1="166.2" y1="82.9" x2="177" y2="82.9"/>
	<text transform="matrix(1 0 0 1 171.5704 90.0583)" class="st1 st2 st3">GND</text>
</g>
<g>
	<line class="st4" x1="214.8" y1="75.7" x2="214.8" y2="82.9"/>
	<line class="st5" x1="209.4" y1="82.9" x2="220.2" y2="82.9"/>
	<text transform="matrix(1 0 0 1 214.7697 90.0583)" class="st1 st2 st3">GND</text>
</g>
<g>
	<line class="st4" x1="171.6" y1="18.1" x2="171.6" y2="10.9"/>
	<line class="st5" x1="175.2" y1="16.3" x2="171.6" y2="10.9"/>
	<line class="st5" x1="171.6" y1="10.9" x2="168" y2="16.3"/>
	<text transform="matrix(1 0 0 1 171.5704 7.2575)" class="st1 st2 st3">5V</text>
</g>
<g>
	<line class="st4" x1="250.8" y1="18.1" x2="250.8" y2="10.9"/>
	<line class="st5" x1="254.4" y1="16.3" x2="250.8" y2="10.9"/>
	<line class="st5" x1="250.8" y1="10.9" x2="247.2" y2="16.3"/>
	<text transform="matrix(1 0 0 1 250.7698 7.2575)" class="st1 st2 st3">5V</text>
</g>
<line class="st4" x1="214.8" y1="18.1" x2="214.8" y2="10.9"/>
<line class="st5" x1="218.4" y1="16.3" x2="214.8" y2="10.9"/>
<line class="st5" x1="214.8" y1="10.9" x2="211.2" y2="16.3"/>
<text transform="matrix(1 0 0 1 214.7697 7.2575)" class="st1 st2 st3">5V</text>
<line class="st4" x1="214.8" y1="25.3" x2="214.8" y2="39.7"/>
<text transform="matrix(6.123234e-17 -1 1 6.123234e-17 213.7618 33.0332)" class="st1 st2 st6">2</text>
<line class="st4" x1="214.8" y1="68.5" x2="214.8" y2="54.1"/>
<text transform="matrix(6.123234e-17 -1 1 6.123234e-17 213.7618 67.8164)" class="st1 st2 st6">1*3</text>
<text transform="matrix(6.123234e-17 -1 1 6.123234e-17 219.09 60.25)" class="st1 st2 st7">GND</text>
<text transform="matrix(6.123234e-17 -1 1 6.123234e-17 219.09 39.6582)" class="st1 st2 st7">5V</text>
<text transform="matrix(1 0 0 1 214.7697 49.0173)" class="st1 st2 st3">PCB1.P</text>
<g>
	<line class="st4" x1="164.4" y1="46.9" x2="157.2" y2="46.9"/>
	<text transform="matrix(1 0 0 1 140.7706 49.0173)" class="st1 st2 st6">3.3V</text>
	<line class="st4" x1="164.4" y1="32.5" x2="157.2" y2="32.5"/>
	<text transform="matrix(1 0 0 1 144.7335 34.6169)" class="st1 st2 st6">5V</text>
	<line class="st4" x1="164.4" y1="61.3" x2="157.2" y2="61.3"/>
	<text transform="matrix(1 0 0 1 139.9865 63.4177)" class="st1 st2 st6">GND</text>
	<text transform="matrix(1 0 0 1 158.1779 60.2497)" class="st1 st2 st6">GND*5</text>
	<line class="st4" x1="92.4" y1="32.5" x2="99.6" y2="32.5"/>
	<text transform="matrix(1 0 0 1 106.1945 34.6169)" class="st1 st2 st6">VIN</text>
	<line class="st5" x1="99.6" y1="68.5" x2="121.2" y2="68.5"/>
	<line class="st5" x1="121.2" y1="68.5" x2="157.2" y2="68.5"/>
	<line class="st5" x1="157.2" y1="68.5" x2="157.2" y2="25.3"/>
	<line class="st5" x1="157.2" y1="25.3" x2="99.6" y2="25.3"/>
	<line class="st5" x1="99.6" y1="25.3" x2="99.6" y2="46.9"/>
	<line class="st5" x1="99.6" y1="46.9" x2="99.6" y2="68.5"/>
	<line class="st5" x1="121.2" y1="46.9" x2="99.6" y2="46.9"/>
	<line class="st8" x1="116.8" y1="61.3" x2="120.4" y2="61.3"/>
	<line class="st8" x1="116.8" y1="54.1" x2="120.4" y2="54.1"/>
	<line class="st5" x1="121.2" y1="46.9" x2="121.2" y2="68.5"/>
	<text transform="matrix(6.123234e-17 -1 1 6.123234e-17 111.8087 63.418)" class="st9 st2 st3">PWR</text>
	<text transform="matrix(1 0 0 1 99.5704 21.6579)" class="st1 st2 st3">PCB2.P</text>
	<text transform="matrix(1 0 0 1 99.5704 75.6579)" class="st1 st2 st3">ARDUINO-UNO-R3</text>
</g>
<line class="st4" x1="250.8" y1="25.3" x2="250.8" y2="39.7"/>
<text transform="matrix(6.123234e-17 -1 1 6.123234e-17 249.7618 33.0332)" class="st1 st2 st6">5V*2</text>
<line class="st4" x1="250.8" y1="68.5" x2="250.8" y2="54.1"/>
<text transform="matrix(6.123234e-17 -1 1 6.123234e-17 249.7618 75.7324)" class="st1 st2 st6">GND*4</text>
<text transform="matrix(6.123234e-17 -1 1 6.123234e-17 255.09 60.25)" class="st1 st2 st7">GND</text>
<text transform="matrix(6.123234e-17 -1 1 6.123234e-17 255.09 39.6582)" class="st1 st2 st7">5V</text>
<text transform="matrix(1 0 0 1 250.7698 49.0173)" class="st1 st2 st3">PCB3.P</text>
</svg>
