<?xml version="1.0" encoding="utf-8"?>
<!-- Generator: Adobe Illustrator 26.2.1, SVG Export Plug-In . SVG Version: 6.00 Build 0)  -->
<svg version="1.1" id="Layer_1" xmlns="http://www.w3.org/2000/svg" xmlns:xlink="http://www.w3.org/1999/xlink" x="0px" y="0px"
	 viewBox="0 0 370.4 94.9" style="enable-background:new 0 0 370.4 94.9;" xml:space="preserve">
<style type="text/css">
	.st0{fill:none;stroke:#0DAB76;stroke-width:0.432;stroke-linecap:round;stroke-miterlimit:11.3386;}
	.st1{fill:#808080;}
	.st2{font-family:'ArialMT';}
	.st3{font-size:5.544px;}
	.st4{fill:none;stroke:#C90D0C;stroke-width:0.432;stroke-linecap:round;stroke-miterlimit:11.3386;}
	.st5{fill:none;stroke:#C90D0C;stroke-width:0.72;stroke-linecap:round;stroke-miterlimit:11.3386;}
	.st6{font-size:4.752px;}
	.st7{font-size:3.168px;}
	.st8{fill:none;stroke:#C90D0C;stroke-width:1.728;stroke-linecap:round;stroke-miterlimit:11.3386;}
	.st9{fill:#C90D0C;}
</style>
<desc>generated by eagle2svg 1.2, developed by http://www.nicai-systems.de</desc>
<line class="st0" x1="157.1" y1="46.9" x2="178.7" y2="46.9"/>
<text transform="matrix(1 0 0 1 178.7407 46.8571)" class="st1 st2 st3">3.3V</text>
<g>
	<line class="st0" x1="157.1" y1="32.5" x2="164.3" y2="32.5"/>
	<line class="st0" x1="164.3" y1="32.5" x2="164.3" y2="18.1"/>
	<line class="st0" x1="207.5" y1="18.1" x2="207.5" y2="25.3"/>
	<line class="st0" x1="243.5" y1="18.1" x2="243.5" y2="25.3"/>
</g>
<line class="st0" x1="243.5" y1="68.5" x2="243.5" y2="75.7"/>
<line class="st0" x1="207.5" y1="68.5" x2="207.5" y2="75.7"/>
<line class="st0" x1="164.3" y1="75.7" x2="164.3" y2="61.3"/>
<line class="st0" x1="164.3" y1="61.3" x2="157.1" y2="61.3"/>
<g>
	<line class="st4" x1="243.5" y1="75.7" x2="243.5" y2="82.9"/>
	<line class="st5" x1="238.1" y1="82.9" x2="248.9" y2="82.9"/>
	<text transform="matrix(1 0 0 1 243.5405 90.0583)" class="st1 st2 st3">GND</text>
</g>
<g>
	<line class="st4" x1="164.3" y1="75.7" x2="164.3" y2="82.9"/>
	<line class="st5" x1="158.9" y1="82.9" x2="169.7" y2="82.9"/>
	<text transform="matrix(1 0 0 1 164.3403 90.0583)" class="st1 st2 st3">GND</text>
</g>
<g>
	<line class="st4" x1="207.5" y1="75.7" x2="207.5" y2="82.9"/>
	<line class="st5" x1="202.1" y1="82.9" x2="212.9" y2="82.9"/>
	<text transform="matrix(1 0 0 1 207.5405 90.0583)" class="st1 st2 st3">GND</text>
</g>
<g>
	<line class="st4" x1="164.3" y1="18.1" x2="164.3" y2="10.9"/>
	<line class="st5" x1="167.9" y1="16.3" x2="164.3" y2="10.9"/>
	<line class="st5" x1="164.3" y1="10.9" x2="160.7" y2="16.3"/>
	<text transform="matrix(1 0 0 1 164.3403 7.2575)" class="st1 st2 st3">5V</text>
</g>
<g>
	<line class="st4" x1="243.5" y1="18.1" x2="243.5" y2="10.9"/>
	<line class="st5" x1="247.1" y1="16.3" x2="243.5" y2="10.9"/>
	<line class="st5" x1="243.5" y1="10.9" x2="239.9" y2="16.3"/>
	<text transform="matrix(1 0 0 1 243.5405 7.2575)" class="st1 st2 st3">5V</text>
</g>
<g>
	<line class="st4" x1="207.5" y1="18.1" x2="207.5" y2="10.9"/>
	<line class="st5" x1="211.1" y1="16.3" x2="207.5" y2="10.9"/>
	<line class="st5" x1="207.5" y1="10.9" x2="203.9" y2="16.3"/>
	<text transform="matrix(1 0 0 1 207.5405 7.2575)" class="st1 st2 st3">5V</text>
</g>
<line class="st4" x1="207.5" y1="25.3" x2="207.5" y2="39.7"/>
<text transform="matrix(6.123234e-17 -1 1 6.123234e-17 206.5317 33.0329)" class="st1 st2 st6">2</text>
<line class="st4" x1="207.5" y1="68.5" x2="207.5" y2="54.1"/>
<text transform="matrix(6.123234e-17 -1 1 6.123234e-17 206.5317 67.8161)" class="st1 st2 st6">1*3</text>
<text transform="matrix(6.123234e-17 -1 1 6.123234e-17 211.8599 54.0563)" class="st1 st2 st7">GND</text>
<text transform="matrix(6.123234e-17 -1 1 6.123234e-17 211.8599 39.6579)" class="st1 st2 st7">5V</text>
<text transform="matrix(1 0 0 1 194.5807 49.0175)" class="st1 st2 st3">PCB1.P</text>
<line class="st4" x1="157.1" y1="46.9" x2="149.9" y2="46.9"/>
<text transform="matrix(1 0 0 1 133.5415 49.0173)" class="st1 st2 st6">3.3V</text>
<line class="st4" x1="157.1" y1="32.5" x2="149.9" y2="32.5"/>
<text transform="matrix(1 0 0 1 137.5044 34.6169)" class="st1 st2 st6">5V</text>
<line class="st4" x1="157.1" y1="61.3" x2="149.9" y2="61.3"/>
<text transform="matrix(1 0 0 1 132.7563 63.4177)" class="st1 st2 st6">GND</text>
<text transform="matrix(1 0 0 1 150.9487 60.2497)" class="st1 st2 st6">GND*5</text>
<line class="st4" x1="85.1" y1="32.5" x2="92.3" y2="32.5"/>
<text transform="matrix(1 0 0 1 98.9644 34.6169)" class="st1 st2 st6">VIN</text>
<line class="st5" x1="92.3" y1="68.5" x2="113.9" y2="68.5"/>
<line class="st5" x1="113.9" y1="68.5" x2="149.9" y2="68.5"/>
<line class="st5" x1="149.9" y1="68.5" x2="149.9" y2="25.3"/>
<line class="st5" x1="149.9" y1="25.3" x2="92.3" y2="25.3"/>
<line class="st5" x1="92.3" y1="25.3" x2="92.3" y2="46.9"/>
<line class="st5" x1="92.3" y1="46.9" x2="92.3" y2="68.5"/>
<line class="st5" x1="113.9" y1="46.9" x2="92.3" y2="46.9"/>
<line class="st8" x1="109.6" y1="61.3" x2="113.2" y2="61.3"/>
<line class="st8" x1="109.6" y1="54.1" x2="113.2" y2="54.1"/>
<line class="st5" x1="113.9" y1="46.9" x2="113.9" y2="68.5"/>
<text transform="matrix(6.123234e-17 -1 1 6.123234e-17 104.5806 63.4178)" class="st9 st2 st3">PWR</text>
<text transform="matrix(1 0 0 1 92.3403 21.6579)" class="st1 st2 st3">PCB2.P</text>
<text transform="matrix(1 0 0 1 92.3403 75.6579)" class="st1 st2 st3">ARDUINO-UNO-R3</text>
<line class="st4" x1="243.5" y1="25.3" x2="243.5" y2="39.7"/>
<text transform="matrix(6.123234e-17 -1 1 6.123234e-17 242.5317 33.0329)" class="st1 st2 st6">5V*2</text>
<line class="st4" x1="243.5" y1="68.5" x2="243.5" y2="54.1"/>
<text transform="matrix(6.123234e-17 -1 1 6.123234e-17 242.5317 75.7321)" class="st1 st2 st6">GND*4</text>
<text transform="matrix(6.123234e-17 -1 1 6.123234e-17 247.8599 54.0563)" class="st1 st2 st7">GND</text>
<text transform="matrix(6.123234e-17 -1 1 6.123234e-17 247.8599 39.6579)" class="st1 st2 st7">5V</text>
<text transform="matrix(1 0 0 1 230.5807 49.0175)" class="st1 st2 st3">PCB3.P</text>
</svg>
