<?xml version="1.0" encoding="utf-8"?>
<!-- Generator: Adobe Illustrator 26.3.1, SVG Export Plug-In . SVG Version: 6.00 Build 0)  -->
<svg version="1.1" id="Layer_1" xmlns="http://www.w3.org/2000/svg" xmlns:xlink="http://www.w3.org/1999/xlink" x="0px" y="0px"
	 viewBox="0 0 370.4 92.6" style="enable-background:new 0 0 370.4 92.6;" xml:space="preserve">
<style type="text/css">
	.st0{fill:none;stroke:#0DAB76;stroke-width:0.432;stroke-linecap:round;stroke-miterlimit:11.3386;}
	.st1{enable-background:new    ;}
	.st2{fill:#808080;}
	.st3{fill:none;stroke:#C90D0C;stroke-width:0.432;stroke-linecap:round;stroke-miterlimit:11.3386;}
	.st4{fill:none;stroke:#C90D0C;stroke-width:0.72;stroke-linecap:round;stroke-miterlimit:11.3386;}
	.st5{fill:none;stroke:#C90D0C;stroke-width:1.728;stroke-linecap:round;stroke-miterlimit:11.3386;}
	.st6{fill:#C90D0C;}
</style>
<line class="st0" x1="159.1" y1="46.9" x2="180.7" y2="46.9"/>
<g class="st1">
	<path class="st2" d="M181,45.8l0.5-0.1c0.1,0.3,0.2,0.5,0.3,0.6s0.3,0.2,0.5,0.2s0.4-0.1,0.6-0.2s0.2-0.4,0.2-0.6
		c0-0.2-0.1-0.4-0.2-0.6c-0.1-0.1-0.3-0.2-0.6-0.2c-0.1,0-0.2,0-0.3,0.1l0.1-0.4h0.1c0.2,0,0.4-0.1,0.6-0.2s0.2-0.3,0.2-0.5
		s-0.1-0.3-0.2-0.4c-0.1-0.1-0.3-0.2-0.5-0.2s-0.3,0.1-0.5,0.2c-0.1,0.1-0.2,0.3-0.2,0.5l-0.5-0.1c0.1-0.3,0.2-0.6,0.4-0.8
		s0.5-0.3,0.8-0.3c0.2,0,0.4,0,0.6,0.1s0.3,0.2,0.4,0.4c0.1,0.2,0.1,0.3,0.1,0.5s0,0.3-0.1,0.5c-0.1,0.1-0.2,0.3-0.4,0.3
		c0.2,0.1,0.4,0.2,0.5,0.3c0.1,0.2,0.2,0.4,0.2,0.6c0,0.3-0.1,0.6-0.4,0.9c-0.3,0.2-0.6,0.4-1,0.4c-0.3,0-0.6-0.1-0.9-0.3
		C181.1,46.4,181,46.1,181,45.8z"/>
	<path class="st2" d="M184.3,46.9v-0.6h0.6v0.6H184.3z"/>
	<path class="st2" d="M185.6,45.8l0.5-0.1c0.1,0.3,0.2,0.5,0.3,0.6c0.1,0.1,0.3,0.2,0.5,0.2s0.4-0.1,0.6-0.2s0.2-0.4,0.2-0.6
		c0-0.2-0.1-0.4-0.2-0.6c-0.1-0.1-0.3-0.2-0.6-0.2c-0.1,0-0.2,0-0.3,0.1l0.1-0.4h0.1c0.2,0,0.4-0.1,0.6-0.2s0.2-0.3,0.2-0.5
		s-0.1-0.3-0.2-0.4c-0.1-0.1-0.3-0.2-0.5-0.2s-0.3,0.1-0.5,0.2c-0.1,0.1-0.2,0.3-0.2,0.5l-0.5-0.1c0.1-0.3,0.2-0.6,0.4-0.8
		c0.2-0.2,0.5-0.3,0.8-0.3c0.2,0,0.4,0,0.6,0.1s0.3,0.2,0.4,0.4c0.1,0.2,0.1,0.3,0.1,0.5s0,0.3-0.1,0.5c-0.1,0.1-0.2,0.3-0.4,0.3
		c0.2,0.1,0.4,0.2,0.5,0.3c0.1,0.2,0.2,0.4,0.2,0.6c0,0.3-0.1,0.6-0.4,0.9c-0.3,0.2-0.6,0.4-1,0.4c-0.3,0-0.6-0.1-0.9-0.3
		C185.8,46.4,185.6,46.1,185.6,45.8z"/>
	<path class="st2" d="M190,46.9l-1.5-4h0.6l1,2.9c0.1,0.2,0.2,0.4,0.2,0.6c0.1-0.2,0.1-0.4,0.2-0.6l1.1-2.9h0.5l-1.6,4H190z"/>
</g>
<g>
	<line class="st0" x1="159.1" y1="32.5" x2="166.3" y2="32.5"/>
	<line class="st0" x1="166.3" y1="32.5" x2="166.3" y2="18.1"/>
	<line class="st0" x1="209.5" y1="18.1" x2="209.5" y2="25.3"/>
	<line class="st0" x1="245.5" y1="18.1" x2="245.5" y2="25.3"/>
</g>
<line class="st0" x1="245.5" y1="68.5" x2="245.5" y2="75.7"/>
<line class="st0" x1="209.5" y1="68.5" x2="209.5" y2="75.7"/>
<line class="st0" x1="166.3" y1="75.7" x2="166.3" y2="61.3"/>
<line class="st0" x1="166.3" y1="61.3" x2="159.1" y2="61.3"/>
<g>
	<line class="st3" x1="245.5" y1="75.7" x2="245.5" y2="82.9"/>
	<line class="st4" x1="240.1" y1="82.9" x2="250.9" y2="82.9"/>
	<g class="st1">
		<path class="st2" d="M247.8,88.5V88h1.7v1.5c-0.3,0.2-0.5,0.4-0.8,0.5s-0.6,0.2-0.8,0.2c-0.4,0-0.7-0.1-1.1-0.3
			c-0.3-0.2-0.6-0.4-0.7-0.7c-0.2-0.3-0.2-0.7-0.2-1.1s0.1-0.7,0.2-1.1c0.2-0.3,0.4-0.6,0.7-0.7c0.3-0.2,0.7-0.2,1-0.2
			s0.5,0,0.8,0.1c0.2,0.1,0.4,0.2,0.5,0.4c0.1,0.2,0.2,0.4,0.3,0.6l-0.5,0.1c-0.1-0.2-0.1-0.4-0.2-0.5c-0.1-0.1-0.2-0.2-0.4-0.3
			c-0.2-0.1-0.3-0.1-0.5-0.1s-0.4,0-0.6,0.1c-0.2,0.1-0.3,0.2-0.4,0.3s-0.2,0.2-0.2,0.4c-0.1,0.2-0.2,0.5-0.2,0.8
			c0,0.4,0.1,0.6,0.2,0.9c0.1,0.2,0.3,0.4,0.5,0.5s0.5,0.2,0.7,0.2s0.4,0,0.7-0.1c0.2-0.1,0.4-0.2,0.5-0.3v-0.7
			C249,88.5,247.8,88.5,247.8,88.5z"/>
		<path class="st2" d="M250.3,90.1v-4h0.5l2.1,3.1v-3.1h0.5v4h-0.5l-2.1-3.1v3.1H250.3z"/>
		<path class="st2" d="M254.3,90.1v-4h1.4c0.3,0,0.5,0,0.7,0.1c0.2,0.1,0.4,0.1,0.6,0.3c0.2,0.2,0.4,0.4,0.5,0.7
			c0.1,0.3,0.2,0.6,0.2,0.9s0,0.6-0.1,0.8s-0.2,0.4-0.3,0.6s-0.2,0.3-0.4,0.4c-0.1,0.1-0.3,0.2-0.5,0.2c-0.2,0-0.4,0.1-0.6,0.1
			L254.3,90.1L254.3,90.1z M254.8,89.6h0.8c0.3,0,0.5,0,0.6-0.1s0.3-0.1,0.4-0.2s0.2-0.3,0.3-0.5s0.1-0.5,0.1-0.8
			c0-0.4-0.1-0.7-0.2-1c-0.1-0.2-0.3-0.4-0.5-0.4c-0.1-0.1-0.4-0.1-0.7-0.1h-0.8L254.8,89.6L254.8,89.6z"/>
	</g>
</g>
<g>
	<line class="st3" x1="166.3" y1="75.7" x2="166.3" y2="82.9"/>
	<line class="st4" x1="160.9" y1="82.9" x2="171.7" y2="82.9"/>
	<g class="st1">
		<path class="st2" d="M168.6,88.5V88h1.7v1.5c-0.3,0.2-0.5,0.4-0.8,0.5s-0.6,0.2-0.8,0.2c-0.4,0-0.7-0.1-1.1-0.3
			c-0.3-0.2-0.6-0.4-0.7-0.7c-0.2-0.3-0.2-0.7-0.2-1.1s0.1-0.7,0.2-1.1c0.2-0.3,0.4-0.6,0.7-0.7c0.3-0.2,0.7-0.2,1-0.2
			s0.5,0,0.8,0.1c0.2,0.1,0.4,0.2,0.5,0.4c0.1,0.2,0.2,0.4,0.3,0.6l-0.5,0.1c-0.1-0.2-0.1-0.4-0.2-0.5c-0.1-0.1-0.2-0.2-0.4-0.3
			c-0.2-0.1-0.3-0.1-0.5-0.1s-0.4,0-0.6,0.1s-0.3,0.2-0.4,0.3c-0.1,0.1-0.2,0.2-0.2,0.4c-0.1,0.2-0.2,0.5-0.2,0.8
			c0,0.4,0.1,0.6,0.2,0.9c0.1,0.2,0.3,0.4,0.5,0.5s0.5,0.2,0.7,0.2s0.4,0,0.7-0.1c0.2-0.1,0.4-0.2,0.5-0.3v-0.7
			C169.8,88.5,168.6,88.5,168.6,88.5z"/>
		<path class="st2" d="M171.1,90.1v-4h0.5l2.1,3.1v-3.1h0.5v4h-0.5l-2.1-3.1v3.1H171.1z"/>
		<path class="st2" d="M175.1,90.1v-4h1.4c0.3,0,0.5,0,0.7,0.1s0.4,0.1,0.6,0.3c0.2,0.2,0.4,0.4,0.5,0.7c0.1,0.3,0.2,0.6,0.2,0.9
			s0,0.6-0.1,0.8c-0.1,0.2-0.2,0.4-0.3,0.6c-0.1,0.2-0.2,0.3-0.4,0.4c-0.1,0.1-0.3,0.2-0.5,0.2s-0.4,0.1-0.6,0.1L175.1,90.1
			L175.1,90.1z M175.6,89.6h0.8c0.3,0,0.5,0,0.6-0.1c0.1-0.1,0.3-0.1,0.4-0.2c0.1-0.1,0.2-0.3,0.3-0.5c0.1-0.2,0.1-0.5,0.1-0.8
			c0-0.4-0.1-0.7-0.2-1c-0.1-0.2-0.3-0.4-0.5-0.4c-0.1-0.1-0.4-0.1-0.7-0.1h-0.8C175.6,86.5,175.6,89.6,175.6,89.6z"/>
	</g>
</g>
<g>
	<line class="st3" x1="209.5" y1="75.7" x2="209.5" y2="82.9"/>
	<line class="st4" x1="204.1" y1="82.9" x2="214.9" y2="82.9"/>
	<g class="st1">
		<path class="st2" d="M211.8,88.5V88h1.7v1.5c-0.3,0.2-0.5,0.4-0.8,0.5s-0.6,0.2-0.8,0.2c-0.4,0-0.7-0.1-1.1-0.3
			c-0.3-0.2-0.6-0.4-0.7-0.7c-0.2-0.3-0.2-0.7-0.2-1.1s0.1-0.7,0.2-1.1c0.2-0.3,0.4-0.6,0.7-0.7c0.3-0.2,0.7-0.2,1-0.2
			s0.5,0,0.8,0.1c0.2,0.1,0.4,0.2,0.5,0.4c0.1,0.2,0.2,0.4,0.3,0.6l-0.5,0.1c-0.1-0.2-0.1-0.4-0.2-0.5c-0.1-0.1-0.2-0.2-0.4-0.3
			c-0.2-0.1-0.3-0.1-0.5-0.1s-0.4,0-0.6,0.1c-0.2,0.1-0.3,0.2-0.4,0.3s-0.2,0.2-0.2,0.4c-0.1,0.2-0.2,0.5-0.2,0.8
			c0,0.4,0.1,0.6,0.2,0.9c0.1,0.2,0.3,0.4,0.5,0.5s0.5,0.2,0.7,0.2s0.4,0,0.7-0.1c0.2-0.1,0.4-0.2,0.5-0.3v-0.7
			C213,88.5,211.8,88.5,211.8,88.5z"/>
		<path class="st2" d="M214.3,90.1v-4h0.5l2.1,3.1v-3.1h0.5v4h-0.5l-2.1-3.1v3.1H214.3z"/>
		<path class="st2" d="M218.3,90.1v-4h1.4c0.3,0,0.5,0,0.7,0.1s0.4,0.1,0.6,0.3c0.2,0.2,0.4,0.4,0.5,0.7c0.1,0.3,0.2,0.6,0.2,0.9
			s0,0.6-0.1,0.8s-0.2,0.4-0.3,0.6s-0.2,0.3-0.4,0.4c-0.1,0.1-0.3,0.2-0.5,0.2s-0.4,0.1-0.6,0.1L218.3,90.1L218.3,90.1z M218.8,89.6
			h0.8c0.3,0,0.5,0,0.6-0.1s0.3-0.1,0.4-0.2c0.1-0.1,0.2-0.3,0.3-0.5s0.1-0.5,0.1-0.8c0-0.4-0.1-0.7-0.2-1c-0.1-0.2-0.3-0.4-0.5-0.4
			c-0.1-0.1-0.4-0.1-0.7-0.1h-0.8L218.8,89.6L218.8,89.6z"/>
	</g>
</g>
<g>
	<line class="st3" x1="166.3" y1="18.1" x2="166.3" y2="10.9"/>
	<line class="st4" x1="169.9" y1="16.3" x2="166.3" y2="10.9"/>
	<line class="st4" x1="166.3" y1="10.9" x2="162.7" y2="16.3"/>
	<g class="st1">
		<path class="st2" d="M166.6,6.2h0.5c0,0.2,0.1,0.4,0.3,0.6c0.1,0.1,0.3,0.2,0.5,0.2s0.4-0.1,0.6-0.3c0.2-0.2,0.2-0.4,0.2-0.7
			c0-0.3-0.1-0.5-0.2-0.7c-0.2-0.2-0.4-0.2-0.6-0.2s-0.3,0-0.4,0.1c-0.1,0.1-0.2,0.2-0.3,0.3l-0.5-0.1l0.4-2h2v0.5h-1.6L167.3,5
			c0.2-0.2,0.5-0.2,0.8-0.2s0.6,0.1,0.9,0.4c0.2,0.2,0.4,0.5,0.4,0.9s-0.1,0.7-0.3,0.9c-0.3,0.3-0.6,0.5-1,0.5
			c-0.4,0-0.7-0.1-0.9-0.3C166.7,6.8,166.6,6.6,166.6,6.2z"/>
		<path class="st2" d="M171,7.3l-1.5-4h0.6l1,2.9c0.1,0.2,0.2,0.4,0.2,0.6c0.1-0.2,0.1-0.4,0.2-0.6l1.1-2.9h0.5l-1.6,4H171z"/>
	</g>
</g>
<g>
	<line class="st3" x1="245.5" y1="18.1" x2="245.5" y2="10.9"/>
	<line class="st4" x1="249.1" y1="16.3" x2="245.5" y2="10.9"/>
	<line class="st4" x1="245.5" y1="10.9" x2="241.9" y2="16.3"/>
	<g class="st1">
		<path class="st2" d="M245.8,6.2h0.5c0,0.2,0.1,0.4,0.3,0.6c0.1,0.1,0.3,0.2,0.5,0.2s0.4-0.1,0.6-0.3c0.2-0.2,0.2-0.4,0.2-0.7
			c0-0.3-0.1-0.5-0.2-0.7c-0.2-0.2-0.4-0.2-0.6-0.2c-0.2,0-0.3,0-0.4,0.1c-0.1,0.1-0.2,0.2-0.3,0.3l-0.5-0.1l0.4-2h2v0.5h-1.6
			L246.5,5c0.2-0.2,0.5-0.2,0.8-0.2s0.6,0.1,0.9,0.4c0.2,0.2,0.4,0.5,0.4,0.9s-0.1,0.7-0.3,0.9c-0.3,0.3-0.6,0.5-1,0.5
			s-0.7-0.1-0.9-0.3C245.9,6.8,245.8,6.6,245.8,6.2z"/>
		<path class="st2" d="M250.2,7.3l-1.5-4h0.6l1,2.9c0.1,0.2,0.2,0.4,0.2,0.6c0.1-0.2,0.1-0.4,0.2-0.6l1.1-2.9h0.5l-1.6,4H250.2z"/>
	</g>
</g>
<g>
	<line class="st3" x1="209.5" y1="18.1" x2="209.5" y2="10.9"/>
	<line class="st4" x1="213.1" y1="16.3" x2="209.5" y2="10.9"/>
	<line class="st4" x1="209.5" y1="10.9" x2="205.9" y2="16.3"/>
	<g class="st1">
		<path class="st2" d="M209.8,6.2h0.5c0,0.2,0.1,0.4,0.3,0.6c0.1,0.1,0.3,0.2,0.5,0.2s0.4-0.1,0.6-0.3c0.2-0.2,0.2-0.4,0.2-0.7
			c0-0.3-0.1-0.5-0.2-0.7c-0.2-0.2-0.4-0.2-0.6-0.2c-0.2,0-0.3,0-0.4,0.1c-0.1,0.1-0.2,0.2-0.3,0.3l-0.5-0.1l0.4-2h2v0.5h-1.6
			L210.5,5c0.2-0.2,0.5-0.2,0.8-0.2s0.6,0.1,0.9,0.4c0.2,0.2,0.4,0.5,0.4,0.9s-0.1,0.7-0.3,0.9c-0.3,0.3-0.6,0.5-1,0.5
			s-0.7-0.1-0.9-0.3C209.9,6.8,209.8,6.6,209.8,6.2z"/>
		<path class="st2" d="M214.2,7.3l-1.5-4h0.6l1,2.9c0.1,0.2,0.2,0.4,0.2,0.6c0.1-0.2,0.1-0.4,0.2-0.6l1.1-2.9h0.5l-1.6,4H214.2z"/>
	</g>
</g>
<line class="st3" x1="209.5" y1="25.3" x2="209.5" y2="39.7"/>
<g class="st1">
	<path class="st2" d="M208.5,31.5h-0.8V33h-0.4l-2.2-1.6v-0.3h2.2v-0.5h0.4v0.5h0.8V31.5z M207.3,31.5h-1.5l1.5,1.1V31.5z"/>
</g>
<line class="st3" x1="209.5" y1="68.5" x2="209.5" y2="54.1"/>
<g class="st1">
	<path class="st2" d="M207.6,67.6v-0.4c0.2,0,0.4-0.1,0.5-0.2s0.2-0.3,0.2-0.4c0-0.2-0.1-0.4-0.2-0.5c-0.2-0.1-0.4-0.2-0.6-0.2
		c-0.2,0-0.4,0.1-0.6,0.2s-0.2,0.3-0.2,0.5c0,0.1,0,0.3,0.1,0.4s0.1,0.2,0.2,0.3l-0.1,0.4l-1.7-0.3v-1.7h0.4v1.4l0.9,0.2
		c-0.1-0.2-0.2-0.4-0.2-0.6c0-0.3,0.1-0.5,0.3-0.8c0.2-0.2,0.5-0.3,0.8-0.3s0.6,0.1,0.8,0.3c0.3,0.2,0.4,0.5,0.4,0.9
		c0,0.3-0.1,0.6-0.3,0.8C208.2,67.5,207.9,67.6,207.6,67.6z"/>
	<path class="st2" d="M205.8,65l-0.3-0.1c0.1-0.2,0.2-0.4,0.2-0.5c-0.3,0-0.5,0-0.6,0v-0.3c0.2,0,0.3,0,0.6,0.1
		c-0.1-0.2-0.2-0.3-0.2-0.5l0.3-0.1c0.1,0.2,0.1,0.4,0.1,0.6c0.1-0.1,0.2-0.2,0.4-0.4l0.2,0.3c-0.1,0.1-0.3,0.2-0.5,0.3
		c0.2,0.1,0.4,0.2,0.5,0.3l-0.2,0.3c-0.2-0.2-0.4-0.3-0.4-0.4C205.8,64.7,205.8,64.8,205.8,65z"/>
	<path class="st2" d="M207.6,63.1l-0.1-0.4c0.2,0,0.4-0.1,0.5-0.2s0.2-0.3,0.2-0.4c0-0.2-0.1-0.4-0.2-0.5c-0.1-0.1-0.3-0.2-0.5-0.2
		s-0.3,0.1-0.5,0.2s-0.1,0.2-0.1,0.4c0,0.1,0,0.2,0,0.3h-0.4v-0.1c0-0.2,0-0.3-0.1-0.5c-0.1-0.1-0.2-0.2-0.4-0.2s-0.3,0.1-0.4,0.2
		s-0.2,0.2-0.2,0.4s0.1,0.3,0.2,0.4s0.3,0.2,0.5,0.2l-0.1,0.4c-0.3-0.1-0.5-0.2-0.7-0.3s-0.2-0.4-0.2-0.7c0-0.2,0-0.4,0.1-0.5
		s0.2-0.3,0.3-0.4c0.1-0.1,0.3-0.1,0.4-0.1c0.1,0,0.3,0,0.4,0.1c0.1,0.1,0.2,0.2,0.3,0.4c0-0.2,0.1-0.4,0.3-0.5
		c0.1-0.1,0.3-0.2,0.5-0.2c0.3,0,0.5,0.1,0.8,0.3c0.2,0.2,0.3,0.5,0.3,0.8s-0.1,0.5-0.3,0.7S207.9,63.1,207.6,63.1z"/>
</g>
<g class="st1">
	<path class="st2" d="M213,52.8h-0.3v-1h0.8c0.1,0.1,0.2,0.3,0.3,0.5s0.1,0.3,0.1,0.5s0,0.4-0.1,0.6c-0.1,0.2-0.2,0.3-0.4,0.4
		c-0.2,0.1-0.4,0.1-0.6,0.1c-0.2,0-0.4,0-0.6-0.1c-0.2-0.1-0.3-0.2-0.4-0.4c-0.1-0.2-0.1-0.4-0.1-0.6c0-0.2,0-0.3,0.1-0.4
		c0.1-0.1,0.1-0.2,0.2-0.3c0.1-0.1,0.2-0.1,0.4-0.2l0.1,0.3c-0.1,0-0.2,0.1-0.3,0.1c-0.1,0.1-0.1,0.1-0.2,0.2c0,0.1-0.1,0.2-0.1,0.3
		s0,0.3,0.1,0.4c0,0.1,0.1,0.2,0.2,0.2c0.1,0.1,0.1,0.1,0.2,0.1c0.1,0.1,0.3,0.1,0.5,0.1s0.4,0,0.5-0.1s0.2-0.2,0.3-0.3
		s0.1-0.3,0.1-0.4c0-0.1,0-0.3-0.1-0.4c0-0.1-0.1-0.2-0.2-0.3h-0.4v0.7H213z"/>
	<path class="st2" d="M213.9,51.4h-2.3V51l1.8-1.2h-1.8v-0.3h2.3v0.3l-1.8,1.2h1.8V51.4z"/>
	<path class="st2" d="M213.9,49.1h-2.3v-0.8c0-0.2,0-0.3,0-0.4c0-0.1,0.1-0.2,0.2-0.3c0.1-0.1,0.2-0.2,0.4-0.3s0.3-0.1,0.5-0.1
		s0.3,0,0.5,0.1c0.1,0,0.2,0.1,0.3,0.2c0.1,0.1,0.2,0.1,0.2,0.2s0.1,0.2,0.1,0.3s0,0.2,0,0.4v0.7H213.9z M213.6,48.8v-0.5
		c0-0.1,0-0.3,0-0.4c0-0.1-0.1-0.2-0.1-0.2c-0.1-0.1-0.2-0.1-0.3-0.2c-0.1,0-0.3-0.1-0.4-0.1c-0.2,0-0.4,0-0.5,0.1s-0.2,0.2-0.3,0.3
		c0,0.1,0,0.2,0,0.4v0.5h1.6V48.8z"/>
</g>
<g class="st1">
	<path class="st2" d="M213.3,39.5v-0.3c0.1,0,0.2-0.1,0.3-0.2c0.1-0.1,0.1-0.2,0.1-0.3s-0.1-0.2-0.2-0.3s-0.2-0.1-0.4-0.1
		s-0.3,0-0.4,0.1c-0.1,0.1-0.1,0.2-0.1,0.4c0,0.1,0,0.2,0.1,0.2c0,0.1,0.1,0.1,0.2,0.2v0.3l-1.2-0.2v-1.1h0.3V39l0.6,0.1
		c-0.1-0.1-0.1-0.3-0.1-0.4c0-0.2,0.1-0.4,0.2-0.5c0.1-0.1,0.3-0.2,0.5-0.2s0.4,0.1,0.5,0.2c0.2,0.1,0.3,0.3,0.3,0.6
		c0,0.2-0.1,0.4-0.2,0.5C213.6,39.4,213.5,39.5,213.3,39.5z"/>
	<path class="st2" d="M213.9,37l-2.3,0.9v-0.3l1.6-0.6c0.1,0,0.3-0.1,0.4-0.1c-0.1,0-0.2-0.1-0.4-0.1l-1.6-0.6v-0.3l2.3,0.9V37z"/>
</g>
<g class="st1">
	<path class="st2" d="M201.6,49v-4h1.5c0.3,0,0.5,0,0.6,0c0.2,0,0.4,0.1,0.5,0.2c0.1,0.1,0.2,0.2,0.3,0.4s0.1,0.3,0.1,0.5
		c0,0.3-0.1,0.6-0.3,0.9s-0.6,0.4-1.2,0.4h-1V49H201.6z M202.1,46.9h1c0.3,0,0.6-0.1,0.7-0.2c0.1-0.1,0.2-0.3,0.2-0.5s0-0.3-0.1-0.4
		s-0.2-0.2-0.3-0.2s-0.3,0-0.5,0h-1L202.1,46.9L202.1,46.9z"/>
	<path class="st2" d="M208.1,47.6l0.5,0.1c-0.1,0.4-0.3,0.8-0.6,1s-0.6,0.3-1,0.3s-0.8-0.1-1-0.3c-0.3-0.2-0.5-0.4-0.6-0.8
		c-0.1-0.3-0.2-0.7-0.2-1.1c0-0.4,0.1-0.8,0.2-1.1c0.2-0.3,0.4-0.5,0.7-0.7s0.6-0.2,1-0.2s0.7,0.1,1,0.3s0.5,0.5,0.6,0.9l-0.5,0.1
		c-0.1-0.3-0.2-0.5-0.4-0.6s-0.4-0.2-0.7-0.2s-0.6,0.1-0.8,0.2c-0.2,0.1-0.3,0.3-0.4,0.6c-0.1,0.2-0.1,0.5-0.1,0.8s0,0.6,0.1,0.9
		c0.1,0.3,0.3,0.4,0.5,0.6s0.4,0.2,0.7,0.2s0.5-0.1,0.7-0.3C207.9,48.2,208.1,48,208.1,47.6z"/>
	<path class="st2" d="M209.3,49v-4h1.5c0.3,0,0.5,0,0.7,0.1s0.3,0.2,0.4,0.4c0.1,0.2,0.2,0.3,0.2,0.5s0,0.3-0.1,0.5
		c-0.1,0.1-0.2,0.3-0.4,0.4c0.2,0.1,0.4,0.2,0.6,0.4c0.1,0.2,0.2,0.4,0.2,0.6c0,0.2,0,0.4-0.1,0.5c-0.1,0.2-0.2,0.3-0.3,0.4
		c-0.1,0.1-0.3,0.2-0.4,0.2c-0.2,0-0.4,0.1-0.6,0.1h-1.7V49z M209.8,46.7h0.9c0.2,0,0.4,0,0.5,0s0.2-0.1,0.3-0.2
		c0.1-0.1,0.1-0.2,0.1-0.3s0-0.2-0.1-0.3s-0.2-0.2-0.3-0.2s-0.3-0.1-0.6-0.1h-0.8L209.8,46.7L209.8,46.7z M209.8,48.5h1
		c0.2,0,0.3,0,0.4,0c0.1,0,0.2-0.1,0.3-0.1c0.1-0.1,0.1-0.1,0.2-0.2c0.1-0.1,0.1-0.2,0.1-0.3s0-0.3-0.1-0.4
		c-0.1-0.1-0.2-0.2-0.3-0.2s-0.3-0.1-0.6-0.1h-0.9L209.8,48.5L209.8,48.5z"/>
	<path class="st2" d="M214.6,49h-0.5v-3.1c-0.1,0.1-0.3,0.2-0.5,0.3s-0.4,0.2-0.5,0.3V46c0.3-0.1,0.5-0.3,0.7-0.5s0.3-0.4,0.4-0.5
		h0.3v4H214.6z"/>
	<path class="st2" d="M216.2,49v-0.6h0.6V49H216.2z"/>
	<path class="st2" d="M217.6,49v-4h1.5c0.3,0,0.5,0,0.6,0c0.2,0,0.4,0.1,0.5,0.2c0.1,0.1,0.2,0.2,0.3,0.4s0.1,0.3,0.1,0.5
		c0,0.3-0.1,0.6-0.3,0.9s-0.6,0.4-1.2,0.4h-1V49H217.6z M218.1,46.9h1c0.3,0,0.6-0.1,0.7-0.2c0.1-0.1,0.2-0.3,0.2-0.5s0-0.3-0.1-0.4
		s-0.2-0.2-0.3-0.2s-0.3,0-0.5,0h-1L218.1,46.9L218.1,46.9z"/>
</g>
<g>
	<line class="st3" x1="159.1" y1="46.9" x2="151.9" y2="46.9"/>
	<g class="st1">
		<path class="st2" d="M135.7,48.1l0.4-0.1c0,0.2,0.1,0.4,0.2,0.5c0.1,0.1,0.3,0.2,0.4,0.2c0.2,0,0.4-0.1,0.5-0.2
			c0.1-0.1,0.2-0.3,0.2-0.5s-0.1-0.3-0.2-0.5s-0.3-0.2-0.5-0.2c-0.1,0-0.2,0-0.3,0v-0.4h0.1c0.2,0,0.3,0,0.5-0.1
			c0.1-0.1,0.2-0.2,0.2-0.4s-0.1-0.3-0.2-0.4c-0.1-0.1-0.2-0.2-0.4-0.2s-0.3,0.1-0.4,0.2c-0.1,0.1-0.2,0.3-0.2,0.5l-0.4-0.1
			c0.1-0.3,0.2-0.5,0.3-0.7c0.1-0.2,0.4-0.2,0.7-0.2c0.2,0,0.4,0,0.5,0.1c0.1,0.1,0.3,0.2,0.4,0.3c0.1,0.1,0.1,0.3,0.1,0.4
			c0,0.1,0,0.3-0.1,0.4c-0.1,0.1-0.2,0.2-0.4,0.3c0.2,0,0.4,0.1,0.5,0.3c0.1,0.1,0.2,0.3,0.2,0.5c0,0.3-0.1,0.5-0.3,0.8
			c-0.2,0.2-0.5,0.3-0.8,0.3c-0.3,0-0.5-0.1-0.7-0.3C135.8,48.4,135.8,48.4,135.7,48.1z"/>
		<path class="st2" d="M138.6,49v-0.5h0.5V49H138.6z"/>
		<path class="st2" d="M139.7,48.1l0.4-0.1c0,0.2,0.1,0.4,0.2,0.5c0.1,0.1,0.3,0.2,0.4,0.2c0.2,0,0.4-0.1,0.5-0.2
			c0.1-0.1,0.2-0.3,0.2-0.5s-0.1-0.3-0.2-0.5c-0.1-0.2-0.3-0.2-0.5-0.2c-0.1,0-0.2,0-0.3,0v-0.4h0.1c0.2,0,0.3,0,0.5-0.1
			c0.1-0.1,0.2-0.2,0.2-0.4s-0.1-0.3-0.2-0.4c-0.1-0.1-0.2-0.2-0.4-0.2s-0.3,0.1-0.4,0.2c-0.1,0.1-0.2,0.3-0.2,0.5l-0.4-0.1
			c0.1-0.3,0.2-0.5,0.3-0.7s0.4-0.2,0.7-0.2c0.2,0,0.4,0,0.5,0.1c0.1,0.1,0.3,0.2,0.4,0.3c0.1,0.1,0.1,0.3,0.1,0.4
			c0,0.1,0,0.3-0.1,0.4c-0.1,0.1-0.2,0.2-0.4,0.3c0.2,0,0.4,0.1,0.5,0.3c0.3,0.3,0.3,0.5,0.3,0.7c0,0.3-0.1,0.5-0.3,0.8
			c-0.2,0.2-0.5,0.3-0.8,0.3s-0.5-0.1-0.7-0.3S139.7,48.4,139.7,48.1z"/>
		<path class="st2" d="M143.5,49l-1.3-3.4h0.5l0.9,2.5c0.1,0.2,0.1,0.4,0.2,0.6c0.1-0.2,0.1-0.4,0.2-0.6l0.9-2.5h0.5l-1.5,3.4H143.5
			z"/>
	</g>
	<line class="st3" x1="159.1" y1="32.5" x2="151.9" y2="32.5"/>
	<g class="st1">
		<path class="st2" d="M139.7,33.7h0.4c0,0.2,0.1,0.4,0.2,0.5c0.1,0.1,0.3,0.2,0.4,0.2c0.2,0,0.4-0.1,0.5-0.2
			c0.1-0.2,0.2-0.4,0.2-0.6c0-0.2-0.1-0.4-0.2-0.6c-0.1-0.2-0.3-0.2-0.5-0.2c-0.1,0-0.3,0-0.4,0.1c-0.1,0.1-0.2,0.1-0.3,0.2
			l-0.2-0.1l0.3-1.7h1.7v0.4h-1.4l-0.2,0.9c0.2-0.1,0.4-0.2,0.6-0.2c0.3,0,0.5,0.1,0.8,0.3c0.2,0.2,0.3,0.5,0.3,0.8
			s-0.1,0.6-0.3,0.8c-0.2,0.3-0.5,0.4-0.9,0.4c-0.3,0-0.6-0.1-0.8-0.3C139.8,34.2,139.7,34,139.7,33.7z"/>
		<path class="st2" d="M143.5,34.6l-1.3-3.4h0.5l0.9,2.5c0.1,0.2,0.1,0.4,0.2,0.6c0.1-0.2,0.1-0.4,0.2-0.6l0.9-2.5h0.5l-1.5,3.4
			H143.5z"/>
	</g>
	<line class="st3" x1="159.1" y1="61.3" x2="151.9" y2="61.3"/>
	<g class="st1">
		<path class="st2" d="M136.7,62.1v-0.4h1.4V63c-0.2,0.2-0.4,0.3-0.7,0.4c-0.2,0.1-0.5,0.1-0.7,0.1c-0.3,0-0.6-0.1-0.9-0.2
			s-0.5-0.3-0.6-0.6c-0.1-0.3-0.2-0.6-0.2-0.9c0-0.3,0.1-0.6,0.2-0.9c0.1-0.3,0.3-0.5,0.6-0.6s0.6-0.2,0.9-0.2c0.2,0,0.5,0,0.7,0.1
			s0.4,0.2,0.5,0.3c0.1,0.1,0.2,0.3,0.3,0.6l-0.4,0.1c-0.1-0.2-0.1-0.3-0.2-0.4c-0.1-0.1-0.2-0.2-0.3-0.2c-0.1-0.1-0.3-0.1-0.5-0.1
			s-0.4,0-0.5,0.1c-0.2,0.1-0.3,0.1-0.4,0.2c-0.1,0.1-0.2,0.2-0.2,0.3c-0.1,0.2-0.1,0.4-0.1,0.7s0.1,0.6,0.2,0.8s0.3,0.4,0.5,0.5
			s0.4,0.1,0.6,0.1s0.4,0,0.6-0.1s0.3-0.2,0.4-0.2v-0.6h-1.2V62.1z"/>
		<path class="st2" d="M138.8,63.4V60h0.5l1.8,2.7V60h0.4v3.4H141l-1.8-2.7v2.7H138.8z"/>
		<path class="st2" d="M142.3,63.4V60h1.2c0.3,0,0.5,0,0.6,0c0.2,0,0.4,0.1,0.5,0.2c0.2,0.2,0.3,0.3,0.4,0.6
			c0.1,0.3,0.1,0.5,0.1,0.8s0,0.5-0.1,0.7c-0.1,0.2-0.1,0.4-0.2,0.5c-0.1,0.1-0.2,0.2-0.3,0.3c-0.1,0.1-0.2,0.1-0.4,0.2
			c-0.2,0-0.3,0.1-0.5,0.1C143.6,63.4,142.3,63.4,142.3,63.4z M142.7,63h0.7c0.2,0,0.4,0,0.5-0.1c0.1,0,0.2-0.1,0.3-0.2
			c0.1-0.1,0.2-0.2,0.2-0.4s0.1-0.4,0.1-0.7c0-0.4-0.1-0.6-0.2-0.8c-0.1-0.2-0.3-0.3-0.4-0.4c-0.1,0-0.3-0.1-0.6-0.1h-0.7V63H142.7z
			"/>
	</g>
	<g class="st1">
		<path class="st2" d="M154.9,58.9v-0.4h1.4v1.3c-0.2,0.2-0.4,0.3-0.7,0.4c-0.2,0.1-0.5,0.1-0.7,0.1c-0.3,0-0.6-0.1-0.9-0.2
			s-0.5-0.3-0.6-0.6c-0.1-0.3-0.2-0.6-0.2-0.9c0-0.3,0.1-0.6,0.2-0.9c0.1-0.3,0.3-0.5,0.6-0.6s0.6-0.2,0.9-0.2c0.2,0,0.5,0,0.7,0.1
			s0.4,0.2,0.5,0.3c0.1,0.1,0.2,0.3,0.3,0.6l-0.5,0c-0.1-0.2-0.1-0.3-0.2-0.4c-0.1-0.1-0.2-0.2-0.3-0.2c-0.1-0.1-0.3-0.1-0.5-0.1
			s-0.4,0-0.5,0.1c-0.2,0.1-0.3,0.1-0.4,0.2c-0.1,0.1-0.2,0.2-0.2,0.3c-0.1,0.2-0.1,0.4-0.1,0.7s0.1,0.6,0.2,0.8
			c0.1,0.2,0.3,0.4,0.5,0.5s0.4,0.1,0.6,0.1s0.4,0,0.6-0.1s0.3-0.2,0.4-0.2V59L154.9,58.9L154.9,58.9z"/>
		<path class="st2" d="M157,60.2v-3.4h0.5l1.8,2.7v-2.7h0.4v3.4h-0.5l-1.8-2.7v2.7H157z"/>
		<path class="st2" d="M160.4,60.2v-3.4h1.2c0.3,0,0.5,0,0.6,0c0.2,0,0.4,0.1,0.5,0.2c0.2,0.2,0.3,0.3,0.4,0.6
			c0.1,0.3,0.1,0.5,0.1,0.8s0,0.5-0.1,0.7c-0.1,0.2-0.1,0.4-0.2,0.5c-0.1,0.1-0.2,0.2-0.3,0.3s-0.2,0.1-0.4,0.2
			c-0.2,0-0.3,0.1-0.5,0.1C161.7,60.2,160.4,60.2,160.4,60.2z M160.9,59.8h0.7c0.2,0,0.4,0,0.5-0.1c0.1,0,0.2-0.1,0.3-0.2
			c0.1-0.1,0.2-0.2,0.2-0.4s0.1-0.4,0.1-0.7c0-0.4-0.1-0.6-0.2-0.8c-0.1-0.2-0.3-0.3-0.4-0.4c-0.1,0-0.3-0.1-0.6-0.1h-0.6V59.8z"/>
		<path class="st2" d="M163.7,57.5l0.1-0.3c0.2,0.1,0.4,0.2,0.5,0.2c0-0.3,0-0.5,0-0.6h0.3c0,0.2,0,0.3-0.1,0.6
			c0.2-0.1,0.3-0.2,0.5-0.2l0.1,0.3c-0.2,0.1-0.4,0.1-0.6,0.1c0.1,0.1,0.2,0.2,0.4,0.4l-0.3,0.2c-0.1-0.1-0.2-0.3-0.3-0.5
			c-0.1,0.2-0.2,0.4-0.3,0.5l-0.2-0.2c0.2-0.2,0.3-0.4,0.4-0.4C164,57.6,163.8,57.5,163.7,57.5z"/>
		<path class="st2" d="M165.6,59.4h0.4c0,0.2,0.1,0.4,0.2,0.5c0.1,0.1,0.3,0.2,0.4,0.2c0.2,0,0.4-0.1,0.5-0.2
			c0.1-0.2,0.2-0.4,0.2-0.6c0-0.2-0.1-0.4-0.2-0.6c-0.1-0.2-0.3-0.2-0.5-0.2c-0.1,0-0.3,0-0.4,0.1c-0.1,0.1-0.2,0.1-0.3,0.2
			l-0.4-0.1l0.3-1.7h1.7v0.4h-1.4l-0.2,0.9c0.2-0.1,0.4-0.2,0.6-0.2c0.3,0,0.5,0.1,0.8,0.3c0.2,0.2,0.3,0.5,0.3,0.8
			s-0.1,0.6-0.3,0.8c-0.2,0.3-0.5,0.4-0.9,0.4c-0.3,0-0.6-0.1-0.8-0.3C165.7,59.9,165.6,59.6,165.6,59.4z"/>
	</g>
	<line class="st3" x1="87.1" y1="32.5" x2="94.3" y2="32.5"/>
	<g class="st1">
		<path class="st2" d="M102.3,34.6l-1.3-3.4h0.5l0.9,2.5c0.1,0.2,0.1,0.4,0.2,0.6c0.1-0.2,0.1-0.4,0.2-0.6l0.9-2.5h0.5l-1.3,3.4
			H102.3z"/>
		<path class="st2" d="M104.6,34.6v-3.4h0.5v3.4H104.6z"/>
		<path class="st2" d="M105.8,34.6v-3.4h0.5l1.8,2.7v-2.7h0.4v3.4H108l-1.8-2.7v2.7H105.8z"/>
	</g>
	<line class="st4" x1="94.3" y1="68.5" x2="115.9" y2="68.5"/>
	<line class="st4" x1="115.9" y1="68.5" x2="151.9" y2="68.5"/>
	<line class="st4" x1="151.9" y1="68.5" x2="151.9" y2="25.3"/>
	<line class="st4" x1="151.9" y1="25.3" x2="94.3" y2="25.3"/>
	<line class="st4" x1="94.3" y1="25.3" x2="94.3" y2="46.9"/>
	<line class="st4" x1="94.3" y1="46.9" x2="94.3" y2="68.5"/>
	<line class="st4" x1="115.9" y1="46.9" x2="94.3" y2="46.9"/>
	<line class="st5" x1="111.6" y1="61.3" x2="115.2" y2="61.3"/>
	<line class="st5" x1="111.6" y1="54.1" x2="115.2" y2="54.1"/>
	<line class="st4" x1="115.9" y1="46.9" x2="115.9" y2="68.5"/>
	<g class="st1">
		<path class="st6" d="M106.6,63h-4v-1.5c0-0.3,0-0.5,0-0.6c0-0.2,0.1-0.4,0.2-0.5s0.2-0.2,0.4-0.3c0.2-0.1,0.3-0.1,0.5-0.1
			c0.3,0,0.6,0.1,0.9,0.3c0.3,0.2,0.4,0.6,0.4,1.2v1h1.6V63z M104.5,62.5v-1c0-0.3-0.1-0.6-0.2-0.7c-0.1-0.1-0.3-0.2-0.5-0.2
			c-0.2,0-0.3,0-0.4,0.1s-0.2,0.2-0.2,0.3s0,0.3,0,0.5v1C103.2,62.5,104.5,62.5,104.5,62.5z"/>
		<path class="st6" d="M106.6,58.6l-4,1.1v-0.5l2.6-0.6c0.3-0.1,0.5-0.1,0.8-0.2c-0.4-0.1-0.7-0.2-0.7-0.2l-2.7-0.8v-0.6l2-0.6
			c0.5-0.1,1-0.2,1.4-0.3c-0.3-0.1-0.5-0.1-0.9-0.2l-2.6-0.6v-0.5l4,1.1v0.5l-3,0.8c-0.3,0.1-0.4,0.1-0.5,0.1c0.2,0,0.3,0.1,0.5,0.1
			l3,0.8L106.6,58.6L106.6,58.6z"/>
		<path class="st6" d="M106.6,54.1h-4v-1.8c0-0.4,0-0.6,0.1-0.8c0.1-0.2,0.2-0.3,0.4-0.4c0.2-0.1,0.4-0.2,0.6-0.2
			c0.3,0,0.5,0.1,0.7,0.3c0.2,0.2,0.3,0.5,0.4,0.8c0.1-0.1,0.1-0.2,0.2-0.3c0.1-0.2,0.3-0.3,0.5-0.4l1.1-0.7v0.7l-0.8,0.5
			c-0.2,0.2-0.4,0.3-0.5,0.4c-0.1,0.1-0.2,0.2-0.3,0.3c-0.1,0.1-0.1,0.2-0.1,0.2c0,0.1,0,0.2,0,0.3v0.6h1.8v0.5H106.6z M104.4,53.5
			v-1.1c0-0.2,0-0.4-0.1-0.6c-0.1-0.2-0.1-0.2-0.2-0.3s-0.2-0.1-0.4-0.1c-0.2,0-0.3,0.1-0.5,0.2c-0.2,0.1-0.2,0.4-0.2,0.6v1.3
			C103,53.5,104.4,53.5,104.4,53.5z"/>
	</g>
	<g class="st1">
		<path class="st2" d="M94.8,21.7v-4h1.5c0.3,0,0.5,0,0.6,0c0.2,0,0.4,0.1,0.5,0.2s0.2,0.2,0.3,0.4c0.1,0.2,0.1,0.3,0.1,0.5
			c0,0.3-0.1,0.6-0.3,0.9S96.9,20,96.3,20h-1v1.6h-0.5V21.7z M95.3,19.6h1c0.3,0,0.6-0.1,0.7-0.2s0.2-0.3,0.2-0.5s0-0.3-0.1-0.4
			c-0.1-0.1-0.2-0.2-0.3-0.2s-0.3,0-0.5,0h-1C95.3,18.3,95.3,19.6,95.3,19.6z"/>
		<path class="st2" d="M101.3,20.3l0.5,0.1c-0.1,0.4-0.3,0.8-0.6,1c-0.3,0.2-0.6,0.3-1,0.3c-0.4,0-0.8-0.1-1-0.3
			c-0.3-0.2-0.5-0.4-0.6-0.8c-0.1-0.3-0.2-0.7-0.2-1.1s0.1-0.8,0.2-1.1c0.2-0.3,0.4-0.5,0.7-0.7c0.3-0.2,0.6-0.2,1-0.2
			c0.4,0,0.7,0.1,1,0.3c0.3,0.2,0.5,0.5,0.6,0.9l-0.5,0.1c-0.1-0.3-0.2-0.5-0.4-0.6s-0.4-0.2-0.7-0.2c-0.3,0-0.6,0.1-0.8,0.2
			s-0.3,0.3-0.4,0.6c-0.2,0.3-0.2,0.6-0.2,0.8c0,0.3,0,0.6,0.1,0.9s0.3,0.4,0.5,0.6c0.2,0.2,0.4,0.2,0.7,0.2c0.3,0,0.5-0.1,0.7-0.3
			C101.1,20.9,101.2,20.6,101.3,20.3z"/>
		<path class="st2" d="M102.4,21.7v-4h1.5c0.3,0,0.5,0,0.7,0.1c0.2,0.1,0.3,0.2,0.4,0.4c0.1,0.2,0.2,0.3,0.2,0.5s0,0.3-0.1,0.5
			c-0.1,0.1-0.2,0.3-0.4,0.4c0.2,0.1,0.4,0.2,0.6,0.4c0.1,0.2,0.2,0.4,0.2,0.6s0,0.4-0.1,0.5c-0.1,0.2-0.2,0.3-0.3,0.4
			c-0.1,0.1-0.3,0.2-0.4,0.2c-0.2,0-0.4,0.1-0.6,0.1h-1.7V21.7z M103,19.4h0.9c0.2,0,0.4,0,0.5,0s0.2-0.1,0.3-0.2
			c0.1-0.1,0.1-0.2,0.1-0.3c0-0.1,0-0.2-0.1-0.3c-0.1-0.1-0.2-0.2-0.3-0.2s-0.3-0.1-0.6-0.1H103V19.4z M103,21.2h1
			c0.2,0,0.3,0,0.4,0s0.2-0.1,0.3-0.1c0.1-0.1,0.1-0.1,0.2-0.2s0.1-0.2,0.1-0.3c0-0.1,0-0.3-0.1-0.4s-0.2-0.2-0.3-0.2
			s-0.3-0.1-0.6-0.1h-0.9L103,21.2L103,21.2z"/>
		<path class="st2" d="M108.5,21.2v0.5h-2.6c0-0.1,0-0.2,0.1-0.3c0.1-0.2,0.2-0.4,0.3-0.5s0.4-0.4,0.6-0.6c0.4-0.4,0.7-0.6,0.9-0.8
			c0.2-0.2,0.2-0.4,0.2-0.6s-0.1-0.4-0.2-0.5s-0.3-0.2-0.5-0.2c-0.2,0-0.4,0.1-0.6,0.2c-0.1,0.1-0.2,0.3-0.2,0.6l-0.5-0.1
			c0-0.4,0.2-0.7,0.4-0.9s0.5-0.3,0.9-0.3s0.7,0.1,0.9,0.3c0.2,0.2,0.3,0.5,0.3,0.8c0,0.2,0,0.3-0.1,0.5s-0.2,0.3-0.3,0.5
			c-0.2,0.2-0.4,0.4-0.8,0.7c-0.3,0.2-0.5,0.4-0.6,0.5s-0.2,0.2-0.2,0.3h2V21.2z"/>
		<path class="st2" d="M109.3,21.7v-0.6h0.6v0.6H109.3z"/>
		<path class="st2" d="M110.8,21.7v-4h1.5c0.3,0,0.5,0,0.6,0c0.2,0,0.4,0.1,0.5,0.2s0.2,0.2,0.3,0.4c0.1,0.2,0.1,0.3,0.1,0.5
			c0,0.3-0.1,0.6-0.3,0.9c-0.2,0.3-0.6,0.3-1.2,0.3h-1v1.6h-0.5V21.7z M111.3,19.6h1c0.3,0,0.6-0.1,0.7-0.2s0.2-0.3,0.2-0.5
			s0-0.3-0.1-0.4s-0.2-0.2-0.3-0.2s-0.3,0-0.5,0h-1C111.3,18.3,111.3,19.6,111.3,19.6z"/>
	</g>
	<g class="st1">
		<path class="st2" d="M94.3,75.7l1.5-4h0.6l1.6,4h-0.6l-0.5-1.2h-1.7l-0.3,1.2H94.3z M95.5,74h1.3l-0.4-1.1
			c-0.1-0.3-0.2-0.6-0.3-0.8c-0.1,0.3-0.1,0.5-0.2,0.8L95.5,74z"/>
		<path class="st2" d="M98.5,75.7v-4h1.8c0.4,0,0.6,0,0.8,0.1c0.2,0.1,0.3,0.2,0.4,0.4c0.1,0.2,0.2,0.4,0.2,0.6
			c0,0.3-0.1,0.5-0.3,0.7c-0.2,0.2-0.5,0.3-0.8,0.4c0.1,0.1,0.2,0.1,0.3,0.2c0.2,0.1,0.3,0.3,0.4,0.5l0.7,1.1h-0.7l-0.5-0.8
			c-0.2-0.2-0.3-0.4-0.4-0.5s-0.2-0.2-0.3-0.3C100,74,99.9,74,99.9,74c-0.1,0-0.2,0-0.3,0H99v1.8L98.5,75.7L98.5,75.7z M99,73.4h1.1
			c0.2,0,0.4,0,0.6-0.1c0.2-0.1,0.2-0.1,0.3-0.2s0.1-0.2,0.1-0.4c0-0.2-0.1-0.3-0.2-0.5s-0.4-0.2-0.6-0.2H99V73.4z"/>
		<path class="st2" d="M102.5,75.7v-4h1.4c0.3,0,0.5,0,0.7,0.1c0.2,0.1,0.4,0.1,0.6,0.3c0.2,0.2,0.4,0.4,0.5,0.7
			c0.1,0.3,0.2,0.6,0.2,0.9s0,0.6-0.1,0.8s-0.2,0.4-0.3,0.6s-0.2,0.3-0.4,0.4c-0.1,0.1-0.3,0.2-0.5,0.2c-0.2,0-0.4,0.1-0.6,0.1
			L102.5,75.7L102.5,75.7z M103,75.2h0.8c0.3,0,0.5,0,0.6-0.1s0.3-0.1,0.4-0.2c0.1-0.1,0.2-0.3,0.3-0.5s0.1-0.5,0.1-0.8
			c0-0.4-0.1-0.7-0.2-1c-0.1-0.2-0.3-0.4-0.5-0.4c-0.1-0.1-0.4-0.1-0.7-0.1H103C103,72.1,103,75.2,103,75.2z"/>
		<path class="st2" d="M109.1,71.7h0.5V74c0,0.4,0,0.7-0.1,1c-0.1,0.2-0.3,0.4-0.5,0.6c-0.2,0.2-0.5,0.2-0.9,0.2s-0.7-0.1-0.9-0.2
			c-0.2-0.1-0.4-0.3-0.5-0.6c-0.1-0.3-0.2-0.6-0.2-1v-2.3h0.5V74c0,0.3,0,0.6,0.1,0.8c0.1,0.2,0.2,0.3,0.3,0.4
			c0.2,0.1,0.3,0.1,0.6,0.1c0.4,0,0.7-0.1,0.8-0.3c0.2-0.2,0.2-0.5,0.2-1v-2.3H109.1z"/>
		<path class="st2" d="M110.6,75.7v-4h0.5v4H110.6z"/>
		<path class="st2" d="M112,75.7v-4h0.5l2.1,3.1v-3.1h0.5v4h-0.5l-2.1-3.1v3.1H112z"/>
		<path class="st2" d="M115.9,73.7c0-0.7,0.2-1.2,0.5-1.5c0.4-0.4,0.8-0.6,1.4-0.6c0.4,0,0.7,0.1,1,0.3c0.3,0.2,0.5,0.4,0.7,0.7
			c0.2,0.3,0.2,0.7,0.2,1.1s-0.1,0.8-0.2,1.1c-0.2,0.3-0.4,0.6-0.7,0.7c-0.3,0.2-0.6,0.2-1,0.2s-0.7-0.1-1-0.3
			c-0.3-0.2-0.5-0.4-0.7-0.7C115.9,74.4,115.9,74.1,115.9,73.7z M116.4,73.7c0,0.5,0.1,0.9,0.4,1.1c0.3,0.3,0.6,0.4,1,0.4
			s0.7-0.1,1-0.4c0.3-0.3,0.4-0.7,0.4-1.2c0-0.3-0.1-0.6-0.2-0.8c-0.1-0.2-0.3-0.4-0.5-0.6c-0.2-0.1-0.4-0.2-0.7-0.2
			c-0.4,0-0.7,0.1-1,0.4C116.5,72.7,116.4,73.1,116.4,73.7z"/>
		<path class="st2" d="M120.1,74.5V74h1.5v0.5H120.1z"/>
		<path class="st2" d="M124.8,71.7h0.5V74c0,0.4,0,0.7-0.1,1c-0.1,0.2-0.3,0.4-0.5,0.6c-0.2,0.2-0.5,0.2-0.9,0.2s-0.7-0.1-0.9-0.2
			c-0.2-0.1-0.4-0.3-0.5-0.6s-0.2-0.6-0.2-1v-2.3h0.5V74c0,0.3,0,0.6,0.1,0.8c0.1,0.2,0.2,0.3,0.3,0.4c0.2,0.1,0.3,0.1,0.6,0.1
			c0.4,0,0.7-0.1,0.8-0.3c0.2-0.2,0.2-0.5,0.2-1v-2.3H124.8z"/>
		<path class="st2" d="M126.2,75.7v-4h0.5l2.1,3.1v-3.1h0.5v4h-0.5l-2.1-3.1v3.1H126.2z"/>
		<path class="st2" d="M130,73.7c0-0.7,0.2-1.2,0.5-1.5c0.4-0.4,0.8-0.6,1.4-0.6c0.4,0,0.7,0.1,1,0.3c0.3,0.2,0.5,0.4,0.7,0.7
			s0.2,0.7,0.2,1.1s-0.1,0.8-0.2,1.1c-0.2,0.3-0.4,0.6-0.7,0.7c-0.3,0.2-0.6,0.2-1,0.2c-0.4,0-0.7-0.1-1-0.3
			c-0.3-0.2-0.5-0.4-0.7-0.7C130.1,74.4,130,74.1,130,73.7z M130.6,73.7c0,0.5,0.1,0.9,0.4,1.1c0.3,0.3,0.6,0.4,1,0.4
			c0.4,0,0.7-0.1,1-0.4c0.3-0.3,0.4-0.7,0.4-1.2c0-0.3-0.1-0.6-0.2-0.8c-0.1-0.2-0.3-0.4-0.5-0.6c-0.2-0.1-0.4-0.2-0.7-0.2
			c-0.4,0-0.7,0.1-1,0.4C130.7,72.7,130.6,73.1,130.6,73.7z"/>
		<path class="st2" d="M134.2,74.5V74h1.5v0.5H134.2z"/>
		<path class="st2" d="M136.4,75.7v-4h1.8c0.4,0,0.6,0,0.8,0.1s0.3,0.2,0.4,0.4c0.1,0.2,0.2,0.4,0.2,0.6c0,0.3-0.1,0.5-0.3,0.7
			s-0.5,0.3-0.8,0.4c0.1,0.1,0.2,0.1,0.3,0.2c0.2,0.1,0.3,0.3,0.4,0.5l0.7,1.1h-0.7l-0.5-0.8c-0.2-0.2-0.3-0.4-0.4-0.5
			s-0.2-0.2-0.3-0.3c-0.1-0.1-0.1-0.2-0.2-0.2c-0.1,0-0.2,0-0.3,0h-0.6v1.8C136.9,75.7,136.4,75.7,136.4,75.7z M136.9,73.4h1.1
			c0.2,0,0.4,0,0.6-0.1s0.2-0.1,0.3-0.2c0.1-0.1,0.1-0.2,0.1-0.4c0-0.2-0.1-0.3-0.2-0.5s-0.4-0.2-0.6-0.2h-1.3V73.4z"/>
		<path class="st2" d="M140.2,74.6l0.5-0.1c0.1,0.3,0.2,0.5,0.3,0.6c0.1,0.1,0.3,0.2,0.5,0.2s0.4-0.1,0.6-0.2s0.2-0.4,0.2-0.6
			s-0.1-0.4-0.2-0.6c-0.1-0.1-0.3-0.2-0.6-0.2c-0.1,0-0.2,0-0.3,0.1l0.1-0.4h0.1c0.2,0,0.4-0.1,0.6-0.2s0.2-0.3,0.2-0.5
			s-0.1-0.3-0.2-0.4c-0.1-0.1-0.3-0.2-0.5-0.2s-0.3,0.1-0.5,0.2c-0.1,0.1-0.2,0.3-0.2,0.5l-0.5-0.1c0.1-0.3,0.2-0.6,0.4-0.8
			c0.2-0.2,0.5-0.3,0.8-0.3c0.2,0,0.4,0,0.6,0.1s0.3,0.2,0.4,0.4c0.1,0.2,0.1,0.3,0.1,0.5s0,0.3-0.1,0.5c-0.1,0.1-0.2,0.3-0.4,0.3
			c0.2,0.1,0.4,0.2,0.5,0.3c0.1,0.2,0.2,0.4,0.2,0.6c0,0.3-0.1,0.6-0.4,0.9c-0.3,0.2-0.6,0.4-1,0.4c-0.3,0-0.6-0.1-0.9-0.3
			C140.3,75.2,140.2,74.9,140.2,74.6z"/>
	</g>
</g>
<line class="st3" x1="245.5" y1="25.3" x2="245.5" y2="39.7"/>
<g class="st1">
	<path class="st2" d="M243.6,32.8v-0.4c0.2,0,0.4-0.1,0.5-0.2c0.1-0.1,0.2-0.3,0.2-0.4c0-0.2-0.1-0.4-0.2-0.5
		c-0.2-0.1-0.4-0.2-0.6-0.2c-0.2,0-0.4,0.1-0.6,0.2s-0.2,0.3-0.2,0.5c0,0.1,0,0.3,0.1,0.4s0.1,0.2,0.2,0.3l-0.1,0.4l-1.7-0.3v-1.7
		h0.4v1.4l0.9,0.2c-0.1-0.2-0.2-0.4-0.2-0.6c0-0.3,0.1-0.5,0.3-0.8c0.2-0.2,0.5-0.3,0.8-0.3s0.6,0.1,0.8,0.3
		c0.3,0.2,0.4,0.5,0.4,0.9c0,0.3-0.1,0.6-0.3,0.8C244.2,32.7,243.9,32.8,243.6,32.8z"/>
	<path class="st2" d="M244.5,29.1l-3.4,1.3v-0.5l2.5-0.9c0.2-0.1,0.4-0.1,0.6-0.2c-0.2-0.1-0.4-0.1-0.6-0.2l-2.5-0.9v-0.5l3.4,1.3
		V29.1z"/>
	<path class="st2" d="M241.8,27.1l-0.3-0.1c0.1-0.2,0.2-0.4,0.2-0.5c-0.3,0-0.5,0-0.6,0v-0.3c0.2,0,0.3,0,0.6,0.1
		c-0.1-0.2-0.2-0.3-0.2-0.5l0.3-0.1c0.1,0.2,0.1,0.4,0.1,0.6c0.1-0.1,0.2-0.2,0.4-0.4l0.2,0.3c-0.1,0.1-0.3,0.2-0.5,0.3
		c0.2,0.1,0.4,0.2,0.5,0.3l-0.2,0.3c-0.2-0.2-0.4-0.3-0.4-0.4C241.8,26.7,241.8,26.9,241.8,27.1z"/>
	<path class="st2" d="M244.1,23h0.4v2.2c-0.1,0-0.2,0-0.3,0c-0.2-0.1-0.3-0.1-0.5-0.3c-0.1-0.1-0.3-0.3-0.5-0.5
		c-0.3-0.4-0.5-0.6-0.7-0.7s-0.3-0.2-0.5-0.2s-0.3,0.1-0.4,0.2c-0.1,0.1-0.2,0.3-0.2,0.5s0.1,0.4,0.2,0.5s0.3,0.2,0.5,0.2v0.4
		c-0.3,0-0.6-0.1-0.7-0.3c-0.2-0.2-0.3-0.4-0.3-0.8c0-0.3,0.1-0.6,0.3-0.8c0.2-0.2,0.4-0.3,0.7-0.3c0.1,0,0.3,0,0.4,0.1
		c0.1,0.1,0.3,0.1,0.4,0.3c0.1,0.1,0.3,0.3,0.6,0.6c0.2,0.3,0.4,0.4,0.4,0.5c0.1,0.1,0.2,0.1,0.2,0.2L244.1,23L244.1,23z"/>
</g>
<line class="st3" x1="245.5" y1="68.5" x2="245.5" y2="54.1"/>
<g class="st1">
	<path class="st2" d="M243.2,73.8h-0.4v-1.4h1.3c0.2,0.2,0.3,0.4,0.4,0.7c0.1,0.2,0.1,0.5,0.1,0.7c0,0.3-0.1,0.6-0.2,0.9
		s-0.3,0.5-0.6,0.6s-0.6,0.2-0.9,0.2c-0.3,0-0.6-0.1-0.9-0.2c-0.3-0.1-0.5-0.3-0.6-0.6c-0.1-0.3-0.2-0.6-0.2-0.9
		c0-0.2,0-0.5,0.1-0.7s0.2-0.4,0.3-0.5s0.3-0.2,0.6-0.3l0.1,0.4c-0.2,0.1-0.3,0.1-0.4,0.2c-0.1,0.1-0.2,0.2-0.2,0.3
		c-0.1,0.1-0.1,0.3-0.1,0.5s0,0.4,0.1,0.5c0.1,0.2,0.1,0.3,0.2,0.4s0.2,0.2,0.3,0.2c0.2,0.1,0.4,0.1,0.7,0.1s0.6-0.1,0.8-0.2
		s0.4-0.3,0.5-0.5s0.1-0.4,0.1-0.6s0-0.4-0.1-0.6s-0.2-0.3-0.2-0.4h-0.6v1.2H243.2z"/>
	<path class="st2" d="M244.5,71.7h-3.4v-0.5l2.7-1.8h-2.7V69h3.4v0.5l-2.7,1.8h2.7V71.7z"/>
	<path class="st2" d="M244.5,68.2h-3.4V67c0-0.3,0-0.5,0-0.6c0-0.2,0.1-0.4,0.2-0.5c0.2-0.2,0.3-0.3,0.6-0.4s0.5-0.1,0.8-0.1
		s0.5,0,0.7,0.1s0.4,0.1,0.5,0.2s0.2,0.2,0.3,0.3c0.1,0.1,0.1,0.2,0.2,0.4c0,0.2,0.1,0.3,0.1,0.5L244.5,68.2L244.5,68.2z
		 M244.1,67.8v-0.7c0-0.2,0-0.4-0.1-0.5c0-0.1-0.1-0.2-0.2-0.3c-0.1-0.1-0.2-0.2-0.4-0.2S243,66,242.7,66c-0.4,0-0.6,0.1-0.8,0.2
		s-0.3,0.3-0.4,0.4c0,0.1-0.1,0.3-0.1,0.6v0.7L244.1,67.8L244.1,67.8z"/>
	<path class="st2" d="M241.8,65l-0.3-0.1c0.1-0.2,0.2-0.4,0.2-0.5c-0.3,0-0.5,0-0.6,0v-0.3c0.2,0,0.3,0,0.6,0.1
		c-0.1-0.2-0.2-0.3-0.2-0.5l0.3-0.1c0.1,0.2,0.1,0.4,0.1,0.6c0.1-0.1,0.2-0.2,0.4-0.4l0.2,0.3c-0.1,0.1-0.3,0.2-0.5,0.3
		c0.2,0.1,0.4,0.2,0.5,0.3l-0.2,0.3c-0.2-0.2-0.4-0.3-0.4-0.4C241.8,64.7,241.8,64.8,241.8,65z"/>
	<path class="st2" d="M244.5,61.8h-0.8v1.5h-0.4l-2.2-1.6v-0.3h2.2v-0.5h0.4v0.5h0.8V61.8z M243.3,61.8h-1.5l1.5,1.1V61.8z"/>
</g>
<g class="st1">
	<path class="st2" d="M249,52.8h-0.3v-1h0.8c0.1,0.1,0.2,0.3,0.3,0.5s0.1,0.3,0.1,0.5s0,0.4-0.1,0.6c-0.1,0.2-0.2,0.3-0.4,0.4
		c-0.2,0.1-0.4,0.1-0.6,0.1c-0.2,0-0.4,0-0.6-0.1c-0.2-0.1-0.3-0.2-0.4-0.4c-0.1-0.2-0.1-0.4-0.1-0.6c0-0.2,0-0.3,0.1-0.4
		c0.1-0.1,0.1-0.2,0.2-0.3c0.1-0.1,0.2-0.1,0.4-0.2l0.1,0.3c-0.1,0-0.2,0.1-0.3,0.1c-0.1,0.1-0.1,0.1-0.2,0.2c0,0.1-0.1,0.2-0.1,0.3
		s0,0.3,0.1,0.4c0,0.1,0.1,0.2,0.2,0.2c0.1,0.1,0.1,0.1,0.2,0.1c0.1,0.1,0.3,0.1,0.5,0.1s0.4,0,0.5-0.1s0.2-0.2,0.3-0.3
		s0.1-0.3,0.1-0.4c0-0.1,0-0.3-0.1-0.4c0-0.1-0.1-0.2-0.2-0.3h-0.4v0.7H249z"/>
	<path class="st2" d="M249.9,51.4h-2.3V51l1.8-1.2h-1.8v-0.3h2.3v0.3l-1.8,1.2h1.8V51.4z"/>
	<path class="st2" d="M249.9,49.1h-2.3v-0.8c0-0.2,0-0.3,0-0.4c0-0.1,0.1-0.2,0.2-0.3c0.1-0.1,0.2-0.2,0.4-0.3s0.3-0.1,0.5-0.1
		s0.3,0,0.5,0.1c0.1,0,0.2,0.1,0.3,0.2c0.1,0.1,0.2,0.1,0.2,0.2s0.1,0.2,0.1,0.3s0,0.2,0,0.4v0.7H249.9z M249.6,48.8v-0.5
		c0-0.1,0-0.3,0-0.4c0-0.1-0.1-0.2-0.1-0.2c-0.1-0.1-0.2-0.1-0.3-0.2c-0.1,0-0.3-0.1-0.4-0.1c-0.2,0-0.4,0-0.5,0.1s-0.2,0.2-0.3,0.3
		c0,0.1,0,0.2,0,0.4v0.5h1.6V48.8z"/>
</g>
<g class="st1">
	<path class="st2" d="M249.3,39.5v-0.3c0.1,0,0.2-0.1,0.3-0.2c0.1-0.1,0.1-0.2,0.1-0.3s-0.1-0.2-0.2-0.3s-0.2-0.1-0.4-0.1
		s-0.3,0-0.4,0.1c-0.1,0.1-0.1,0.2-0.1,0.4c0,0.1,0,0.2,0.1,0.2c0,0.1,0.1,0.1,0.2,0.2v0.3l-1.2-0.2v-1.1h0.3V39l0.6,0.1
		c-0.1-0.1-0.1-0.3-0.1-0.4c0-0.2,0.1-0.4,0.2-0.5c0.1-0.1,0.3-0.2,0.5-0.2s0.4,0.1,0.5,0.2c0.2,0.1,0.3,0.3,0.3,0.6
		c0,0.2-0.1,0.4-0.2,0.5C249.6,39.4,249.5,39.5,249.3,39.5z"/>
	<path class="st2" d="M249.9,37l-2.3,0.9v-0.3l1.6-0.6c0.1,0,0.3-0.1,0.4-0.1c-0.1,0-0.2-0.1-0.4-0.1l-1.6-0.6v-0.3l2.3,0.9V37z"/>
</g>
<g class="st1">
	<path class="st2" d="M237.6,49v-4h1.5c0.3,0,0.5,0,0.6,0c0.2,0,0.4,0.1,0.5,0.2c0.1,0.1,0.2,0.2,0.3,0.4s0.1,0.3,0.1,0.5
		c0,0.3-0.1,0.6-0.3,0.9s-0.6,0.4-1.2,0.4h-1V49H237.6z M238.1,46.9h1c0.3,0,0.6-0.1,0.7-0.2c0.1-0.1,0.2-0.3,0.2-0.5s0-0.3-0.1-0.4
		s-0.2-0.2-0.3-0.2s-0.3,0-0.5,0h-1L238.1,46.9L238.1,46.9z"/>
	<path class="st2" d="M244.1,47.6l0.5,0.1c-0.1,0.4-0.3,0.8-0.6,1s-0.6,0.3-1,0.3s-0.8-0.1-1-0.3c-0.3-0.2-0.5-0.4-0.6-0.8
		c-0.1-0.3-0.2-0.7-0.2-1.1c0-0.4,0.1-0.8,0.2-1.1c0.2-0.3,0.4-0.5,0.7-0.7s0.6-0.2,1-0.2s0.7,0.1,1,0.3s0.5,0.5,0.6,0.9l-0.5,0.1
		c-0.1-0.3-0.2-0.5-0.4-0.6s-0.4-0.2-0.7-0.2s-0.6,0.1-0.8,0.2c-0.2,0.1-0.3,0.3-0.4,0.6c-0.1,0.2-0.1,0.5-0.1,0.8s0,0.6,0.1,0.9
		c0.1,0.3,0.3,0.4,0.5,0.6s0.4,0.2,0.7,0.2s0.5-0.1,0.7-0.3C243.9,48.2,244.1,48,244.1,47.6z"/>
	<path class="st2" d="M245.3,49v-4h1.5c0.3,0,0.5,0,0.7,0.1s0.3,0.2,0.4,0.4c0.1,0.2,0.2,0.3,0.2,0.5s0,0.3-0.1,0.5
		c-0.1,0.1-0.2,0.3-0.4,0.4c0.2,0.1,0.4,0.2,0.6,0.4c0.1,0.2,0.2,0.4,0.2,0.6c0,0.2,0,0.4-0.1,0.5c-0.1,0.2-0.2,0.3-0.3,0.4
		c-0.1,0.1-0.3,0.2-0.4,0.2c-0.2,0-0.4,0.1-0.6,0.1h-1.7V49z M245.8,46.7h0.9c0.2,0,0.4,0,0.5,0s0.2-0.1,0.3-0.2
		c0.1-0.1,0.1-0.2,0.1-0.3s0-0.2-0.1-0.3s-0.2-0.2-0.3-0.2s-0.3-0.1-0.6-0.1h-0.8L245.8,46.7L245.8,46.7z M245.8,48.5h1
		c0.2,0,0.3,0,0.4,0c0.1,0,0.2-0.1,0.3-0.1c0.1-0.1,0.1-0.1,0.2-0.2c0.1-0.1,0.1-0.2,0.1-0.3s0-0.3-0.1-0.4
		c-0.1-0.1-0.2-0.2-0.3-0.2s-0.3-0.1-0.6-0.1h-0.9L245.8,48.5L245.8,48.5z"/>
	<path class="st2" d="M248.8,48l0.5-0.1c0.1,0.3,0.2,0.5,0.3,0.6s0.3,0.2,0.5,0.2s0.4-0.1,0.6-0.2s0.2-0.4,0.2-0.6
		c0-0.2-0.1-0.4-0.2-0.6c-0.1-0.1-0.3-0.2-0.6-0.2c-0.1,0-0.2,0-0.3,0.1l0.1-0.4h0.1c0.2,0,0.4-0.1,0.6-0.2s0.2-0.3,0.2-0.5
		s-0.1-0.3-0.2-0.4c-0.1-0.1-0.3-0.2-0.5-0.2s-0.3,0.1-0.5,0.2c-0.1,0.1-0.2,0.3-0.2,0.5l-0.5-0.1c0.1-0.3,0.2-0.6,0.4-0.8
		s0.5-0.3,0.8-0.3c0.2,0,0.4,0,0.6,0.1c0.2,0.1,0.3,0.2,0.4,0.4s0.1,0.3,0.1,0.5s0,0.3-0.1,0.5c-0.1,0.1-0.2,0.3-0.4,0.3
		c0.2,0.1,0.4,0.2,0.5,0.3c0.1,0.2,0.2,0.4,0.2,0.6c0,0.3-0.1,0.6-0.4,0.9c-0.3,0.2-0.6,0.4-1,0.4c-0.3,0-0.6-0.1-0.9-0.3
		C249,48.6,248.8,48.3,248.8,48z"/>
	<path class="st2" d="M252.2,49v-0.6h0.6V49H252.2z"/>
	<path class="st2" d="M253.6,49v-4h1.5c0.3,0,0.5,0,0.6,0c0.2,0,0.4,0.1,0.5,0.2c0.1,0.1,0.2,0.2,0.3,0.4s0.1,0.3,0.1,0.5
		c0,0.3-0.1,0.6-0.3,0.9c-0.2,0.3-0.6,0.4-1.2,0.4h-1V49H253.6z M254.1,46.9h1c0.3,0,0.6-0.1,0.7-0.2c0.1-0.1,0.2-0.3,0.2-0.5
		s0-0.3-0.1-0.4s-0.2-0.2-0.3-0.2s-0.3,0-0.5,0h-1L254.1,46.9L254.1,46.9z"/>
</g>
</svg>
