<?xml version="1.0" encoding="utf-8"?>
<!-- Generator: Adobe Illustrator 26.2.1, SVG Export Plug-In . SVG Version: 6.00 Build 0)  -->
<svg version="1.1" id="Layer_1" xmlns="http://www.w3.org/2000/svg" xmlns:xlink="http://www.w3.org/1999/xlink" x="0px" y="0px"
	 viewBox="0 0 354 185.4" style="enable-background:new 0 0 354 185.4;" xml:space="preserve">
<style type="text/css">
	.st0{fill:#0DAB76;}
	.st1{font-family:'ArialMT';}
	.st2{font-size:5.544px;}
	.st3{fill:none;stroke:#0DAB76;stroke-width:0.432;stroke-linecap:round;stroke-miterlimit:11.3386;}
	.st4{fill:#808080;}
	.st5{fill:none;stroke:#C90D0C;stroke-width:0.432;stroke-linecap:round;stroke-miterlimit:11.3386;}
	.st6{fill:none;stroke:#C90D0C;stroke-width:0.72;stroke-linecap:round;stroke-miterlimit:11.3386;}
	.st7{fill:none;stroke:#C90D0C;stroke-width:1.152;stroke-linecap:round;stroke-miterlimit:11.3386;}
	.st8{fill:none;stroke:#C90D0C;stroke-width:0.432;stroke-miterlimit:11.3386;}
	.st9{font-size:4.752px;}
	.st10{fill:none;stroke:#C90D0C;stroke-width:1.728;stroke-linecap:round;stroke-miterlimit:11.3386;}
	.st11{fill:#C90D0C;}
	.st12{fill:none;stroke:#808080;stroke-width:0.432;stroke-linecap:round;stroke-miterlimit:11.3386;}
	.st13{fill:none;stroke:#C90D0C;stroke-width:0.216;stroke-linecap:round;stroke-miterlimit:11.3386;}
	.st14{font-size:3.96px;}
</style>
<desc>generated by eagle2svg 1.2, developed by http://www.nicai-systems.de</desc>
<text transform="matrix(1 0 0 1 49.5991 105.8176)" class="st0 st1 st2">USB-MIDI</text>
<text transform="matrix(1 0 0 1 225.5162 21.7005)" class="st0 st1 st2">REPLAY</text>
<text transform="matrix(1 0 0 1 42.8794 168.5804)" class="st0 st1 st2">USB-MIDI or USB-SERIAL</text>
<line class="st3" x1="103.8" y1="89.4" x2="82.2" y2="89.4"/>
<text transform="matrix(1 0 0 1 82.2359 89.3802)" class="st4 st1 st2">3.3V</text>
<line class="st3" x1="240.6" y1="31.8" x2="247.8" y2="31.8"/>
<line class="st3" x1="247.8" y1="31.8" x2="247.8" y2="39"/>
<line class="st3" x1="60.6" y1="125.4" x2="60.6" y2="132.6"/>
<g>
	<line class="st3" x1="67.8" y1="31.8" x2="103.8" y2="31.8"/>
</g>
<g>
	<line class="st3" x1="183" y1="125.4" x2="235.2" y2="125.4"/>
</g>
<g>
	<line class="st3" x1="103.8" y1="125.4" x2="67.8" y2="125.4"/>
</g>
<g>
	<line class="st3" x1="183" y1="89.4" x2="235.2" y2="89.4"/>
</g>
<g>
	<line class="st3" x1="183" y1="132.6" x2="235.2" y2="132.6"/>
</g>
<g>
	<line class="st3" x1="183" y1="139.8" x2="233.4" y2="139.8"/>
</g>
<g>
	<line class="st3" x1="183" y1="147" x2="235.2" y2="147"/>
</g>
<g>
	<line class="st3" x1="183" y1="53.4" x2="197.4" y2="53.4"/>
	<line class="st3" x1="197.4" y1="53.4" x2="197.4" y2="31.8"/>
	<line class="st3" x1="197.4" y1="31.8" x2="211.8" y2="31.8"/>
</g>
<g>
	<line class="st3" x1="183" y1="46.2" x2="204.6" y2="46.2"/>
	<line class="st3" x1="204.6" y1="46.2" x2="204.6" y2="96.6"/>
	<line class="st3" x1="204.6" y1="96.6" x2="235.2" y2="96.6"/>
</g>
<g>
	<line class="st3" x1="67.8" y1="24.6" x2="75" y2="24.6"/>
	<line class="st3" x1="75" y1="17.4" x2="75" y2="24.6"/>
</g>
<g>
	<line class="st5" x1="60.6" y1="132.6" x2="60.6" y2="139.8"/>
	<line class="st6" x1="55.2" y1="139.8" x2="66" y2="139.8"/>
	<text transform="matrix(1 0 0 1 60.6363 146.9798)" class="st4 st1 st2">GND</text>
</g>
<g>
	<line class="st5" x1="247.8" y1="39" x2="247.8" y2="46.2"/>
	<line class="st6" x1="242.4" y1="46.2" x2="253.2" y2="46.2"/>
	<text transform="matrix(1 0 0 1 247.8365 53.3802)" class="st4 st1 st2">GND</text>
</g>
<g>
	<line class="st5" x1="53.4" y1="125.4" x2="53.4" y2="118.2"/>
	<line class="st5" x1="60.6" y1="125.4" x2="60.6" y2="118.2"/>
	<line class="st5" x1="67.8" y1="125.4" x2="67.8" y2="118.2"/>
	<line class="st5" x1="67.8" y1="118.2" x2="67.8" y2="114.6"/>
	<line class="st5" x1="60.6" y1="118.2" x2="60.6" y2="114.6"/>
	<line class="st5" x1="53.4" y1="118.2" x2="53.4" y2="114.6"/>
	<line class="st7" x1="67.8" y1="111" x2="67.8" y2="114.6"/>
	<line class="st7" x1="60.6" y1="111" x2="60.6" y2="114.6"/>
	<line class="st7" x1="53.4" y1="111" x2="53.4" y2="114.6"/>
	<line class="st7" x1="51.6" y1="118.2" x2="69.6" y2="118.2"/>
	<line class="st7" x1="69.6" y1="118.2" x2="69.6" y2="116.4"/>
	<line class="st7" x1="69.6" y1="116.4" x2="51.6" y2="116.4"/>
	<line class="st7" x1="51.6" y1="116.4" x2="51.6" y2="118.2"/>
	<text transform="matrix(1 0 0 1 65.483 119.6204)" class="st4 st1 st2">JP1</text>
</g>
<g>
	<line class="st5" x1="75" y1="17.4" x2="75" y2="10.2"/>
	<line class="st6" x1="78.6" y1="15.6" x2="75" y2="10.2"/>
	<line class="st6" x1="75" y1="10.2" x2="71.4" y2="15.6"/>
	<text transform="matrix(1 0 0 1 75.0367 6.5794)" class="st4 st1 st2">5V</text>
</g>
<g>
	<circle class="st8" cx="17.4" cy="31.8" r="11.4"/>
	<line class="st5" x1="67.8" y1="39" x2="53.4" y2="39"/>
	<text transform="matrix(1 0 0 1 40.2115 41.14)" class="st4 st1 st9">AR</text>
	<text transform="matrix(1 0 0 1 60.0601 37.972)" class="st4 st1 st9">5</text>
	<line class="st5" x1="67.8" y1="24.6" x2="53.4" y2="24.6"/>
	<text transform="matrix(1 0 0 1 35.1949 26.7396)" class="st4 st1 st9">GAIN</text>
	<text transform="matrix(1 0 0 1 60.0601 23.5716)" class="st4 st1 st9">3</text>
	<line class="st5" x1="67.8" y1="31.8" x2="53.4" y2="31.8"/>
	<text transform="matrix(1 0 0 1 36.7818 33.9408)" class="st4 st1 st9">OUT</text>
	<text transform="matrix(1 0 0 1 60.0601 30.7728)" class="st4 st1 st9">4</text>
	<line class="st7" x1="3" y1="46.2" x2="53.4" y2="46.2"/>
	<line class="st7" x1="53.4" y1="46.2" x2="53.4" y2="17.4"/>
	<line class="st7" x1="53.4" y1="17.4" x2="3" y2="17.4"/>
	<line class="st7" x1="3" y1="17.4" x2="3" y2="46.2"/>
	<text transform="matrix(1 0 0 1 3.0367 15.5794)" class="st4 st1 st2">PCB1.IO</text>
	<text transform="matrix(1 0 0 1 3.0367 53.3802)" class="st4 st1 st2">ELEC-MICR-BO</text>
</g>
<g>
	<line class="st5" x1="183" y1="147" x2="175.8" y2="147"/>
	<text transform="matrix(1 0 0 1 150.7291 149.14)" class="st4 st1 st9">!RESET!</text>
	<line class="st5" x1="103.8" y1="147" x2="111" y2="147"/>
	<text transform="matrix(1 0 0 1 117.6607 149.14)" class="st4 st1 st9">!RESET2!</text>
	<line class="st5" x1="103.8" y1="31.8" x2="111" y2="31.8"/>
	<text transform="matrix(1 0 0 1 117.6607 33.9408)" class="st4 st1 st9">A0</text>
	<line class="st5" x1="103.8" y1="39" x2="111" y2="39"/>
	<text transform="matrix(1 0 0 1 117.6607 41.14)" class="st4 st1 st9">A1</text>
	<line class="st5" x1="103.8" y1="46.2" x2="111" y2="46.2"/>
	<text transform="matrix(1 0 0 1 117.6607 48.3411)" class="st4 st1 st9">A2</text>
	<line class="st5" x1="103.8" y1="53.4" x2="111" y2="53.4"/>
	<text transform="matrix(1 0 0 1 117.6607 55.5404)" class="st4 st1 st9">A3</text>
	<line class="st5" x1="103.8" y1="60.6" x2="111" y2="60.6"/>
	<text transform="matrix(1 0 0 1 117.6607 62.7396)" class="st4 st1 st9">A4</text>
	<line class="st5" x1="103.8" y1="67.8" x2="111" y2="67.8"/>
	<text transform="matrix(1 0 0 1 117.6607 69.9408)" class="st4 st1 st9">A5</text>
	<line class="st5" x1="103.8" y1="89.4" x2="111" y2="89.4"/>
	<text transform="matrix(1 0 0 1 117.6607 91.5404)" class="st4 st1 st9">AREF</text>
	<line class="st5" x1="183" y1="17.4" x2="175.8" y2="17.4"/>
	<text transform="matrix(1 0 0 1 163.1383 19.5404)" class="st4 st1 st9">D0</text>
	<line class="st5" x1="183" y1="24.6" x2="175.8" y2="24.6"/>
	<text transform="matrix(1 0 0 1 163.1383 26.7396)" class="st4 st1 st9">D1</text>
	<line class="st5" x1="183" y1="31.8" x2="175.8" y2="31.8"/>
	<text transform="matrix(1 0 0 1 163.1383 33.9408)" class="st4 st1 st9">D2</text>
	<line class="st5" x1="183" y1="39" x2="175.8" y2="39"/>
	<text transform="matrix(1 0 0 1 163.1383 41.14)" class="st4 st1 st9">D3</text>
	<line class="st5" x1="183" y1="46.2" x2="175.8" y2="46.2"/>
	<text transform="matrix(1 0 0 1 163.1383 48.3411)" class="st4 st1 st9">D4</text>
	<line class="st5" x1="183" y1="53.4" x2="175.8" y2="53.4"/>
	<text transform="matrix(1 0 0 1 163.1383 55.5404)" class="st4 st1 st9">D5</text>
	<line class="st5" x1="183" y1="60.6" x2="175.8" y2="60.6"/>
	<text transform="matrix(1 0 0 1 163.1383 62.7396)" class="st4 st1 st9">D6</text>
	<line class="st5" x1="183" y1="67.8" x2="175.8" y2="67.8"/>
	<text transform="matrix(1 0 0 1 163.1383 69.9408)" class="st4 st1 st9">D7</text>
	<line class="st5" x1="183" y1="75" x2="175.8" y2="75"/>
	<text transform="matrix(1 0 0 1 163.1383 77.14)" class="st4 st1 st9">D8</text>
	<line class="st5" x1="183" y1="82.2" x2="175.8" y2="82.2"/>
	<text transform="matrix(1 0 0 1 163.1383 84.3411)" class="st4 st1 st9">D9</text>
	<line class="st5" x1="183" y1="89.4" x2="175.8" y2="89.4"/>
	<text transform="matrix(1 0 0 1 160.4947 91.5404)" class="st4 st1 st9">D10</text>
	<line class="st5" x1="183" y1="96.6" x2="175.8" y2="96.6"/>
	<text transform="matrix(1 0 0 1 160.8473 98.7396)" class="st4 st1 st9">D11</text>
	<line class="st5" x1="183" y1="103.8" x2="175.8" y2="103.8"/>
	<text transform="matrix(1 0 0 1 160.4947 105.9408)" class="st4 st1 st9">D12</text>
	<line class="st5" x1="183" y1="111" x2="175.8" y2="111"/>
	<text transform="matrix(1 0 0 1 160.4947 113.14)" class="st4 st1 st9">D13</text>
	<line class="st5" x1="103.8" y1="96.6" x2="111" y2="96.6"/>
	<text transform="matrix(1 0 0 1 117.6607 98.7396)" class="st4 st1 st9">IOREF</text>
	<line class="st5" x1="183" y1="132.6" x2="175.8" y2="132.6"/>
	<text transform="matrix(1 0 0 1 157.068 134.7396)" class="st4 st1 st9">MISO</text>
	<line class="st5" x1="103.8" y1="132.6" x2="111" y2="132.6"/>
	<text transform="matrix(1 0 0 1 117.6607 134.7396)" class="st4 st1 st9">MISO2</text>
	<line class="st5" x1="183" y1="125.4" x2="175.8" y2="125.4"/>
	<text transform="matrix(1 0 0 1 157.068 127.5404)" class="st4 st1 st9">MOSI</text>
	<line class="st5" x1="103.8" y1="125.4" x2="111" y2="125.4"/>
	<text transform="matrix(1 0 0 1 117.6607 127.5404)" class="st4 st1 st9">MOSI2</text>
	<line class="st5" x1="183" y1="139.8" x2="175.8" y2="139.8"/>
	<text transform="matrix(1 0 0 1 159.442 141.9408)" class="st4 st1 st9">SCK</text>
	<line class="st5" x1="103.8" y1="139.8" x2="111" y2="139.8"/>
	<text transform="matrix(1 0 0 1 117.6607 141.9408)" class="st4 st1 st9">SCK2</text>
	<line class="st5" x1="183" y1="168.6" x2="175.8" y2="168.6"/>
	<text transform="matrix(1 0 0 1 159.9684 170.7406)" class="st4 st1 st9">SCL</text>
	<line class="st5" x1="183" y1="161.4" x2="175.8" y2="161.4"/>
	<text transform="matrix(1 0 0 1 159.442 163.5404)" class="st4 st1 st9">SDA</text>
	<line class="st6" x1="111" y1="175.8" x2="111" y2="10.2"/>
	<line class="st6" x1="111" y1="10.2" x2="175.8" y2="10.2"/>
	<line class="st6" x1="175.8" y1="10.2" x2="175.8" y2="175.8"/>
	<line class="st6" x1="175.8" y1="175.8" x2="111" y2="175.8"/>
	<line class="st6" x1="132.6" y1="154.2" x2="111" y2="154.2"/>
	<line class="st6" x1="132.6" y1="154.2" x2="132.6" y2="175.8"/>
	<line class="st10" x1="128.3" y1="163.2" x2="131.9" y2="163.2"/>
	<line class="st10" x1="128.3" y1="170.4" x2="131.9" y2="170.4"/>
	<line class="st10" x1="128.3" y1="166.8" x2="131.9" y2="166.8"/>
	<line class="st10" x1="128.3" y1="159.6" x2="131.9" y2="159.6"/>
	<text transform="matrix(6.123234e-17 -1 1 6.123234e-17 123.275 172.179)" class="st11 st1 st2">USB</text>
	<path class="st12" d="M112.7,7.8V3.2 M112.7,3.2h2.3 M115,3.2l0.8,0.8 M115.8,4v1.5 M115.8,5.5L115,6.3 M115,6.3h-2.3 M120.4,4
		l-0.8-0.8 M119.6,3.2h-1.5 M118.1,3.2L117.3,4 M117.3,4V7 M117.3,7l0.8,0.8 M118.1,7.8h1.5 M119.6,7.8l0.8-0.8 M122,7.8V3.2
		 M122,3.2h2.3 M124.3,3.2L125,4 M125,4v0.8 M125,4.7l-0.8,0.8 M124.3,5.5l0.8,0.8 M125,6.3V7 M125,7l-0.8,0.8 M124.3,7.8H122
		 M122,5.5h2.3 M129.7,7.8h-3.1 M126.6,7.8l3.1-3.1 M129.7,4.7V4 M129.7,4l-0.8-0.8 M128.9,3.2h-1.5 M127.4,3.2L126.6,4 M131.3,7.8
		V7 M131.3,7h0.8 M132,7v0.8 M132,7.8h-0.8 M133.6,7.8h1.5 M134.3,7.8V3.2 M133.6,3.2h1.5 M139,3.2h-1.5 M137.4,3.2L136.7,4
		 M136.7,4V7 M136.7,7l0.8,0.8 M137.4,7.8h1.5 M139,7.8l0.8-0.8 M139.7,7V4 M139.7,4L139,3.2"/>
	<path class="st12" d="M111.3,183.5v-3.1 M111.3,180.4l1.5-1.5 M112.8,178.9l1.5,1.5 M114.3,180.4v3.1 M111.3,181.2h3.1
		 M115.9,183.5v-4.6 M115.9,178.9h2.3 M118.2,178.9l0.8,0.8 M119,179.6v1.5 M119,181.2l-0.8,0.8 M118.2,181.9h-2.3 M117.4,181.9
		l1.5,1.5 M120.5,178.9v4.6 M120.5,183.5h2.3 M122.8,183.5l0.8-0.8 M123.6,182.7v-3.1 M123.6,179.6l-0.8-0.8 M122.8,178.9h-2.3
		 M125.2,178.9v3.8 M125.2,182.7l0.8,0.8 M125.9,183.5h1.5 M127.5,183.5l0.8-0.8 M128.2,182.7v-3.8 M129.8,183.5h1.5 M130.6,183.5
		v-4.6 M129.8,178.9h1.5 M132.9,183.5v-4.6 M132.9,178.9l3.1,4.6 M136,183.5v-4.6 M139.9,178.9h-1.5 M138.3,178.9l-0.8,0.8
		 M137.5,179.6v3.1 M137.5,182.7l0.8,0.8 M138.3,183.5h1.5 M139.9,183.5l0.8-0.8 M140.6,182.7v-3.1 M140.6,179.6l-0.8-0.8
		 M142.2,181.2h3.1 M146.8,178.9v3.8 M146.8,182.7l0.8,0.8 M147.6,183.5h1.5 M149.1,183.5l0.8-0.8 M149.9,182.7v-3.8 M151.5,183.5
		v-4.6 M151.5,178.9l3.1,4.6 M154.5,183.5v-4.6 M158.4,178.9h-1.5 M156.9,178.9l-0.8,0.8 M156.1,179.6v3.1 M156.1,182.7l0.8,0.8
		 M156.9,183.5h1.5 M158.4,183.5l0.8-0.8 M159.2,182.7v-3.1 M159.2,179.6l-0.8-0.8 M160.8,181.2h3.1 M165.4,183.5v-4.6 M165.4,178.9
		h2.3 M167.7,178.9l0.8,0.8 M168.5,179.6v1.5 M168.5,181.2l-0.8,0.8 M167.7,181.9h-2.3 M166.9,181.9l1.5,1.5 M170,179.6l0.8-0.8
		 M170.8,178.9h1.5 M172.3,178.9l0.8,0.8 M173.1,179.6v0.8 M173.1,180.4l-0.8,0.8 M172.3,181.2h-0.8 M172.3,181.2l0.8,0.8
		 M173.1,181.9v0.8 M173.1,182.7l-0.8,0.8 M172.3,183.5h-1.5 M170.8,183.5l-0.8-0.8"/>
</g>
<line class="st5" x1="235.2" y1="147" x2="249.6" y2="147"/>
<text transform="matrix(1 0 0 1 256.2603 149.14)" class="st4 st1 st9">!RESET!</text>
<text transform="matrix(1 0 0 1 220.0367 145.972)" class="st4 st1 st9">!RESET!*2</text>
<line class="st5" x1="235.2" y1="96.6" x2="249.6" y2="96.6"/>
<text transform="matrix(1 0 0 1 256.2603 98.7396)" class="st4 st1 st9">CARD_CS</text>
<text transform="matrix(1 0 0 1 236.9381 95.5716)" class="st4 st1 st9">D4</text>
<line class="st5" x1="235.2" y1="132.6" x2="249.6" y2="132.6"/>
<text transform="matrix(1 0 0 1 256.2603 134.7396)" class="st4 st1 st9">MISO</text>
<text transform="matrix(1 0 0 1 230.8678 131.5716)" class="st4 st1 st9">MISO</text>
<line class="st5" x1="235.2" y1="125.4" x2="249.6" y2="125.4"/>
<text transform="matrix(1 0 0 1 256.2603 127.5404)" class="st4 st1 st9">MOSI</text>
<text transform="matrix(1 0 0 1 230.8678 124.3724)" class="st4 st1 st9">MOSI</text>
<line class="st5" x1="235.2" y1="139.8" x2="249.6" y2="139.8"/>
<text transform="matrix(1 0 0 1 256.2603 141.9408)" class="st4 st1 st9">SCK</text>
<text transform="matrix(1 0 0 1 233.2418 138.7728)" class="st4 st1 st9">SCK</text>
<line class="st5" x1="235.2" y1="118.2" x2="249.6" y2="118.2"/>
<text transform="matrix(1 0 0 1 256.2603 120.3411)" class="st4 st1 st9">SCL</text>
<text transform="matrix(1 0 0 1 233.7682 117.1732)" class="st4 st1 st9">SCL</text>
<line class="st5" x1="235.2" y1="111" x2="249.6" y2="111"/>
<text transform="matrix(1 0 0 1 256.2603 113.14)" class="st4 st1 st9">SDA</text>
<text transform="matrix(1 0 0 1 233.2418 109.972)" class="st4 st1 st9">SDA</text>
<line class="st5" x1="235.2" y1="89.4" x2="249.6" y2="89.4"/>
<text transform="matrix(1 0 0 1 256.2603 91.5404)" class="st4 st1 st9">TFT_CS</text>
<text transform="matrix(1 0 0 1 234.2945 88.3724)" class="st4 st1 st9">D10</text>
<line class="st6" x1="350.4" y1="82.2" x2="350.4" y2="154.2"/>
<line class="st6" x1="350.4" y1="154.2" x2="249.6" y2="154.2"/>
<line class="st6" x1="249.6" y1="82.2" x2="350.4" y2="82.2"/>
<line class="st6" x1="249.6" y1="82.2" x2="249.6" y2="154.2"/>
<line class="st13" x1="346.8" y1="85.8" x2="292.8" y2="85.8"/>
<line class="st13" x1="292.8" y1="85.8" x2="292.8" y2="129"/>
<line class="st13" x1="292.8" y1="129" x2="346.8" y2="129"/>
<line class="st13" x1="346.8" y1="129" x2="346.8" y2="85.8"/>
<line class="st13" x1="308.1" y1="135.3" x2="308.1" y2="149.7"/>
<path class="st13" d="M308.1,149.7c0,0.5,0.4,0.9,0.9,0.9l0,0"/>
<line class="st13" x1="309" y1="150.6" x2="314.4" y2="150.6"/>
<path class="st13" d="M314.4,150.6c0.5,0,0.9-0.4,0.9-0.9"/>
<path class="st13" d="M316.2,148.8c-0.5,0-0.9,0.4-0.9,0.9v0"/>
<line class="st13" x1="316.2" y1="148.8" x2="318" y2="148.8"/>
<path class="st13" d="M318.9,149.7c0-0.5-0.4-0.9-0.9-0.9"/>
<path class="st13" d="M318.9,149.7c0,0.5,0.4,0.9,0.9,0.9l0,0"/>
<path class="st13" d="M331.5,147.9c0.5,0,0.9-0.4,0.9-0.9"/>
<line class="st13" x1="332.4" y1="147" x2="332.4" y2="135.3"/>
<path class="st13" d="M332.4,135.3c0-0.5-0.4-0.9-0.9-0.9"/>
<line class="st13" x1="331.5" y1="134.4" x2="309" y2="134.4"/>
<path class="st13" d="M309,134.4c-0.5,0-0.9,0.4-0.9,0.9v0"/>
<line class="st13" x1="321.6" y1="150.6" x2="324.3" y2="147.9"/>
<line class="st13" x1="324.3" y1="147.9" x2="331.5" y2="147.9"/>
<line class="st13" x1="319.8" y1="150.6" x2="321.6" y2="150.6"/>
<text transform="matrix(1 0 0 1 315.3365 145.181)" class="st11 st1 st2">SD</text>
<text transform="matrix(1 0 0 1 303.6562 108.2806)" class="st11 st1 st2">TFT DISPLAY</text>
<text transform="matrix(1 0 0 1 249.6363 160.3001)" class="st4 st1 st2">ARDUINO-SHIELD-SD7735-SD</text>
<text transform="matrix(1 0 0 1 249.6363 81.1009)" class="st4 st1 st2">PCB3.IO</text>
<g>
	<line class="st5" x1="211.8" y1="31.8" x2="219" y2="31.8"/>
	<line class="st5" x1="240.6" y1="31.8" x2="233.4" y2="31.8"/>
	<line class="st6" x1="219" y1="28.2" x2="226.2" y2="28.2"/>
	<line class="st6" x1="226.2" y1="28.2" x2="233.4" y2="28.2"/>
	<line class="st6" x1="224.4" y1="25.3" x2="226.2" y2="25.3"/>
	<line class="st6" x1="226.2" y1="25.3" x2="228" y2="25.3"/>
	<line class="st6" x1="226.2" y1="28.2" x2="226.2" y2="25.3"/>
	<text transform="matrix(1 0 0 1 219.0309 38.9701)" class="st4 st1 st14">SW1</text>
	<text transform="matrix(1 0 0 1 219.0309 43.3099)" class="st4 st1 st14">PUSH-BTN</text>
</g>
</svg>
