<?xml version="1.0" encoding="utf-8"?>
<!-- Generator: Adobe Illustrator 26.3.1, SVG Export Plug-In . SVG Version: 6.00 Build 0)  -->
<svg version="1.1" id="Layer_1" xmlns="http://www.w3.org/2000/svg" xmlns:xlink="http://www.w3.org/1999/xlink" x="0px" y="0px"
	 viewBox="0 0 370.4 301.3" style="enable-background:new 0 0 370.4 301.3;" xml:space="preserve">
<style type="text/css">
	.st0{fill:#0DAB76;}
	.st1{font-family:'ArialMT';}
	.st2{font-size:5.544px;}
	.st3{font-size:3.96px;}
	.st4{fill:none;stroke:#0DAB76;stroke-width:0.432;stroke-linecap:round;stroke-miterlimit:11.3386;}
	.st5{fill:#808080;}
	.st6{fill:none;stroke:#C90D0C;stroke-width:0.432;stroke-linecap:round;stroke-miterlimit:11.3386;}
	.st7{fill:none;stroke:#C90D0C;stroke-width:0.72;stroke-linecap:round;stroke-miterlimit:11.3386;}
	.st8{fill:none;stroke:#C90D0C;stroke-width:1.152;stroke-linecap:round;stroke-miterlimit:11.3386;}
	.st9{fill:#C90D0C;}
	.st10{fill:none;stroke:#C90D0C;stroke-width:0.432;stroke-miterlimit:11.3386;}
	.st11{font-size:4.752px;}
	.st12{font-size:3.168px;}
	.st13{fill:none;stroke:#C90D0C;stroke-width:1.728;stroke-linecap:round;stroke-miterlimit:11.3386;}
	.st14{fill:none;stroke:#808080;stroke-width:0.432;stroke-linecap:round;stroke-miterlimit:11.3386;}
	.st15{fill:none;stroke:#C90D0C;stroke-width:0.216;stroke-linecap:round;stroke-miterlimit:11.3386;}
</style>
<text transform="matrix(1 0 0 1 69.8399 219.6579)" class="st0 st1 st2">USB-MIDI</text>
<text transform="matrix(6.123234e-17 -1 1 6.123234e-17 318.9599 155.5778)" class="st0 st1 st3">REPLAY</text>
<text transform="matrix(1 0 0 1 61.9334 284.4577)" class="st0 st1 st2">USB-MIDI or USB-SERIAL</text>
<text transform="matrix(6.123234e-17 -1 1 6.123234e-17 339.3899 131.4569)" class="st0 st1 st3">CLIP</text>
<text transform="matrix(1 0 0 1 257.6441 163.4977)" class="st0 st1 st3">SHIFT</text>
<g>
	<line class="st4" x1="120.2" y1="205.3" x2="98.6" y2="205.3"/>
	<text transform="matrix(1 0 0 1 98.6405 205.2575)" class="st5 st1 st2">3.3V</text>
	<line class="st4" x1="84.2" y1="46.9" x2="105.8" y2="46.9"/>
	<text transform="matrix(1 0 0 1 105.8407 46.8571)" class="st5 st1 st2">3.3V</text>
</g>
<g>
	<line class="st4" x1="84.2" y1="32.5" x2="91.4" y2="32.5"/>
	<line class="st4" x1="91.4" y1="32.5" x2="91.4" y2="18.1"/>
	<line class="st4" x1="134.6" y1="18.1" x2="134.6" y2="25.3"/>
	<line class="st4" x1="170.6" y1="18.1" x2="170.6" y2="25.3"/>
</g>
<g>
	<line class="st4" x1="84.2" y1="147.7" x2="120.2" y2="147.7"/>
</g>
<g>
	<line class="st4" x1="199.4" y1="183.7" x2="206.6" y2="183.7"/>
	<text transform="matrix(1 0 0 1 199.4403 183.6579)" class="st5 st1 st2">D7</text>
	<line class="st4" x1="329" y1="140.5" x2="329" y2="104.5"/>
	<text transform="matrix(1 0 0 1 321.954 109.4977)" class="st5 st1 st2">D7</text>
</g>
<g>
	<line class="st4" x1="350.6" y1="111.7" x2="350.6" y2="104.5"/>
	<text transform="matrix(1 0 0 1 343.5536 109.4977)" class="st5 st1 st2">D8</text>
	<line class="st4" x1="199.4" y1="190.9" x2="206.6" y2="190.9"/>
	<text transform="matrix(1 0 0 1 199.4403 190.8571)" class="st5 st1 st2">D8</text>
</g>
<g>
	<line class="st4" x1="170.6" y1="68.5" x2="170.6" y2="75.7"/>
	<line class="st4" x1="134.6" y1="68.5" x2="134.6" y2="75.7"/>
	<line class="st4" x1="91.4" y1="75.7" x2="91.4" y2="61.3"/>
	<line class="st4" x1="91.4" y1="61.3" x2="84.2" y2="61.3"/>
	<line class="st4" x1="350.6" y1="169.3" x2="350.6" y2="176.5"/>
	<line class="st4" x1="77" y1="241.3" x2="77" y2="248.5"/>
	<line class="st4" x1="84.2" y1="140.5" x2="91.4" y2="140.5"/>
	<line class="st4" x1="91.4" y1="140.5" x2="91.4" y2="169.3"/>
	<line class="st4" x1="329" y1="169.3" x2="329" y2="176.5"/>
	<line class="st4" x1="285.8" y1="162.1" x2="300.2" y2="162.1"/>
	<line class="st4" x1="300.2" y1="162.1" x2="300.2" y2="176.5"/>
</g>
<g>
	<line class="st4" x1="199.4" y1="147.7" x2="242.6" y2="147.7"/>
</g>
<g>
	<line class="st4" x1="199.4" y1="241.3" x2="251.6" y2="241.3"/>
</g>
<g>
	<line class="st4" x1="84.2" y1="241.3" x2="84.2" y2="248.5"/>
	<line class="st4" x1="84.2" y1="248.5" x2="120.2" y2="248.5"/>
</g>
<g>
	<line class="st4" x1="199.4" y1="205.3" x2="251.6" y2="205.3"/>
</g>
<g>
	<line class="st4" x1="199.4" y1="248.5" x2="251.6" y2="248.5"/>
</g>
<g>
	<line class="st4" x1="199.4" y1="255.7" x2="249.8" y2="255.7"/>
</g>
<g>
	<line class="st4" x1="199.4" y1="262.9" x2="251.6" y2="262.9"/>
</g>
<g>
	<line class="st4" x1="350.6" y1="133.3" x2="350.6" y2="140.5"/>
</g>
<g>
	<line class="st4" x1="199.4" y1="162.1" x2="213.8" y2="162.1"/>
	<line class="st4" x1="213.8" y1="162.1" x2="213.8" y2="212.5"/>
	<line class="st4" x1="213.8" y1="212.5" x2="251.6" y2="212.5"/>
</g>
<g>
	<line class="st4" x1="199.4" y1="154.9" x2="242.6" y2="154.9"/>
</g>
<g>
	<line class="st4" x1="199.4" y1="169.3" x2="228.2" y2="169.3"/>
	<line class="st4" x1="228.2" y1="169.3" x2="228.2" y2="162.1"/>
	<line class="st4" x1="228.2" y1="162.1" x2="242.6" y2="162.1"/>
</g>
<g>
	<line class="st4" x1="199.4" y1="176.5" x2="235.4" y2="176.5"/>
	<line class="st4" x1="235.4" y1="176.5" x2="235.4" y2="169.3"/>
	<line class="st4" x1="235.4" y1="169.3" x2="242.6" y2="169.3"/>
</g>
<g>
	<line class="st6" x1="170.6" y1="75.7" x2="170.6" y2="82.9"/>
	<line class="st7" x1="165.2" y1="82.9" x2="176" y2="82.9"/>
	<text transform="matrix(1 0 0 1 170.6405 90.0583)" class="st5 st1 st2">GND</text>
</g>
<g>
	<line class="st6" x1="91.4" y1="75.7" x2="91.4" y2="82.9"/>
	<line class="st7" x1="86" y1="82.9" x2="96.8" y2="82.9"/>
	<text transform="matrix(1 0 0 1 91.4403 90.0583)" class="st5 st1 st2">GND</text>
</g>
<g>
	<line class="st6" x1="134.6" y1="75.7" x2="134.6" y2="82.9"/>
	<line class="st7" x1="129.2" y1="82.9" x2="140" y2="82.9"/>
	<text transform="matrix(1 0 0 1 134.6405 90.0583)" class="st5 st1 st2">GND</text>
</g>
<g>
	<line class="st6" x1="91.4" y1="169.3" x2="91.4" y2="176.5"/>
	<line class="st7" x1="86" y1="176.5" x2="96.8" y2="176.5"/>
	<text transform="matrix(1 0 0 1 91.4403 183.6579)" class="st5 st1 st2">GND</text>
</g>
<g>
	<line class="st6" x1="77" y1="248.5" x2="77" y2="255.7"/>
	<line class="st7" x1="71.6" y1="255.7" x2="82.4" y2="255.7"/>
	<text transform="matrix(1 0 0 1 77.0409 262.8571)" class="st5 st1 st2">GND</text>
</g>
<g>
	<line class="st6" x1="350.6" y1="176.5" x2="350.6" y2="183.7"/>
	<line class="st7" x1="345.2" y1="183.7" x2="356" y2="183.7"/>
	<text transform="matrix(1 0 0 1 350.6405 190.8571)" class="st5 st1 st2">GND</text>
</g>
<g>
	<line class="st6" x1="329" y1="176.5" x2="329" y2="183.7"/>
	<line class="st7" x1="323.6" y1="183.7" x2="334.4" y2="183.7"/>
	<text transform="matrix(1 0 0 1 329.0409 190.8571)" class="st5 st1 st2">GND</text>
</g>
<g>
	<line class="st6" x1="300.2" y1="176.5" x2="300.2" y2="183.7"/>
	<line class="st7" x1="294.8" y1="183.7" x2="305.6" y2="183.7"/>
	<text transform="matrix(1 0 0 1 300.2401 190.8571)" class="st5 st1 st2">GND</text>
</g>
<g>
	<line class="st6" x1="69.8" y1="241.3" x2="69.8" y2="234.1"/>
	<line class="st6" x1="77" y1="241.3" x2="77" y2="234.1"/>
	<line class="st6" x1="84.2" y1="241.3" x2="84.2" y2="234.1"/>
	<line class="st6" x1="84.2" y1="234.1" x2="84.2" y2="230.5"/>
	<line class="st6" x1="77" y1="234.1" x2="77" y2="230.5"/>
	<line class="st6" x1="69.8" y1="234.1" x2="69.8" y2="230.5"/>
	<line class="st8" x1="84.2" y1="226.9" x2="84.2" y2="230.5"/>
	<line class="st8" x1="77" y1="226.9" x2="77" y2="230.5"/>
	<line class="st8" x1="69.8" y1="226.9" x2="69.8" y2="230.5"/>
	<line class="st8" x1="68" y1="234.1" x2="86" y2="234.1"/>
	<line class="st8" x1="86" y1="234.1" x2="86" y2="232.3"/>
	<line class="st8" x1="86" y1="232.3" x2="68" y2="232.3"/>
	<line class="st8" x1="68" y1="232.3" x2="68" y2="234.1"/>
	<text transform="matrix(1 0 0 1 87.8399 235.4977)" class="st5 st1 st2">JP1</text>
</g>
<polygon class="st9" points="340.9,125 342,122.5 343.4,123.9 "/>
<polygon class="st9" points="341.3,128.2 342.4,125.7 343.8,127.1 "/>
<line class="st6" x1="350.6" y1="111.7" x2="350.6" y2="118.9"/>
<line class="st6" x1="350.6" y1="133.3" x2="350.6" y2="126.1"/>
<line class="st7" x1="354.2" y1="118.9" x2="350.6" y2="126.1"/>
<line class="st7" x1="350.6" y1="126.1" x2="347" y2="118.9"/>
<line class="st7" x1="354.2" y1="126.1" x2="350.6" y2="126.1"/>
<line class="st7" x1="350.6" y1="126.1" x2="347" y2="126.1"/>
<line class="st7" x1="354.2" y1="118.9" x2="350.6" y2="118.9"/>
<line class="st7" x1="350.6" y1="118.9" x2="347" y2="118.9"/>
<line class="st6" x1="344.9" y1="121" x2="340.9" y2="125"/>
<line class="st6" x1="345.2" y1="124.3" x2="341.3" y2="128.2"/>
<text transform="matrix(6.123234e-17 -1 1 6.123234e-17 359.1452 131.8161)" class="st5 st1 st3">LED1</text>
<text transform="matrix(6.123234e-17 -1 1 6.123234e-17 363.2397 131.8161)" class="st5 st1 st3">AMBER</text>
<g>
	<line class="st6" x1="91.4" y1="18.1" x2="91.4" y2="10.9"/>
	<line class="st7" x1="95" y1="16.3" x2="91.4" y2="10.9"/>
	<line class="st7" x1="91.4" y1="10.9" x2="87.8" y2="16.3"/>
	<text transform="matrix(1 0 0 1 91.4403 7.2575)" class="st5 st1 st2">5V</text>
</g>
<g>
	<line class="st6" x1="170.6" y1="18.1" x2="170.6" y2="10.9"/>
	<line class="st7" x1="174.2" y1="16.3" x2="170.6" y2="10.9"/>
	<line class="st7" x1="170.6" y1="10.9" x2="167" y2="16.3"/>
	<text transform="matrix(1 0 0 1 170.6405 7.2575)" class="st5 st1 st2">5V</text>
</g>
<g>
	<line class="st6" x1="134.6" y1="18.1" x2="134.6" y2="10.9"/>
	<line class="st7" x1="138.2" y1="16.3" x2="134.6" y2="10.9"/>
	<line class="st7" x1="134.6" y1="10.9" x2="131" y2="16.3"/>
	<text transform="matrix(1 0 0 1 134.6405 7.2575)" class="st5 st1 st2">5V</text>
</g>
<g>
	<circle class="st10" cx="33.8" cy="147.7" r="11.4"/>
	<line class="st6" x1="84.2" y1="154.9" x2="69.8" y2="154.9"/>
	<text transform="matrix(1 0 0 1 56.6151 157.0173)" class="st5 st1 st11">AR</text>
	<text transform="matrix(1 0 0 1 76.4648 153.8493)" class="st5 st1 st11">1</text>
	<line class="st6" x1="84.2" y1="140.5" x2="69.8" y2="140.5"/>
	<text transform="matrix(1 0 0 1 51.5985 142.6169)" class="st5 st1 st11">GAIN</text>
	<text transform="matrix(1 0 0 1 76.4648 139.4489)" class="st5 st1 st11">3</text>
	<line class="st6" x1="84.2" y1="147.7" x2="69.8" y2="147.7"/>
	<text transform="matrix(1 0 0 1 53.1855 149.8181)" class="st5 st1 st11">OUT</text>
	<text transform="matrix(1 0 0 1 76.4648 146.6501)" class="st5 st1 st11">2</text>
	<line class="st8" x1="19.4" y1="162.1" x2="69.8" y2="162.1"/>
	<line class="st8" x1="69.8" y1="162.1" x2="69.8" y2="133.3"/>
	<line class="st8" x1="69.8" y1="133.3" x2="19.4" y2="133.3"/>
	<line class="st8" x1="19.4" y1="133.3" x2="19.4" y2="162.1"/>
	<text transform="matrix(1 0 0 1 19.4403 131.4567)" class="st5 st1 st2">PCB1.IO</text>
	<text transform="matrix(1 0 0 1 19.4403 169.2575)" class="st5 st1 st2">ELEC-MICR-BO</text>
</g>
<line class="st6" x1="134.6" y1="25.3" x2="134.6" y2="39.7"/>
<text transform="matrix(6.123234e-17 -1 1 6.123234e-17 133.6317 33.0329)" class="st5 st1 st11">4</text>
<line class="st6" x1="134.6" y1="68.5" x2="134.6" y2="54.1"/>
<text transform="matrix(6.123234e-17 -1 1 6.123234e-17 133.6317 67.8161)" class="st5 st1 st11">5*3</text>
<text transform="matrix(6.123234e-17 -1 1 6.123234e-17 138.9599 54.0563)" class="st5 st1 st12">GND</text>
<text transform="matrix(6.123234e-17 -1 1 6.123234e-17 138.9599 39.6579)" class="st5 st1 st12">5V</text>
<text transform="matrix(1 0 0 1 126.2685 49.0173)" class="st5 st1 st2">PCB1.P</text>
<g>
	<line class="st6" x1="199.4" y1="262.9" x2="192.2" y2="262.9"/>
	<text transform="matrix(1 0 0 1 168.6051 265.0173)" class="st5 st1 st11">!RESET</text>
	<line class="st6" x1="120.2" y1="262.9" x2="127.4" y2="262.9"/>
	<text transform="matrix(1 0 0 1 134.0644 265.0173)" class="st5 st1 st11">!RESET2</text>
	<line class="st6" x1="120.2" y1="147.7" x2="127.4" y2="147.7"/>
	<text transform="matrix(1 0 0 1 134.0644 149.8181)" class="st5 st1 st11">A0</text>
	<line class="st6" x1="120.2" y1="154.9" x2="127.4" y2="154.9"/>
	<text transform="matrix(1 0 0 1 134.0644 157.0173)" class="st5 st1 st11">A1</text>
	<line class="st6" x1="120.2" y1="162.1" x2="127.4" y2="162.1"/>
	<text transform="matrix(1 0 0 1 134.0644 164.2184)" class="st5 st1 st11">A2</text>
	<line class="st6" x1="120.2" y1="169.3" x2="127.4" y2="169.3"/>
	<text transform="matrix(1 0 0 1 134.0644 171.4177)" class="st5 st1 st11">A3</text>
	<line class="st6" x1="120.2" y1="176.5" x2="127.4" y2="176.5"/>
	<text transform="matrix(1 0 0 1 134.0644 178.6169)" class="st5 st1 st11">A4</text>
	<line class="st6" x1="120.2" y1="183.7" x2="127.4" y2="183.7"/>
	<text transform="matrix(1 0 0 1 134.0644 185.8181)" class="st5 st1 st11">A5</text>
	<line class="st6" x1="120.2" y1="205.3" x2="127.4" y2="205.3"/>
	<text transform="matrix(1 0 0 1 134.0644 207.4177)" class="st5 st1 st11">AREF</text>
	<line class="st6" x1="199.4" y1="133.3" x2="192.2" y2="133.3"/>
	<text transform="matrix(1 0 0 1 179.5419 135.4177)" class="st5 st1 st11">D0</text>
	<line class="st6" x1="199.4" y1="140.5" x2="192.2" y2="140.5"/>
	<text transform="matrix(1 0 0 1 179.5419 142.6169)" class="st5 st1 st11">D1</text>
	<line class="st6" x1="199.4" y1="147.7" x2="192.2" y2="147.7"/>
	<text transform="matrix(1 0 0 1 179.5419 149.8181)" class="st5 st1 st11">D2</text>
	<line class="st6" x1="199.4" y1="154.9" x2="192.2" y2="154.9"/>
	<text transform="matrix(1 0 0 1 179.5419 157.0173)" class="st5 st1 st11">D3</text>
	<line class="st6" x1="199.4" y1="162.1" x2="192.2" y2="162.1"/>
	<text transform="matrix(1 0 0 1 179.5419 164.2184)" class="st5 st1 st11">D4</text>
	<line class="st6" x1="199.4" y1="169.3" x2="192.2" y2="169.3"/>
	<text transform="matrix(1 0 0 1 179.5419 171.4177)" class="st5 st1 st11">D5</text>
	<line class="st6" x1="199.4" y1="176.5" x2="192.2" y2="176.5"/>
	<text transform="matrix(1 0 0 1 179.5419 178.6169)" class="st5 st1 st11">D6</text>
	<line class="st6" x1="199.4" y1="183.7" x2="192.2" y2="183.7"/>
	<text transform="matrix(1 0 0 1 179.5419 185.8181)" class="st5 st1 st11">D7</text>
	<line class="st6" x1="199.4" y1="190.9" x2="192.2" y2="190.9"/>
	<text transform="matrix(1 0 0 1 179.5419 193.0173)" class="st5 st1 st11">D8</text>
	<line class="st6" x1="199.4" y1="198.1" x2="192.2" y2="198.1"/>
	<text transform="matrix(1 0 0 1 179.5419 200.2184)" class="st5 st1 st11">D9</text>
	<line class="st6" x1="199.4" y1="205.3" x2="192.2" y2="205.3"/>
	<text transform="matrix(1 0 0 1 176.8993 207.4177)" class="st5 st1 st11">D10</text>
	<line class="st6" x1="199.4" y1="212.5" x2="192.2" y2="212.5"/>
	<text transform="matrix(1 0 0 1 177.2519 214.6169)" class="st5 st1 st11">D11</text>
	<line class="st6" x1="199.4" y1="219.7" x2="192.2" y2="219.7"/>
	<text transform="matrix(1 0 0 1 176.8993 221.8181)" class="st5 st1 st11">D12</text>
	<line class="st6" x1="199.4" y1="226.9" x2="192.2" y2="226.9"/>
	<text transform="matrix(1 0 0 1 176.8993 229.0173)" class="st5 st1 st11">D13</text>
	<line class="st6" x1="120.2" y1="212.5" x2="127.4" y2="212.5"/>
	<text transform="matrix(1 0 0 1 134.0644 214.6169)" class="st5 st1 st11">IOREF</text>
	<line class="st6" x1="199.4" y1="248.5" x2="192.2" y2="248.5"/>
	<text transform="matrix(1 0 0 1 173.4716 250.6169)" class="st5 st1 st11">MISO</text>
	<line class="st6" x1="120.2" y1="248.5" x2="127.4" y2="248.5"/>
	<text transform="matrix(1 0 0 1 134.0644 250.6169)" class="st5 st1 st11">MISO2</text>
	<line class="st6" x1="199.4" y1="241.3" x2="192.2" y2="241.3"/>
	<text transform="matrix(1 0 0 1 173.4716 243.4177)" class="st5 st1 st11">MOSI</text>
	<line class="st6" x1="120.2" y1="241.3" x2="127.4" y2="241.3"/>
	<text transform="matrix(1 0 0 1 134.0644 243.4177)" class="st5 st1 st11">MOSI2</text>
	<line class="st6" x1="199.4" y1="255.7" x2="192.2" y2="255.7"/>
	<text transform="matrix(1 0 0 1 175.8456 257.8181)" class="st5 st1 st11">SCK</text>
	<line class="st6" x1="120.2" y1="255.7" x2="127.4" y2="255.7"/>
	<text transform="matrix(1 0 0 1 134.0644 257.8181)" class="st5 st1 st11">SCK2</text>
	<line class="st6" x1="199.4" y1="284.5" x2="192.2" y2="284.5"/>
	<text transform="matrix(1 0 0 1 176.372 286.6179)" class="st5 st1 st11">SCL</text>
	<line class="st6" x1="199.4" y1="277.3" x2="192.2" y2="277.3"/>
	<text transform="matrix(1 0 0 1 175.8456 279.4177)" class="st5 st1 st11">SDA</text>
	<line class="st7" x1="127.4" y1="291.7" x2="127.4" y2="126.1"/>
	<line class="st7" x1="127.4" y1="126.1" x2="192.2" y2="126.1"/>
	<line class="st7" x1="192.2" y1="126.1" x2="192.2" y2="291.7"/>
	<line class="st7" x1="192.2" y1="291.7" x2="127.4" y2="291.7"/>
	<line class="st7" x1="149" y1="270.1" x2="127.4" y2="270.1"/>
	<line class="st7" x1="149" y1="270.1" x2="149" y2="291.7"/>
	<line class="st13" x1="144.7" y1="279.1" x2="148.3" y2="279.1"/>
	<line class="st13" x1="144.7" y1="286.3" x2="148.3" y2="286.3"/>
	<line class="st13" x1="144.7" y1="282.7" x2="148.3" y2="282.7"/>
	<line class="st13" x1="144.7" y1="275.5" x2="148.3" y2="275.5"/>
	<text transform="matrix(6.123234e-17 -1 1 6.123234e-17 139.6806 288.0563)" class="st9 st1 st2">USB</text>
	<path class="st14" d="M129.1,123.7v-4.6 M129.1,119.1h2.3 M131.4,119.1l0.8,0.8 M132.2,119.8v1.5 M132.2,121.4l-0.8,0.8
		 M131.4,122.1h-2.3 M136.8,119.8l-0.8-0.8 M136,119.1h-1.5 M134.5,119.1l-0.8,0.8 M133.7,119.8v3.1 M133.7,122.9l0.8,0.8
		 M134.5,123.7h1.5 M136,123.7l0.8-0.8 M138.4,123.7v-4.6 M138.4,119.1h2.3 M140.7,119.1l0.8,0.8 M141.5,119.8v0.8 M141.5,120.6
		l-0.8,0.8 M140.7,121.4l0.8,0.8 M141.5,122.1v0.8 M141.5,122.9l-0.8,0.8 M140.7,123.7h-2.3 M138.4,121.4h2.3 M146.1,123.7H143
		 M143,123.7l3.1-3.1 M146.1,120.6v-0.8 M146.1,119.8l-0.8-0.8 M145.3,119.1h-1.5 M143.8,119.1l-0.8,0.8 M147.7,123.7v-0.8
		 M147.7,122.9h0.8 M148.4,122.9v0.8 M148.4,123.7h-0.8 M150,123.7h1.5 M150.7,123.7v-4.6 M150,119.1h1.5 M155.4,119.1h-1.5
		 M153.8,119.1l-0.8,0.8 M153.1,119.8v3.1 M153.1,122.9l0.8,0.8 M153.8,123.7h1.5 M155.4,123.7l0.8-0.8 M156.1,122.9v-3.1
		 M156.1,119.8l-0.8-0.8"/>
	<path class="st14" d="M127.7,299.4v-3.1 M127.7,296.3l1.5-1.5 M129.2,294.7l1.5,1.5 M130.7,296.3v3.1 M127.7,297.1h3.1
		 M132.3,299.4v-4.6 M132.3,294.7h2.3 M134.6,294.7l0.8,0.8 M135.4,295.5v1.5 M135.4,297.1l-0.8,0.8 M134.6,297.8h-2.3 M133.8,297.8
		l1.5,1.5 M136.9,294.7v4.6 M136.9,299.4h2.3 M139.2,299.4l0.8-0.8 M140,298.6v-3.1 M140,295.5l-0.8-0.8 M139.2,294.7h-2.3
		 M141.6,294.7v3.8 M141.6,298.6l0.8,0.8 M142.3,299.4h1.5 M143.9,299.4l0.8-0.8 M144.7,298.6v-3.8 M146.2,299.4h1.5 M147,299.4
		v-4.6 M146.2,294.7h1.5 M149.3,299.4v-4.6 M149.3,294.7l3.1,4.6 M152.4,299.4v-4.6 M156.3,294.7h-1.5 M154.7,294.7l-0.8,0.8
		 M154,295.5v3.1 M154,298.6l0.8,0.8 M154.7,299.4h1.5 M156.3,299.4l0.8-0.8 M157,298.6v-3.1 M157,295.5l-0.8-0.8 M158.6,297.1h3.1
		 M163.2,294.7v3.8 M163.2,298.6l0.8,0.8 M164,299.4h1.5 M165.5,299.4l0.8-0.8 M166.3,298.6v-3.8 M167.9,299.4v-4.6 M167.9,294.7
		l3.1,4.6 M171,299.4v-4.6 M174.8,294.7h-1.5 M173.3,294.7l-0.8,0.8 M172.5,295.5v3.1 M172.5,298.6l0.8,0.8 M173.3,299.4h1.5
		 M174.8,299.4l0.8-0.8 M175.6,298.6v-3.1 M175.6,295.5l-0.8-0.8 M177.2,297.1h3.1 M181.8,299.4v-4.6 M181.8,294.7h2.3 M184.1,294.7
		l0.8,0.8 M184.9,295.5v1.5 M184.9,297.1l-0.8,0.8 M184.1,297.8h-2.3 M183.3,297.8l1.5,1.5 M186.4,295.5l0.8-0.8 M187.2,294.7h1.5
		 M188.7,294.7l0.8,0.8 M189.5,295.5v0.8 M189.5,296.3l-0.8,0.8 M188.7,297.1H188 M188.7,297.1l0.8,0.8 M189.5,297.8v0.8
		 M189.5,298.6l-0.8,0.8 M188.7,299.4h-1.5 M187.2,299.4l-0.8-0.8"/>
</g>
<g>
	<line class="st6" x1="84.2" y1="46.9" x2="77" y2="46.9"/>
	<text transform="matrix(1 0 0 1 60.6415 49.0173)" class="st5 st1 st11">3.3V</text>
	<line class="st6" x1="84.2" y1="32.5" x2="77" y2="32.5"/>
	<text transform="matrix(1 0 0 1 64.6044 34.6169)" class="st5 st1 st11">5V</text>
	<line class="st6" x1="84.2" y1="61.3" x2="77" y2="61.3"/>
	<text transform="matrix(1 0 0 1 59.8564 63.4177)" class="st5 st1 st11">GND</text>
	<text transform="matrix(1 0 0 1 78.0487 60.2497)" class="st5 st1 st11">GND*5</text>
	<line class="st6" x1="12.2" y1="32.5" x2="19.4" y2="32.5"/>
	<text transform="matrix(1 0 0 1 26.0644 34.6169)" class="st5 st1 st11">VIN</text>
	<line class="st7" x1="19.4" y1="68.5" x2="41" y2="68.5"/>
	<line class="st7" x1="41" y1="68.5" x2="77" y2="68.5"/>
	<line class="st7" x1="77" y1="68.5" x2="77" y2="25.3"/>
	<line class="st7" x1="77" y1="25.3" x2="19.4" y2="25.3"/>
	<line class="st7" x1="19.4" y1="25.3" x2="19.4" y2="46.9"/>
	<line class="st7" x1="19.4" y1="46.9" x2="19.4" y2="68.5"/>
	<line class="st7" x1="41" y1="46.9" x2="19.4" y2="46.9"/>
	<line class="st13" x1="36.7" y1="61.3" x2="40.3" y2="61.3"/>
	<line class="st13" x1="36.7" y1="54.1" x2="40.3" y2="54.1"/>
	<line class="st7" x1="41" y1="46.9" x2="41" y2="68.5"/>
	<text transform="matrix(6.123234e-17 -1 1 6.123234e-17 31.6806 63.4178)" class="st9 st1 st2">PWR</text>
	<text transform="matrix(1 0 0 1 19.4403 21.6579)" class="st5 st1 st2">PCB2.P</text>
	<text transform="matrix(1 0 0 1 19.4403 75.6579)" class="st5 st1 st2">ARDUINO-UNO-R3</text>
</g>
<g>
	<line class="st6" x1="251.6" y1="262.9" x2="266" y2="262.9"/>
	<text transform="matrix(1 0 0 1 272.6649 265.0173)" class="st5 st1 st11">!RESET!</text>
	<text transform="matrix(1 0 0 1 237.6183 261.8493)" class="st5 st1 st11">!RESET*2</text>
	<line class="st6" x1="251.6" y1="212.5" x2="266" y2="212.5"/>
	<text transform="matrix(1 0 0 1 272.6649 214.6169)" class="st5 st1 st11">CARD_CS</text>
	<text transform="matrix(1 0 0 1 253.3417 211.4489)" class="st5 st1 st11">D4</text>
	<line class="st6" x1="251.6" y1="248.5" x2="266" y2="248.5"/>
	<text transform="matrix(1 0 0 1 272.6649 250.6169)" class="st5 st1 st11">MISO</text>
	<text transform="matrix(1 0 0 1 247.2724 247.4489)" class="st5 st1 st11">MISO</text>
	<line class="st6" x1="251.6" y1="241.3" x2="266" y2="241.3"/>
	<text transform="matrix(1 0 0 1 272.6649 243.4177)" class="st5 st1 st11">MOSI</text>
	<text transform="matrix(1 0 0 1 247.2724 240.2497)" class="st5 st1 st11">MOSI</text>
	<line class="st6" x1="251.6" y1="255.7" x2="266" y2="255.7"/>
	<text transform="matrix(1 0 0 1 272.6649 257.8181)" class="st5 st1 st11">SCK</text>
	<text transform="matrix(1 0 0 1 249.6454 254.6501)" class="st5 st1 st11">SCK</text>
	<line class="st6" x1="251.6" y1="234.1" x2="266" y2="234.1"/>
	<text transform="matrix(1 0 0 1 272.6649 236.2184)" class="st5 st1 st11">SCL</text>
	<text transform="matrix(1 0 0 1 250.1728 233.0505)" class="st5 st1 st11">SCL</text>
	<line class="st6" x1="251.6" y1="226.9" x2="266" y2="226.9"/>
	<text transform="matrix(1 0 0 1 272.6649 229.0173)" class="st5 st1 st11">SDA</text>
	<text transform="matrix(1 0 0 1 249.6454 225.8493)" class="st5 st1 st11">SDA</text>
	<line class="st6" x1="251.6" y1="205.3" x2="266" y2="205.3"/>
	<text transform="matrix(1 0 0 1 272.6649 207.4177)" class="st5 st1 st11">TFT_CS</text>
	<text transform="matrix(1 0 0 1 250.6991 204.2497)" class="st5 st1 st11">D10</text>
	<line class="st7" x1="366.8" y1="198.1" x2="366.8" y2="270.1"/>
	<line class="st7" x1="366.8" y1="270.1" x2="266" y2="270.1"/>
	<line class="st7" x1="266" y1="198.1" x2="366.8" y2="198.1"/>
	<line class="st7" x1="266" y1="198.1" x2="266" y2="270.1"/>
	<line class="st15" x1="363.2" y1="201.7" x2="309.2" y2="201.7"/>
	<line class="st15" x1="309.2" y1="201.7" x2="309.2" y2="244.9"/>
	<line class="st15" x1="309.2" y1="244.9" x2="363.2" y2="244.9"/>
	<line class="st15" x1="363.2" y1="244.9" x2="363.2" y2="201.7"/>
	<line class="st15" x1="324.5" y1="251.2" x2="324.5" y2="265.6"/>
	<path class="st15" d="M324.5,265.6c0,0.5,0.4,0.9,0.9,0.9l0,0"/>
	<line class="st15" x1="325.4" y1="266.5" x2="330.8" y2="266.5"/>
	<path class="st15" d="M330.8,266.5c0.5,0,0.9-0.4,0.9-0.9"/>
	<path class="st15" d="M332.6,264.7c-0.5,0-0.9,0.4-0.9,0.9l0,0"/>
	<line class="st15" x1="332.6" y1="264.7" x2="334.4" y2="264.7"/>
	<path class="st15" d="M335.3,265.6c0-0.5-0.4-0.9-0.9-0.9"/>
	<path class="st15" d="M335.3,265.6c0,0.5,0.4,0.9,0.9,0.9l0,0"/>
	<path class="st15" d="M347.9,263.8c0.5,0,0.9-0.4,0.9-0.9"/>
	<line class="st15" x1="348.8" y1="262.9" x2="348.8" y2="251.2"/>
	<path class="st15" d="M348.8,251.2c0-0.5-0.4-0.9-0.9-0.9"/>
	<line class="st15" x1="347.9" y1="250.3" x2="325.4" y2="250.3"/>
	<path class="st15" d="M325.4,250.3c-0.5,0-0.9,0.4-0.9,0.9v0"/>
	<line class="st15" x1="338" y1="266.5" x2="340.7" y2="263.8"/>
	<line class="st15" x1="340.7" y1="263.8" x2="347.9" y2="263.8"/>
	<line class="st15" x1="336.2" y1="266.5" x2="338" y2="266.5"/>
	<text transform="matrix(1 0 0 1 331.7401 261.0583)" class="st9 st1 st2">SD</text>
	<text transform="matrix(1 0 0 1 321.9539 224.1579)" class="st9 st1 st2">TFT DISPLAY</text>
	<text transform="matrix(1 0 0 1 266.0409 276.1774)" class="st5 st1 st2">ARDUINO-SHIELD-SD7735-SD</text>
	<text transform="matrix(1 0 0 1 266.0409 196.9782)" class="st5 st1 st2">PCB3.IO</text>
</g>
<line class="st6" x1="170.6" y1="25.3" x2="170.6" y2="39.7"/>
<text transform="matrix(6.123234e-17 -1 1 6.123234e-17 169.6317 33.0329)" class="st5 st1 st11">5V*2</text>
<line class="st6" x1="170.6" y1="68.5" x2="170.6" y2="54.1"/>
<text transform="matrix(6.123234e-17 -1 1 6.123234e-17 169.6317 75.7321)" class="st5 st1 st11">GND*4</text>
<text transform="matrix(6.123234e-17 -1 1 6.123234e-17 174.9599 54.0563)" class="st5 st1 st12">GND</text>
<text transform="matrix(6.123234e-17 -1 1 6.123234e-17 174.9599 39.6579)" class="st5 st1 st12">5V</text>
<text transform="matrix(1 0 0 1 162.2685 49.0173)" class="st5 st1 st2">PCB3.P</text>
<line class="st6" x1="350.6" y1="169.3" x2="350.6" y2="162.1"/>
<line class="st6" x1="350.6" y1="140.5" x2="350.6" y2="147.7"/>
<line class="st7" x1="348.1" y1="162.1" x2="348.1" y2="147.7"/>
<line class="st7" x1="353.2" y1="147.7" x2="353.2" y2="162.1"/>
<line class="st7" x1="348.1" y1="147.7" x2="353.2" y2="147.7"/>
<line class="st7" x1="348.1" y1="162.1" x2="353.2" y2="162.1"/>
<text transform="matrix(6.123234e-17 -1 1 6.123234e-17 359.0729 163.4977)" class="st5 st1 st3">R1</text>
<text transform="matrix(6.123234e-17 -1 1 6.123234e-17 362.8803 163.4977)" class="st5 st1 st3">330Ω</text>
<g>
	<line class="st6" x1="329" y1="169.3" x2="329" y2="162.1"/>
	<line class="st6" x1="329" y1="140.5" x2="329" y2="147.7"/>
	<line class="st7" x1="325.4" y1="162.1" x2="325.4" y2="154.9"/>
	<line class="st7" x1="325.4" y1="154.9" x2="325.4" y2="147.7"/>
	<line class="st7" x1="322.6" y1="156.7" x2="322.6" y2="154.9"/>
	<line class="st7" x1="322.6" y1="154.9" x2="322.6" y2="153.1"/>
	<line class="st7" x1="325.4" y1="154.9" x2="322.6" y2="154.9"/>
	<text transform="matrix(6.123234e-17 -1 1 6.123234e-17 336.2294 162.0622)" class="st5 st1 st3">SW1</text>
	<text transform="matrix(6.123234e-17 -1 1 6.123234e-17 340.5692 162.0622)" class="st5 st1 st3">PUSH-BTN</text>
</g>
<g>
	<circle class="st10" cx="264.2" cy="159.2" r="10.2"/>
	<line class="st6" x1="242.6" y1="147.7" x2="249.8" y2="147.7"/>
	<text transform="matrix(1 0 0 1 246.1894 146.6501)" class="st5 st1 st11">1</text>
	<line class="st6" x1="242.6" y1="154.9" x2="249.8" y2="154.9"/>
	<text transform="matrix(1 0 0 1 246.1894 153.8493)" class="st5 st1 st11">2</text>
	<line class="st6" x1="242.6" y1="162.1" x2="249.8" y2="162.1"/>
	<text transform="matrix(1 0 0 1 246.1894 161.0505)" class="st5 st1 st11">4</text>
	<line class="st6" x1="242.6" y1="169.3" x2="249.8" y2="169.3"/>
	<text transform="matrix(1 0 0 1 246.1894 168.2497)" class="st5 st1 st11">8</text>
	<line class="st6" x1="285.8" y1="162.1" x2="278.6" y2="162.1"/>
	<text transform="matrix(1 0 0 1 279.6483 161.0505)" class="st5 st1 st11">C_1*2</text>
	<line class="st7" x1="278.6" y1="176.5" x2="249.8" y2="176.5"/>
	<line class="st7" x1="249.8" y1="176.5" x2="249.8" y2="140.5"/>
	<line class="st7" x1="249.8" y1="140.5" x2="278.6" y2="140.5"/>
	<line class="st7" x1="278.6" y1="140.5" x2="278.6" y2="176.5"/>
	<line class="st6" x1="264.2" y1="158.5" x2="270" y2="152.7"/>
	<line class="st6" x1="270" y1="152.7" x2="270" y2="155.6"/>
	<line class="st6" x1="270" y1="152.7" x2="267.1" y2="152.7"/>
	<text transform="matrix(1 0 0 1 249.8407 138.2985)" class="st5 st1 st2">SW2</text>
	<text transform="matrix(1 0 0 1 249.8407 181.5617)" class="st5 st1 st2">SH-7030TB</text>
</g>
</svg>
